SplineFontDB: 1.0
FontName: DejaVuSans-BoldOblique
FullName: DejaVu Sans Bold Oblique
FamilyName: DejaVu Sans
Weight: Bold
Copyright: Copyright (c) 2003 by Bitstream, Inc. All Rights Reserved.\nCopyright (c) 2006 by Tavmjong Bah. All Rights Reserved.\nDejaVu changes are in public domain\n
Version: 2.13
ItalicAngle: -11
UnderlinePosition: -85
UnderlineWidth: 90
Ascent: 1556
Descent: 492
Order2: 1
NeedsXUIDChange: 1
FSType: 0
OS2Version: 0
OS2_WeightWidthSlopeOnly: 0
OS2_UseTypoMetrics: 0
PfmFamily: 17
TTFWeight: 700
TTFWidth: 5
LineGap: 0
VLineGap: 0
Panose: 2 11 8 3 3 3 4 11 2 4
OS2TypoAscent: 1556
OS2TypoAOffset: 0
OS2TypoDescent: -492
OS2TypoDOffset: 0
OS2TypoLinegap: 410
OS2WinAscent: 1901
OS2WinAOffset: 0
OS2WinDescent: 483
OS2WinDOffset: 0
HheadAscent: 1901
HheadAOffset: 0
HheadDescent: -483
HheadDOffset: 0
OS2Vendor: 'PfEd'
ScriptLang: 9
 4 cyrl 1 dflt grek 1 dflt lao  1 dflt latn 1 dflt 
 1 DFLT 1 dflt 
 1 latn 1 dflt 
 1 armn 1 dflt 
 1 latn 1 DNK  
 1 grek 1 dflt 
 1 hebr 1 dflt 
 2 arab 1 dflt hebr 1 dflt 
 1 cyrl 2 MKD  SRB  
ChainSub: class 0 0 'ccmp' 4 4 4 2
  Class: 19 i j uni0268 uni029D
  Class: 181 gravecomb acutecomb uni0302 tildecomb uni0304 uni0305 uni0306 uni0307 uni0308 uni030A uni030B uni030C uni030D uni030E uni030F uni0310 uni0311 uni0312 uni0313 uni0314 uni033D uni033E

StartChar: .notdef
Encoding: 0 -1 0
AltUni: 0
Width: 1229
Flags: W
Fore
102 -362 m 1,0,-1
 102 1444 l 1,1,-1
 1126 1444 l 1,2,-1
 1126 -362 l 1,3,-1
 102 -362 l 1,0,-1
217 -248 m 1,4,-1
 1012 -248 l 1,5,-1
 1012 1329 l 1,6,-1
 217 1329 l 1,7,-1
 217 -248 l 1,4,-1
EndSplineSet
EndChar
StartChar: exclam
Encoding: 33 33 33
Width: 934
Flags: W
Fore
432 1493 m 1,0,-1
 793 1493 l 1,1,-1
 680 920 l 1,2,-1
 549 502 l 1,3,-1
 291 502 l 1,4,-1
 319 920 l 1,5,-1
 432 1493 l 1,0,-1
211 356 m 1,6,-1
 571 356 l 1,7,-1
 502 0 l 1,8,-1
 141 0 l 1,9,-1
 211 356 l 1,6,-1
EndSplineSet
EndChar
StartChar: quotedbl
Encoding: 34 34 34
Width: 1067
Flags: W
Fore
872 1493 m 1,0,-1
 872 938 l 1,1,-1
 635 938 l 1,2,-1
 635 1493 l 1,3,-1
 872 1493 l 1,0,-1
432 1493 m 1,4,-1
 432 938 l 1,5,-1
 195 938 l 1,6,-1
 195 1493 l 1,7,-1
 432 1493 l 1,4,-1
EndSplineSet
EndChar
StartChar: numbersign
Encoding: 35 35 35
Width: 1425
Flags: W
Fore
1024 872 m 1,0,-1
 760 872 l 1,1,-1
 690 598 l 1,2,-1
 954 598 l 1,3,-1
 1024 872 l 1,0,-1
911 1470 m 1,4,-1
 815 1085 l 1,5,-1
 1079 1085 l 1,6,-1
 1176 1470 l 1,7,-1
 1397 1470 l 1,8,-1
 1300 1085 l 1,9,-1
 1597 1085 l 1,10,-1
 1544 872 l 1,11,-1
 1247 872 l 1,12,-1
 1178 598 l 1,13,-1
 1475 598 l 1,14,-1
 1421 383 l 1,15,-1
 1126 383 l 1,16,-1
 1030 0 l 1,17,-1
 809 0 l 1,18,-1
 905 383 l 1,19,-1
 641 383 l 1,20,-1
 545 0 l 1,21,-1
 322 0 l 1,22,-1
 418 383 l 1,23,-1
 133 383 l 1,24,-1
 186 598 l 1,25,-1
 467 598 l 1,26,-1
 537 872 l 1,27,-1
 254 872 l 1,28,-1
 307 1085 l 1,29,-1
 592 1085 l 1,30,-1
 688 1470 l 1,31,-1
 911 1470 l 1,4,-1
EndSplineSet
EndChar
StartChar: dollar
Encoding: 36 36 36
Width: 1425
Flags: W
Fore
596 -301 m 1,0,-1
 434 -301 l 1,1,-1
 493 0 l 1,2,3
 366 5 366 5 257 26.5 c 128,-1,4
 148 48 148 48 55 86 c 1,5,-1
 104 348 l 1,6,7
 200 293 200 293 308.5 262.5 c 128,-1,8
 417 232 417 232 537 228 c 1,9,-1
 598 539 l 1,10,11
 388 570 388 570 292.5 650.5 c 128,-1,12
 197 731 197 731 197 874 c 0,13,14
 197 1073 197 1073 346.5 1195.5 c 128,-1,15
 496 1318 496 1318 751 1327 c 1,16,-1
 795 1556 l 1,17,-1
 956 1556 l 1,18,-1
 913 1329 l 1,19,20
 1014 1323 1014 1323 1108 1306 c 128,-1,21
 1202 1289 1202 1289 1290 1262 c 1,22,-1
 1241 1008 l 1,23,24
 1178 1045 1178 1045 1082.5 1068.5 c 128,-1,25
 987 1092 987 1092 868 1099 c 1,26,-1
 811 811 l 1,27,28
 1024 775 1024 775 1126.5 694 c 128,-1,29
 1229 613 1229 613 1229 479 c 0,30,31
 1229 259 1229 259 1078.5 134 c 128,-1,32
 928 9 928 9 654 0 c 1,33,-1
 596 -301 l 1,0,-1
655 836 m 1,34,-1
 706 1098 l 1,35,36
 622 1090 622 1090 572 1049.5 c 128,-1,37
 522 1009 522 1009 522 948 c 0,38,39
 522 900 522 900 554.5 872.5 c 128,-1,40
 587 845 587 845 655 836 c 1,34,-1
754 512 m 1,41,-1
 699 227 l 1,42,43
 798 232 798 232 851.5 275 c 128,-1,44
 905 318 905 318 905 393 c 0,45,46
 905 444 905 444 868.5 472.5 c 128,-1,47
 832 501 832 501 754 512 c 1,41,-1
EndSplineSet
EndChar
StartChar: percent
Encoding: 37 37 37
Width: 2052
Flags: W
Fore
1565 616 m 0,0,1
 1479 616 1479 616 1423.5 532 c 128,-1,2
 1368 448 1368 448 1368 315 c 0,3,4
 1368 228 1368 228 1398.5 184.5 c 128,-1,5
 1429 141 1429 141 1491 141 c 0,6,7
 1578 141 1578 141 1633 225 c 128,-1,8
 1688 309 1688 309 1688 444 c 0,9,10
 1688 529 1688 529 1656.5 572.5 c 128,-1,11
 1625 616 1625 616 1565 616 c 0,0,1
1593 784 m 0,12,13
 1750 784 1750 784 1844.5 698.5 c 128,-1,14
 1939 613 1939 613 1939 473 c 0,15,16
 1939 249 1939 249 1806.5 110 c 128,-1,17
 1674 -29 1674 -29 1460 -29 c 0,18,19
 1303 -29 1303 -29 1208.5 57.5 c 128,-1,20
 1114 144 1114 144 1114 285 c 0,21,22
 1114 507 1114 507 1246.5 645.5 c 128,-1,23
 1379 784 1379 784 1593 784 c 0,12,13
532 -29 m 1,24,-1
 287 -29 l 1,25,-1
 1522 1520 l 1,26,-1
 1767 1520 l 1,27,-1
 532 -29 l 1,24,-1
594 1520 m 0,28,29
 750 1520 750 1520 845 1434 c 128,-1,30
 940 1348 940 1348 940 1208 c 0,31,32
 940 985 940 985 806.5 846 c 128,-1,33
 673 707 673 707 459 707 c 0,34,35
 302 707 302 707 207.5 792 c 128,-1,36
 113 877 113 877 113 1018 c 0,37,38
 113 1240 113 1240 246.5 1380 c 128,-1,39
 380 1520 380 1520 594 1520 c 0,28,29
563 1352 m 0,40,41
 477 1352 477 1352 422 1267.5 c 128,-1,42
 367 1183 367 1183 367 1051 c 0,43,44
 367 963 367 963 397.5 918.5 c 128,-1,45
 428 874 428 874 489 874 c 0,46,47
 576 874 576 874 631 959 c 128,-1,48
 686 1044 686 1044 686 1180 c 0,49,50
 686 1264 686 1264 654.5 1308 c 128,-1,51
 623 1352 623 1352 563 1352 c 0,40,41
EndSplineSet
EndChar
StartChar: ampersand
Encoding: 38 38 38
Width: 1786
Flags: W
Fore
877 915 m 2,0,-1
 1174 541 l 1,1,2
 1236 604 1236 604 1281 692 c 128,-1,3
 1326 780 1326 780 1354 895 c 1,4,-1
 1665 895 l 1,5,6
 1622 720 1622 720 1542.5 577 c 128,-1,7
 1463 434 1463 434 1343 322 c 1,8,-1
 1599 0 l 1,9,-1
 1161 0 l 1,10,-1
 1077 106 l 1,11,12
 959 38 959 38 841 4.5 c 128,-1,13
 723 -29 723 -29 600 -29 c 0,14,15
 355 -29 355 -29 206 94 c 128,-1,16
 57 217 57 217 57 416 c 0,17,18
 57 567 57 567 152.5 693.5 c 128,-1,19
 248 820 248 820 449 934 c 1,20,21
 423 978 423 978 410 1023 c 128,-1,22
 397 1068 397 1068 397 1116 c 0,23,24
 397 1292 397 1292 548 1406 c 128,-1,25
 699 1520 699 1520 938 1520 c 0,26,27
 1029 1520 1029 1520 1124.5 1505.5 c 128,-1,28
 1220 1491 1220 1491 1321 1462 c 1,29,-1
 1268 1184 l 1,30,31
 1181 1232 1181 1232 1102 1255 c 128,-1,32
 1023 1278 1023 1278 944 1278 c 0,33,34
 858 1278 858 1278 808 1242 c 128,-1,35
 758 1206 758 1206 758 1145 c 0,36,37
 758 1107 758 1107 788 1048.5 c 128,-1,38
 818 990 818 990 877 915 c 2,0,-1
575 743 m 1,39,40
 495 692 495 692 453.5 625.5 c 128,-1,41
 412 559 412 559 412 483 c 0,42,43
 412 376 412 376 488 302.5 c 128,-1,44
 564 229 564 229 678 229 c 0,45,46
 738 229 738 229 797 250 c 128,-1,47
 856 271 856 271 915 313 c 1,48,-1
 575 743 l 1,39,40
EndSplineSet
EndChar
StartChar: quotesingle
Encoding: 39 39 39
Width: 627
Flags: W
Fore
432 1493 m 1,0,-1
 432 938 l 1,1,-1
 195 938 l 1,2,-1
 195 1493 l 1,3,-1
 432 1493 l 1,0,-1
EndSplineSet
EndChar
StartChar: parenleft
Encoding: 40 40 40
Width: 936
Flags: W
Fore
604 -270 m 1,0,-1
 313 -270 l 1,1,2
 235 -104 235 -104 196.5 55.5 c 128,-1,3
 158 215 158 215 158 373 c 0,4,5
 158 668 158 668 285 962.5 c 128,-1,6
 412 1257 412 1257 668 1554 c 1,7,-1
 958 1554 l 1,8,9
 725 1244 725 1244 610.5 940.5 c 128,-1,10
 496 637 496 637 496 332 c 0,11,12
 496 182 496 182 523 32.5 c 128,-1,13
 550 -117 550 -117 604 -270 c 1,0,-1
EndSplineSet
EndChar
StartChar: parenright
Encoding: 41 41 41
Width: 936
Flags: W
Fore
299 1554 m 1,0,-1
 592 1554 l 1,1,2
 669 1390 669 1390 707 1230.5 c 128,-1,3
 745 1071 745 1071 745 911 c 0,4,5
 745 613 745 613 618.5 318.5 c 128,-1,6
 492 24 492 24 238 -270 c 1,7,-1
 -55 -270 l 1,8,9
 178 40 178 40 293 344 c 128,-1,10
 408 648 408 648 408 954 c 0,11,12
 408 1104 408 1104 381 1252.5 c 128,-1,13
 354 1401 354 1401 299 1554 c 1,0,-1
EndSplineSet
EndChar
StartChar: asterisk
Encoding: 42 42 42
Width: 1071
Flags: W
Fore
1030 1217 m 1,0,-1
 700 1044 l 1,1,-1
 1030 870 l 1,2,-1
 954 729 l 1,3,-1
 621 913 l 1,4,-1
 621 569 l 1,5,-1
 451 569 l 1,6,-1
 451 913 l 1,7,-1
 117 729 l 1,8,-1
 41 870 l 1,9,-1
 375 1044 l 1,10,-1
 41 1217 l 1,11,-1
 117 1358 l 1,12,-1
 451 1176 l 1,13,-1
 451 1520 l 1,14,-1
 621 1520 l 1,15,-1
 621 1176 l 1,16,-1
 954 1358 l 1,17,-1
 1030 1217 l 1,0,-1
EndSplineSet
EndChar
StartChar: plus
Encoding: 43 43 43
Width: 1716
Flags: W
Fore
977 1284 m 1,0,-1
 977 760 l 1,1,-1
 1499 760 l 1,2,-1
 1499 524 l 1,3,-1
 977 524 l 1,4,-1
 977 0 l 1,5,-1
 739 0 l 1,6,-1
 739 524 l 1,7,-1
 217 524 l 1,8,-1
 217 760 l 1,9,-1
 739 760 l 1,10,-1
 739 1284 l 1,11,-1
 977 1284 l 1,0,-1
EndSplineSet
EndChar
StartChar: comma
Encoding: 44 44 44
Width: 778
Flags: W
Fore
164 387 m 1,0,-1
 524 387 l 1,1,-1
 465 82 l 1,2,-1
 143 -291 l 1,3,-1
 -70 -291 l 1,4,-1
 104 82 l 1,5,-1
 164 387 l 1,0,-1
EndSplineSet
EndChar
StartChar: hyphen
Encoding: 45 45 45
Width: 850
Flags: W
Fore
109 735 m 1,0,-1
 737 735 l 1,1,-1
 680 444 l 1,2,-1
 51 444 l 1,3,-1
 109 735 l 1,0,-1
EndSplineSet
KernsSLIFO: 356 -301 2 0 221 -339 2 0 376 -339 2 0 89 -339 2 0 88 -206 2 0 87 -92 2 0 86 -149 2 0 84 -301 2 0
EndChar
StartChar: period
Encoding: 46 46 46
Width: 778
Flags: W
Fore
170 387 m 1,0,-1
 530 387 l 1,1,-1
 455 0 l 1,2,-1
 94 0 l 1,3,-1
 170 387 l 1,0,-1
EndSplineSet
EndChar
StartChar: slash
Encoding: 47 47 47
Width: 748
Flags: W
Fore
657 1493 m 1,0,-1
 889 1493 l 1,1,-1
 35 -190 l 1,2,-1
 -197 -190 l 1,3,-1
 657 1493 l 1,0,-1
EndSplineSet
EndChar
StartChar: zero
Encoding: 48 48 48
Width: 1425
Flags: W
AnchorPoint: "below" 568 0 basechar 0
AnchorPoint: "above" 864 1520 basechar 0
Fore
612 233 m 0,0,1
 689 233 689 233 748.5 279 c 128,-1,2
 808 325 808 325 848 414 c 0,3,4
 876 477 876 477 899 557.5 c 128,-1,5
 922 638 922 638 942 748 c 0,6,7
 959 837 959 837 968 912 c 128,-1,8
 977 987 977 987 977 1040 c 0,9,10
 977 1152 977 1152 937 1204.5 c 128,-1,11
 897 1257 897 1257 813 1257 c 0,12,13
 735 1257 735 1257 676 1212.5 c 128,-1,14
 617 1168 617 1168 578 1077 c 1,15,16
 548 1012 548 1012 523.5 929 c 128,-1,17
 499 846 499 846 481 748 c 0,18,19
 464 658 464 658 455 581 c 128,-1,20
 446 504 446 504 446 451 c 0,21,22
 446 340 446 340 487 286.5 c 128,-1,23
 528 233 528 233 612 233 c 0,0,1
1352 983 m 0,24,25
 1352 784 1352 784 1297 596 c 128,-1,26
 1242 408 1242 408 1143 266 c 0,27,28
 1042 120 1042 120 899 45.5 c 128,-1,29
 756 -29 756 -29 580 -29 c 0,30,31
 335 -29 335 -29 204.5 110 c 128,-1,32
 74 249 74 249 74 510 c 0,33,34
 74 706 74 706 128.5 894.5 c 128,-1,35
 183 1083 183 1083 281 1223 c 0,36,37
 384 1370 384 1370 526 1445 c 128,-1,38
 668 1520 668 1520 846 1520 c 0,39,40
 1089 1520 1089 1520 1220.5 1380.5 c 128,-1,41
 1352 1241 1352 1241 1352 983 c 0,24,25
EndSplineSet
EndChar
StartChar: one
Encoding: 49 49 49
Width: 1425
Flags: W
AnchorPoint: "below" 568 0 basechar 0
AnchorPoint: "above" 864 1520 basechar 0
Fore
141 266 m 1,0,-1
 481 266 l 1,1,-1
 668 1231 l 1,2,-1
 305 1159 l 1,3,-1
 356 1421 l 1,4,-1
 717 1493 l 1,5,-1
 1083 1493 l 1,6,-1
 846 266 l 1,7,-1
 1184 266 l 1,8,-1
 1133 0 l 1,9,-1
 88 0 l 1,10,-1
 141 266 l 1,0,-1
EndSplineSet
EndChar
StartChar: two
Encoding: 50 50 50
Width: 1425
Flags: W
AnchorPoint: "below" 568 0 basechar 0
AnchorPoint: "above" 864 1520 basechar 0
Fore
506 283 m 1,0,-1
 1155 283 l 1,1,-1
 1100 0 l 1,2,-1
 16 0 l 1,3,-1
 72 285 l 1,4,-1
 707 764 l 1,5,6
 811 844 811 844 865.5 926 c 128,-1,7
 920 1008 920 1008 920 1085 c 0,8,9
 920 1167 920 1167 864 1212 c 128,-1,10
 808 1257 808 1257 707 1257 c 0,11,12
 612 1257 612 1257 495 1219.5 c 128,-1,13
 378 1182 378 1182 231 1104 c 1,14,-1
 295 1421 l 1,15,16
 431 1471 431 1471 562 1495.5 c 128,-1,17
 693 1520 693 1520 821 1520 c 0,18,19
 1049 1520 1049 1520 1180 1421.5 c 128,-1,20
 1311 1323 1311 1323 1311 1153 c 0,21,22
 1311 1007 1311 1007 1231 887 c 128,-1,23
 1151 767 1151 767 879 563 c 2,24,-1
 506 283 l 1,0,-1
EndSplineSet
EndChar
StartChar: three
Encoding: 51 51 51
Width: 1425
Flags: W
AnchorPoint: "below" 568 0 basechar 0
AnchorPoint: "above" 864 1520 basechar 0
Fore
967 805 m 1,0,1
 1080 779 1080 779 1143 700 c 128,-1,2
 1206 621 1206 621 1206 506 c 0,3,4
 1206 258 1206 258 1009.5 114.5 c 128,-1,5
 813 -29 813 -29 469 -29 c 0,6,7
 339 -29 339 -29 221.5 -10.5 c 128,-1,8
 104 8 104 8 0 45 c 1,9,-1
 57 342 l 1,10,11
 146 290 146 290 251 261.5 c 128,-1,12
 356 233 356 233 461 233 c 0,13,14
 630 233 630 233 728.5 296.5 c 128,-1,15
 827 360 827 360 827 467 c 0,16,17
 827 556 827 556 752 600.5 c 128,-1,18
 677 645 677 645 526 645 c 2,19,-1
 373 645 l 1,20,-1
 422 893 l 1,21,-1
 584 893 l 2,22,23
 741 893 741 893 832.5 950 c 128,-1,24
 924 1007 924 1007 924 1104 c 0,25,26
 924 1180 924 1180 860.5 1220 c 128,-1,27
 797 1260 797 1260 676 1260 c 0,28,29
 591 1260 591 1260 491 1238 c 128,-1,30
 391 1216 391 1216 283 1174 c 1,31,-1
 338 1456 l 1,32,33
 456 1488 456 1488 570.5 1504 c 128,-1,34
 685 1520 685 1520 797 1520 c 0,35,36
 1050 1520 1050 1520 1177.5 1436 c 128,-1,37
 1305 1352 1305 1352 1305 1186 c 0,38,39
 1305 1037 1305 1037 1216.5 937.5 c 128,-1,40
 1128 838 1128 838 967 805 c 1,0,1
EndSplineSet
EndChar
StartChar: four
Encoding: 52 52 52
Width: 1425
Flags: W
AnchorPoint: "below" 568 0 basechar 0
AnchorPoint: "above" 864 1520 basechar 0
Fore
844 1165 m 1,0,-1
 313 551 l 1,1,-1
 723 551 l 1,2,-1
 844 1165 l 1,0,-1
834 1493 m 1,3,-1
 1272 1493 l 1,4,-1
 1087 551 l 1,5,-1
 1300 551 l 1,6,-1
 1247 272 l 1,7,-1
 1034 272 l 1,8,-1
 981 0 l 1,9,-1
 616 0 l 1,10,-1
 670 272 l 1,11,-1
 -2 272 l 1,12,-1
 63 602 l 1,13,-1
 834 1493 l 1,3,-1
EndSplineSet
EndChar
StartChar: five
Encoding: 53 53 53
Width: 1425
Flags: W
AnchorPoint: "below" 568 0 basechar 0
AnchorPoint: "above" 864 1520 basechar 0
Fore
362 1493 m 1,0,-1
 1319 1493 l 1,1,-1
 1264 1210 l 1,2,-1
 614 1210 l 1,3,-1
 569 979 l 1,4,5
 613 991 613 991 660.5 997.5 c 128,-1,6
 708 1004 708 1004 756 1004 c 0,7,8
 985 1004 985 1004 1114 899.5 c 128,-1,9
 1243 795 1243 795 1243 610 c 0,10,11
 1243 316 1243 316 1044 143.5 c 128,-1,12
 845 -29 845 -29 504 -29 c 0,13,14
 379 -29 379 -29 261 -4.5 c 128,-1,15
 143 20 143 20 27 70 c 1,16,-1
 86 373 l 1,17,18
 197 301 197 301 301.5 267 c 128,-1,19
 406 233 406 233 514 233 c 0,20,21
 672 233 672 233 767 315.5 c 128,-1,22
 862 398 862 398 862 532 c 0,23,24
 862 628 862 628 790 684.5 c 128,-1,25
 718 741 718 741 594 741 c 0,26,27
 510 741 510 741 412.5 719.5 c 128,-1,28
 315 698 315 698 199 653 c 1,29,-1
 362 1493 l 1,0,-1
EndSplineSet
EndChar
StartChar: six
Encoding: 54 54 54
Width: 1425
Flags: W
AnchorPoint: "below" 568 0 basechar 0
AnchorPoint: "above" 864 1520 basechar 0
Fore
741 737 m 0,0,1
 627 737 627 737 554 643 c 128,-1,2
 481 549 481 549 481 401 c 0,3,4
 481 312 481 312 526 262.5 c 128,-1,5
 571 213 571 213 651 213 c 0,6,7
 764 213 764 213 837.5 305.5 c 128,-1,8
 911 398 911 398 911 539 c 0,9,10
 911 635 911 635 867 686 c 128,-1,11
 823 737 823 737 741 737 c 0,0,1
1352 1454 m 1,12,-1
 1298 1178 l 1,13,14
 1212 1222 1212 1222 1131 1244 c 128,-1,15
 1050 1266 1050 1266 969 1266 c 0,16,17
 783 1266 783 1266 668 1166 c 128,-1,18
 553 1066 553 1066 528 885 c 1,19,20
 606 936 606 936 688.5 960.5 c 128,-1,21
 771 985 771 985 864 985 c 0,22,23
 1048 985 1048 985 1165 876 c 128,-1,24
 1282 767 1282 767 1282 598 c 0,25,26
 1282 322 1282 322 1101.5 145.5 c 128,-1,27
 921 -31 921 -31 637 -31 c 0,28,29
 382 -31 382 -31 242 113.5 c 128,-1,30
 102 258 102 258 102 522 c 0,31,32
 102 726 102 726 164 911.5 c 128,-1,33
 226 1097 226 1097 338 1231 c 0,34,35
 458 1374 458 1374 621.5 1446 c 128,-1,36
 785 1518 785 1518 989 1518 c 0,37,38
 1083 1518 1083 1518 1172 1502 c 128,-1,39
 1261 1486 1261 1486 1352 1454 c 1,12,-1
EndSplineSet
EndChar
StartChar: seven
Encoding: 55 55 55
Width: 1425
Flags: W
AnchorPoint: "below" 568 0 basechar 0
AnchorPoint: "above" 864 1520 basechar 0
Fore
295 1493 m 1,0,-1
 1421 1493 l 1,1,-1
 1376 1274 l 1,2,-1
 545 0 l 1,3,-1
 160 0 l 1,4,-1
 950 1210 l 1,5,-1
 242 1210 l 1,6,-1
 295 1493 l 1,0,-1
EndSplineSet
EndChar
StartChar: eight
Encoding: 56 56 56
Width: 1425
Flags: W
AnchorPoint: "below" 568 0 basechar 0
AnchorPoint: "above" 864 1520 basechar 0
Fore
688 668 m 0,0,1
 571 668 571 668 492.5 588.5 c 128,-1,2
 414 509 414 509 414 393 c 0,3,4
 414 310 414 310 465 261.5 c 128,-1,5
 516 213 516 213 604 213 c 0,6,7
 723 213 723 213 801 291.5 c 128,-1,8
 879 370 879 370 879 487 c 0,9,10
 879 570 879 570 827.5 619 c 128,-1,11
 776 668 776 668 688 668 c 0,0,1
442 795 m 1,12,13
 334 840 334 840 280.5 912 c 128,-1,14
 227 984 227 984 227 1085 c 0,15,16
 227 1288 227 1288 393.5 1404 c 128,-1,17
 560 1520 560 1520 854 1520 c 0,18,19
 1090 1520 1090 1520 1220 1432 c 128,-1,20
 1350 1344 1350 1344 1350 1184 c 0,21,22
 1350 1042 1350 1042 1259.5 941 c 128,-1,23
 1169 840 1169 840 1001 795 c 1,24,25
 1123 748 1123 748 1181 669 c 128,-1,26
 1239 590 1239 590 1239 469 c 0,27,28
 1239 239 1239 239 1059.5 105 c 128,-1,29
 880 -29 880 -29 567 -29 c 0,30,31
 320 -29 320 -29 182.5 69.5 c 128,-1,32
 45 168 45 168 45 344 c 0,33,34
 45 503 45 503 150.5 622.5 c 128,-1,35
 256 742 256 742 442 795 c 1,12,13
819 1278 m 0,36,37
 717 1278 717 1278 655.5 1218.5 c 128,-1,38
 594 1159 594 1159 594 1061 c 0,39,40
 594 993 594 993 638.5 951 c 128,-1,41
 683 909 683 909 756 909 c 0,42,43
 858 909 858 909 919.5 968.5 c 128,-1,44
 981 1028 981 1028 981 1126 c 0,45,46
 981 1195 981 1195 936.5 1236.5 c 128,-1,47
 892 1278 892 1278 819 1278 c 0,36,37
EndSplineSet
EndChar
StartChar: nine
Encoding: 57 57 57
Width: 1425
Flags: W
AnchorPoint: "below" 568 0 basechar 0
AnchorPoint: "above" 864 1520 basechar 0
Fore
84 33 m 1,0,-1
 137 309 l 1,1,2
 224 264 224 264 305 242.5 c 128,-1,3
 386 221 386 221 467 221 c 0,4,5
 653 221 653 221 768 321 c 128,-1,6
 883 421 883 421 907 602 c 1,7,8
 830 551 830 551 748 526.5 c 128,-1,9
 666 502 666 502 573 502 c 0,10,11
 390 502 390 502 273 611 c 128,-1,12
 156 720 156 720 156 889 c 0,13,14
 156 1165 156 1165 336.5 1341.5 c 128,-1,15
 517 1518 517 1518 801 1518 c 0,16,17
 1056 1518 1056 1518 1195.5 1373.5 c 128,-1,18
 1335 1229 1335 1229 1335 965 c 0,19,20
 1335 762 1335 762 1273 576.5 c 128,-1,21
 1211 391 1211 391 1098 256 c 0,22,23
 978 113 978 113 815.5 41 c 128,-1,24
 653 -31 653 -31 449 -31 c 0,25,26
 354 -31 354 -31 264 -15 c 128,-1,27
 174 1 174 1 84 33 c 1,0,-1
694 750 m 0,28,29
 808 750 808 750 881 844 c 128,-1,30
 954 938 954 938 954 1085 c 0,31,32
 954 1176 954 1176 910.5 1225 c 128,-1,33
 867 1274 867 1274 786 1274 c 0,34,35
 673 1274 673 1274 598.5 1181 c 128,-1,36
 524 1088 524 1088 524 948 c 0,37,38
 524 852 524 852 568 801 c 128,-1,39
 612 750 612 750 694 750 c 0,28,29
EndSplineSet
EndChar
StartChar: colon
Encoding: 58 58 58
Width: 819
Flags: W
Fore
301 1120 m 1,0,-1
 662 1120 l 1,1,-1
 588 733 l 1,2,-1
 227 733 l 1,3,-1
 301 1120 l 1,0,-1
160 387 m 1,4,-1
 520 387 l 1,5,-1
 444 0 l 1,6,-1
 84 0 l 1,7,-1
 160 387 l 1,4,-1
EndSplineSet
EndChar
StartChar: semicolon
Encoding: 59 59 59
Width: 819
Flags: W
Fore
160 387 m 1,0,-1
 520 387 l 1,1,-1
 461 82 l 1,2,-1
 141 -291 l 1,3,-1
 -72 -291 l 1,4,-1
 100 82 l 1,5,-1
 160 387 l 1,0,-1
301 1120 m 1,6,-1
 662 1120 l 1,7,-1
 588 733 l 1,8,-1
 227 733 l 1,9,-1
 301 1120 l 1,6,-1
EndSplineSet
EndChar
StartChar: less
Encoding: 60 60 60
Width: 1716
Flags: W
Fore
1499 973 m 1,0,-1
 535 641 l 1,1,-1
 1499 311 l 1,2,-1
 1499 61 l 1,3,-1
 217 524 l 1,4,-1
 217 760 l 1,5,-1
 1499 1223 l 1,6,-1
 1499 973 l 1,0,-1
EndSplineSet
EndChar
StartChar: equal
Encoding: 61 61 61
Width: 1716
Flags: W
Fore
217 987 m 1,0,-1
 1499 987 l 1,1,-1
 1499 752 l 1,2,-1
 217 752 l 1,3,-1
 217 987 l 1,0,-1
217 532 m 1,4,-1
 1499 532 l 1,5,-1
 1499 295 l 1,6,-1
 217 295 l 1,7,-1
 217 532 l 1,4,-1
EndSplineSet
EndChar
StartChar: greater
Encoding: 62 62 62
Width: 1716
Flags: W
Fore
217 973 m 1,0,-1
 217 1223 l 1,1,-1
 1499 760 l 1,2,-1
 1499 524 l 1,3,-1
 217 61 l 1,4,-1
 217 311 l 1,5,-1
 1182 641 l 1,6,-1
 217 973 l 1,0,-1
EndSplineSet
EndChar
StartChar: question
Encoding: 63 63 63
Width: 1188
Flags: W
Fore
283 356 m 1,0,-1
 643 356 l 1,1,-1
 573 0 l 1,2,-1
 213 0 l 1,3,-1
 283 356 l 1,0,-1
672 504 m 1,4,-1
 311 504 l 1,5,-1
 319 553 l 1,6,7
 335 633 335 633 378.5 695.5 c 128,-1,8
 422 758 422 758 553 860 c 2,9,-1
 627 918 l 2,10,11
 706 979 706 979 742 1032 c 128,-1,12
 778 1085 778 1085 778 1139 c 0,13,14
 778 1196 778 1196 737.5 1226.5 c 128,-1,15
 697 1257 697 1257 621 1257 c 0,16,17
 541 1257 541 1257 440.5 1223.5 c 128,-1,18
 340 1190 340 1190 225 1124 c 1,19,-1
 287 1438 l 1,20,21
 414 1480 414 1480 519 1500 c 128,-1,22
 624 1520 624 1520 721 1520 c 0,23,24
 915 1520 915 1520 1025 1434.5 c 128,-1,25
 1135 1349 1135 1349 1135 1200 c 0,26,27
 1135 1081 1135 1081 1082 987 c 128,-1,28
 1029 893 1029 893 901 791 c 2,29,-1
 825 731 l 2,30,31
 745 669 745 669 716.5 630.5 c 128,-1,32
 688 592 688 592 680 549 c 1,33,-1
 672 504 l 1,4,-1
EndSplineSet
EndChar
StartChar: at
Encoding: 64 64 64
Width: 2048
Flags: W
Fore
1034 801 m 0,0,1
 928 801 928 801 852 696 c 128,-1,2
 776 591 776 591 776 446 c 0,3,4
 776 362 776 362 816.5 318 c 128,-1,5
 857 274 857 274 934 274 c 0,6,7
 1040 274 1040 274 1114 374.5 c 128,-1,8
 1188 475 1188 475 1188 621 c 0,9,10
 1188 707 1188 707 1148 754 c 128,-1,11
 1108 801 1108 801 1034 801 c 0,0,1
1147 246 m 1,12,13
 1102 171 1102 171 1027 129.5 c 128,-1,14
 952 88 952 88 862 88 c 0,15,16
 719 88 719 88 637 182.5 c 128,-1,17
 555 277 555 277 555 444 c 0,18,19
 555 665 555 665 697 826 c 128,-1,20
 839 987 839 987 1036 987 c 0,21,22
 1119 987 1119 987 1181.5 945 c 128,-1,23
 1244 903 1244 903 1264 834 c 1,24,-1
 1288 967 l 1,25,-1
 1491 967 l 1,26,-1
 1358 274 l 1,27,28
 1509 296 1509 296 1610.5 437.5 c 128,-1,29
 1712 579 1712 579 1712 770 c 0,30,31
 1712 983 1712 983 1547.5 1118 c 128,-1,32
 1383 1253 1383 1253 1120 1253 c 0,33,34
 924 1253 924 1253 755.5 1177 c 128,-1,35
 587 1101 587 1101 469 958 c 0,36,37
 377 848 377 848 329 716 c 128,-1,38
 281 584 281 584 281 442 c 0,39,40
 281 173 281 173 446.5 2.5 c 128,-1,41
 612 -168 612 -168 872 -168 c 0,42,43
 990 -168 990 -168 1105.5 -124.5 c 128,-1,44
 1221 -81 1221 -81 1325 2 c 1,45,-1
 1434 -156 l 1,46,47
 1288 -254 1288 -254 1145 -303 c 128,-1,48
 1002 -352 1002 -352 860 -352 c 0,49,50
 725 -352 725 -352 600 -311 c 128,-1,51
 475 -270 475 -270 377 -193 c 0,52,53
 237 -85 237 -85 164.5 74 c 128,-1,54
 92 233 92 233 92 434 c 0,55,56
 92 610 92 610 152 774 c 128,-1,57
 212 938 212 938 326 1075 c 0,58,59
 472 1251 472 1251 677.5 1345.5 c 128,-1,60
 883 1440 883 1440 1120 1440 c 0,61,62
 1286 1440 1286 1440 1427 1393.5 c 128,-1,63
 1568 1347 1568 1347 1679 1255 c 1,64,65
 1784 1166 1784 1166 1841 1046.5 c 128,-1,66
 1898 927 1898 927 1898 797 c 0,67,68
 1898 482 1898 482 1693.5 285 c 128,-1,69
 1489 88 1489 88 1157 88 c 0,70,71
 1152 88 1152 88 1143 87 c 128,-1,72
 1134 86 1134 86 1130 86 c 0,73,74
 1125 86 1125 86 1121.5 86.5 c 128,-1,75
 1118 87 1118 87 1116 88 c 1,76,-1
 1147 246 l 1,12,13
EndSplineSet
EndChar
StartChar: A
Encoding: 65 65 65
Width: 1585
Flags: W
AnchorPoint: "below" 644.896 0 basechar 0
AnchorPoint: "above" 937 1520 basechar 0
Fore
1006 272 m 1,0,-1
 410 272 l 1,1,-1
 262 0 l 1,2,-1
 -133 0 l 1,3,-1
 711 1493 l 1,4,-1
 1151 1493 l 1,5,-1
 1415 0 l 1,6,-1
 1049 0 l 1,7,-1
 1006 272 l 1,0,-1
555 543 m 1,8,-1
 956 543 l 1,9,-1
 866 1118 l 1,10,-1
 555 543 l 1,8,-1
EndSplineSet
KernsSLIFO: 7923 -149 2 0 563 -149 2 0 375 -149 2 0 7813 -92 2 0 7811 -92 2 0 7809 -92 2 0 373 -92 2 0 539 -112 2 0 355 -112 2 0 267 -63 2 0 265 -63 2 0 562 -235 2 0 7922 -235 2 0 374 -235 2 0 7812 -112 2 0 7810 -112 2 0 7808 -112 2 0 372 -112 2 0 370 -92 2 0 368 -92 2 0 364 -92 2 0 362 -92 2 0 360 -92 2 0 538 -196 2 0 354 -196 2 0 558 -63 2 0 492 -63 2 0 490 -63 2 0 336 -63 2 0 334 -63 2 0 332 -63 2 0 266 -63 2 0 264 -63 2 0 366 -92 2 0 357 -112 2 0 356 -196 2 0 271 -63 2 0 273 -63 2 0 269 -63 2 0 268 -63 2 0 263 -63 2 0 262 -63 2 0 253 -149 2 0 221 -235 2 0 217 -92 2 0 219 -92 2 0 218 -92 2 0 210 -63 2 0 212 -63 2 0 211 -63 2 0 8222 104 2 0 8218 104 2 0 376 -235 2 0 255 -149 2 0 8217 -253 2 0 8221 -253 2 0 338 -63 2 0 213 -63 2 0 216 -63 2 0 231 -63 2 0 220 -92 2 0 214 -63 2 0 199 -63 2 0 121 -149 2 0 119 -92 2 0 118 -112 2 0 116 -112 2 0 100 -63 2 0 99 -63 2 0 89 -235 2 0 87 -112 2 0 86 -139 2 0 85 -92 2 0 84 -196 2 0 79 -63 2 0 67 -63 2 0 59 38 2 0 58 38 2 0 46 38 2 0 44 38 2 0
EndChar
StartChar: B
Encoding: 66 66 66
Width: 1561
Flags: W
AnchorPoint: "below" 654.896 0 basechar 0
AnchorPoint: "above" 950.354 1520 basechar 0
Fore
819 915 m 2,0,1
 922 915 922 915 980 967 c 128,-1,2
 1038 1019 1038 1019 1038 1110 c 0,3,4
 1038 1169 1038 1169 997.5 1200 c 128,-1,5
 957 1231 957 1231 881 1231 c 2,6,-1
 666 1231 l 1,7,-1
 604 915 l 1,8,-1
 819 915 l 2,0,1
705 262 m 2,9,10
 837 262 837 262 908 325 c 128,-1,11
 979 388 979 388 979 506 c 0,12,13
 979 581 979 581 930 617 c 128,-1,14
 881 653 881 653 780 653 c 2,15,-1
 553 653 l 1,16,-1
 477 262 l 1,17,-1
 705 262 l 2,9,10
1161 799 m 1,18,19
 1259 771 1259 771 1312.5 696.5 c 128,-1,20
 1366 622 1366 622 1366 512 c 0,21,22
 1366 271 1366 271 1186.5 135.5 c 128,-1,23
 1007 0 1007 0 682 0 c 2,24,-1
 43 0 l 1,25,-1
 334 1493 l 1,26,-1
 911 1493 l 2,27,28
 1177 1493 1177 1493 1304.5 1415 c 128,-1,29
 1432 1337 1432 1337 1432 1174 c 0,30,31
 1432 1037 1432 1037 1357 933.5 c 128,-1,32
 1282 830 1282 830 1161 799 c 1,18,19
EndSplineSet
KernsSLIFO: 7922 -112 2 0 562 -112 2 0 374 -112 2 0 7812 -112 2 0 7810 -112 2 0 7808 -112 2 0 372 -112 2 0 221 -112 2 0 376 -112 2 0 89 -112 2 0 87 -112 2 0 86 -83 2 0
EndChar
StartChar: C
Encoding: 67 67 67
Width: 1503
Flags: W
AnchorPoint: "below" 764.09 0 basechar 0
AnchorPoint: "above" 1076 1520 basechar 0
Fore
1241 70 m 1,0,1
 1103 21 1103 21 976 -4 c 128,-1,2
 849 -29 849 -29 735 -29 c 0,3,4
 434 -29 434 -29 254 136 c 128,-1,5
 74 301 74 301 74 573 c 0,6,7
 74 752 74 752 131 910.5 c 128,-1,8
 188 1069 188 1069 299 1200 c 0,9,10
 430 1354 430 1354 614.5 1437 c 128,-1,11
 799 1520 799 1520 1012 1520 c 0,12,13
 1128 1520 1128 1520 1245 1492.5 c 128,-1,14
 1362 1465 1362 1465 1483 1409 c 1,15,-1
 1421 1100 l 1,16,17
 1325 1173 1325 1173 1228 1207 c 128,-1,18
 1131 1241 1131 1241 1020 1241 c 0,19,20
 789 1241 789 1241 633 1063 c 128,-1,21
 477 885 477 885 477 618 c 0,22,23
 477 446 477 446 573 348 c 128,-1,24
 669 250 669 250 838 250 c 0,25,26
 939 250 939 250 1052.5 286.5 c 128,-1,27
 1166 323 1166 323 1307 401 c 1,28,-1
 1241 70 l 1,0,1
EndSplineSet
KernsSLIFO: 536 -73 2 0 348 -73 2 0 346 -73 2 0 350 -73 2 0 352 -73 2 0 83 -73 2 0
EndChar
StartChar: D
Encoding: 68 68 68
Width: 1700
Flags: W
AnchorPoint: "below" 631.896 0 basechar 0
AnchorPoint: "above" 980 1520 basechar 0
Fore
664 1202 m 1,0,-1
 485 291 l 1,1,-1
 623 291 l 2,2,3
 892 291 892 291 1049 442 c 128,-1,4
 1206 593 1206 593 1206 850 c 0,5,6
 1206 1024 1206 1024 1103.5 1113 c 128,-1,7
 1001 1202 1001 1202 799 1202 c 2,8,-1
 664 1202 l 1,0,-1
334 1493 m 1,9,-1
 739 1493 l 2,10,11
 1029 1493 1029 1493 1174 1458.5 c 128,-1,12
 1319 1424 1319 1424 1415 1343 c 0,13,14
 1512 1262 1512 1262 1561 1146.5 c 128,-1,15
 1610 1031 1610 1031 1610 885 c 0,16,17
 1610 682 1610 682 1526.5 502.5 c 128,-1,18
 1443 323 1443 323 1292 201 c 1,19,20
 1160 92 1160 92 985.5 46 c 128,-1,21
 811 0 811 0 449 0 c 2,22,-1
 43 0 l 1,23,-1
 334 1493 l 1,9,-1
EndSplineSet
KernsSLIFO: 7922 -159 2 0 562 -159 2 0 374 -159 2 0 221 -159 2 0 8222 -36 2 0 8218 -36 2 0 376 -159 2 0 89 -159 2 0 45 38 2 0
EndChar
StartChar: E
Encoding: 69 69 69
Width: 1399
Flags: W
AnchorPoint: "below" 544.896 0 basechar 0
AnchorPoint: "above" 896 1520 basechar 0
Fore
334 1493 m 1,0,-1
 1372 1493 l 1,1,-1
 1315 1202 l 1,2,-1
 662 1202 l 1,3,-1
 608 924 l 1,4,-1
 1223 924 l 1,5,-1
 1165 633 l 1,6,-1
 551 633 l 1,7,-1
 485 291 l 1,8,-1
 1159 291 l 1,9,-1
 1104 0 l 1,10,-1
 43 0 l 1,11,-1
 334 1493 l 1,0,-1
EndSplineSet
EndChar
StartChar: F
Encoding: 70 70 70
Width: 1399
Flags: W
AnchorPoint: "below" 234.896 0 basechar 0
AnchorPoint: "above" 840.354 1520 basechar 0
Fore
334 1493 m 1,0,-1
 1372 1493 l 1,1,-1
 1315 1202 l 1,2,-1
 662 1202 l 1,3,-1
 608 924 l 1,4,-1
 1223 924 l 1,5,-1
 1165 633 l 1,6,-1
 551 633 l 1,7,-1
 428 0 l 1,8,-1
 43 0 l 1,9,-1
 334 1493 l 1,0,-1
EndSplineSet
KernsSLIFO: 483 -235 2 0 7923 -188 2 0 563 -188 2 0 375 -188 2 0 371 -196 2 0 369 -196 2 0 365 -196 2 0 363 -196 2 0 361 -196 2 0 343 -225 2 0 559 -159 2 0 493 -159 2 0 491 -159 2 0 337 -159 2 0 335 -159 2 0 333 -159 2 0 281 -159 2 0 279 -159 2 0 277 -159 2 0 275 -159 2 0 261 -235 2 0 259 -235 2 0 257 -235 2 0 260 -264 2 0 258 -264 2 0 256 -264 2 0 252 -196 2 0 229 -235 2 0 230 -235 2 0 59 -112 2 0 242 -159 2 0 45 -102 2 0 8222 -452 2 0 367 -196 2 0 245 -159 2 0 235 -159 2 0 249 -196 2 0 44 -444 2 0 224 -235 2 0 195 -264 2 0 234 -159 2 0 341 -225 2 0 232 -159 2 0 196 -264 2 0 193 -264 2 0 8217 -36 2 0 251 -196 2 0 253 -188 2 0 8218 -452 2 0 227 -235 2 0 194 -264 2 0 248 -159 2 0 244 -159 2 0 65 -264 2 0 97 -235 2 0 228 -235 2 0 246 -159 2 0 250 -196 2 0 225 -235 2 0 345 -225 2 0 46 -452 2 0 226 -235 2 0 233 -159 2 0 283 -159 2 0 101 -159 2 0 339 -159 2 0 255 -188 2 0 111 -159 2 0 114 -225 2 0 117 -196 2 0 192 -264 2 0 121 -188 2 0 58 -112 2 0 243 -159 2 0
EndChar
StartChar: G
Encoding: 71 71 71
Width: 1681
Flags: W
AnchorPoint: "above" 1080.55 1520 basechar 0
AnchorPoint: "below" 785.09 0 basechar 0
Fore
1395 111 m 1,0,1
 1249 40 1249 40 1092 5.5 c 128,-1,2
 935 -29 935 -29 756 -29 c 0,3,4
 438 -29 438 -29 256 132.5 c 128,-1,5
 74 294 74 294 74 573 c 0,6,7
 74 754 74 754 131 912.5 c 128,-1,8
 188 1071 188 1071 301 1202 c 0,9,10
 439 1362 439 1362 626.5 1441 c 128,-1,11
 814 1520 814 1520 1055 1520 c 0,12,13
 1189 1520 1189 1520 1325 1492 c 128,-1,14
 1461 1464 1461 1464 1593 1409 c 1,15,-1
 1534 1100 l 1,16,17
 1412 1171 1412 1171 1295.5 1206 c 128,-1,18
 1179 1241 1179 1241 1061 1241 c 0,19,20
 803 1241 803 1241 641 1069 c 128,-1,21
 479 897 479 897 479 627 c 0,22,23
 479 448 479 448 573.5 349 c 128,-1,24
 668 250 668 250 840 250 c 0,25,26
 896 250 896 250 952 257.5 c 128,-1,27
 1008 265 1008 265 1065 281 c 1,28,-1
 1122 571 l 1,29,-1
 887 571 l 1,30,-1
 936 829 l 1,31,-1
 1534 829 l 1,32,-1
 1395 111 l 1,0,1
EndSplineSet
KernsSLIFO: 356 -36 2 0 221 -83 2 0 376 -83 2 0 89 -83 2 0 84 -36 2 0
EndChar
StartChar: H
Encoding: 72 72 72
Width: 1714
Flags: W
AnchorPoint: "above" 1005.35 1520 basechar 0
AnchorPoint: "below" 709.896 0 basechar 0
Fore
334 1493 m 1,0,-1
 719 1493 l 1,1,-1
 608 924 l 1,2,-1
 1176 924 l 1,3,-1
 1286 1493 l 1,4,-1
 1671 1493 l 1,5,-1
 1380 0 l 1,6,-1
 995 0 l 1,7,-1
 1118 633 l 1,8,-1
 551 633 l 1,9,-1
 428 0 l 1,10,-1
 43 0 l 1,11,-1
 334 1493 l 1,0,-1
EndSplineSet
EndChar
StartChar: I
Encoding: 73 73 73
Width: 762
Flags: W
AnchorPoint: "below" 234.062 6 basechar 0
AnchorPoint: "above" 539 1520 basechar 0
Fore
334 1493 m 1,0,-1
 719 1493 l 1,1,-1
 428 0 l 1,2,-1
 43 0 l 1,3,-1
 334 1493 l 1,0,-1
EndSplineSet
EndChar
StartChar: J
Encoding: 74 74 74
Width: 762
Flags: W
AnchorPoint: "below" 189.159 -430 basechar 0
AnchorPoint: "above" 566 1520 basechar 0
Fore
334 1493 m 1,0,-1
 719 1493 l 1,1,-1
 457 145 l 1,2,3
 399 -147 399 -147 229.5 -278.5 c 128,-1,4
 60 -410 60 -410 -262 -410 c 2,5,-1
 -340 -410 l 1,6,-1
 -283 -119 l 1,7,-1
 -223 -119 l 2,8,9
 -104 -119 -104 -119 -28.5 -51.5 c 128,-1,10
 47 16 47 16 72 145 c 2,11,-1
 334 1493 l 1,0,-1
EndSplineSet
AlternateSubs: 0 2 'aalt' J.alt
Substitution: 0 2 'salt' J.alt
EndChar
StartChar: K
Encoding: 75 75 75
Width: 1587
Flags: W
AnchorPoint: "above" 1031.35 1520 basechar 0
AnchorPoint: "below" 735.896 0 basechar 0
Fore
334 1493 m 1,0,-1
 719 1493 l 1,1,-1
 614 956 l 1,2,-1
 1249 1493 l 1,3,-1
 1714 1493 l 1,4,-1
 858 768 l 1,5,-1
 1503 0 l 1,6,-1
 1051 0 l 1,7,-1
 549 623 l 1,8,-1
 428 0 l 1,9,-1
 43 0 l 1,10,-1
 334 1493 l 1,0,-1
EndSplineSet
KernsSLIFO: 367 -112 2 0 366 -73 2 0 283 -112 2 0 268 -131 2 0 262 -131 2 0 253 -206 2 0 217 -73 2 0 219 -73 2 0 218 -73 2 0 210 -131 2 0 212 -131 2 0 211 -131 2 0 8222 38 2 0 8218 38 2 0 255 -206 2 0 339 -112 2 0 338 -178 2 0 213 -131 2 0 248 -112 2 0 216 -55 2 0 252 -112 2 0 251 -112 2 0 249 -112 2 0 250 -112 2 0 245 -112 2 0 246 -112 2 0 244 -112 2 0 242 -112 2 0 243 -112 2 0 235 -112 2 0 234 -112 2 0 232 -112 2 0 233 -112 2 0 220 -73 2 0 214 -131 2 0 199 -131 2 0 121 -206 2 0 117 -112 2 0 111 -112 2 0 101 -112 2 0 87 -55 2 0 85 -73 2 0 79 -131 2 0 67 -131 2 0 45 -253 2 0
EndChar
StartChar: L
Encoding: 76 76 76
Width: 1305
Flags: W
AnchorPoint: "above" 530.354 1520 basechar 0
AnchorPoint: "below" 572.896 0 basechar 0
Fore
334 1493 m 1,0,-1
 719 1493 l 1,1,-1
 485 291 l 1,2,-1
 1159 291 l 1,3,-1
 1104 0 l 1,4,-1
 43 0 l 1,5,-1
 334 1493 l 1,0,-1
EndSplineSet
KernsSLIFO: 366 -112 2 0 356 -339 2 0 253 -253 2 0 221 -319 2 0 217 -112 2 0 219 -112 2 0 218 -112 2 0 210 -73 2 0 212 -73 2 0 211 -73 2 0 376 -319 2 0 255 -253 2 0 8217 -509 2 0 8221 -528 2 0 338 -73 2 0 213 -73 2 0 216 -73 2 0 220 -112 2 0 214 -73 2 0 121 -253 2 0 89 -319 2 0 87 -178 2 0 86 -282 2 0 85 -112 2 0 84 -339 2 0 79 -73 2 0
EndChar
StartChar: M
Encoding: 77 77 77
Width: 2038
Flags: W
AnchorPoint: "above" 1168.35 1520 basechar 0
AnchorPoint: "below" 872.896 0 basechar 0
Fore
334 1493 m 1,0,-1
 807 1493 l 1,1,-1
 999 700 l 1,2,-1
 1503 1493 l 1,3,-1
 1995 1493 l 1,4,-1
 1704 0 l 1,5,-1
 1339 0 l 1,6,-1
 1552 1102 l 1,7,-1
 1034 287 l 1,8,-1
 827 287 l 1,9,-1
 621 1102 l 1,10,-1
 408 0 l 1,11,-1
 43 0 l 1,12,-1
 334 1493 l 1,0,-1
EndSplineSet
EndChar
StartChar: N
Encoding: 78 78 78
Width: 1714
Flags: W
AnchorPoint: "below" 733.896 0 basechar 0
AnchorPoint: "above" 1076 1520 basechar 0
Fore
334 1493 m 1,0,-1
 764 1493 l 1,1,-1
 1106 459 l 1,2,-1
 1307 1493 l 1,3,-1
 1671 1493 l 1,4,-1
 1380 0 l 1,5,-1
 950 0 l 1,6,-1
 608 1034 l 1,7,-1
 408 0 l 1,8,-1
 43 0 l 1,9,-1
 334 1493 l 1,0,-1
EndSplineSet
EndChar
StartChar: O
Encoding: 79 79 79
Width: 1741
Flags: W
AnchorPoint: "above" 1020.55 1520 basechar 0
AnchorPoint: "below" 725.09 0 basechar 0
Fore
1260 881 m 0,0,1
 1260 1057 1260 1057 1180.5 1149 c 128,-1,2
 1101 1241 1101 1241 950 1241 c 0,3,4
 750 1241 750 1241 614.5 1061.5 c 128,-1,5
 479 882 479 882 479 612 c 0,6,7
 479 440 479 440 558 345 c 128,-1,8
 637 250 637 250 778 250 c 0,9,10
 893 250 893 250 982.5 298.5 c 128,-1,11
 1072 347 1072 347 1135 442 c 0,12,13
 1195 533 1195 533 1227.5 647 c 128,-1,14
 1260 761 1260 761 1260 881 c 0,0,1
1006 1520 m 0,15,16
 1304 1520 1304 1520 1485.5 1354.5 c 128,-1,17
 1667 1189 1667 1189 1667 922 c 0,18,19
 1667 740 1667 740 1611.5 578 c 128,-1,20
 1556 416 1556 416 1450 287 c 0,21,22
 1320 128 1320 128 1142.5 49.5 c 128,-1,23
 965 -29 965 -29 733 -29 c 0,24,25
 436 -29 436 -29 255 136 c 128,-1,26
 74 301 74 301 74 569 c 0,27,28
 74 752 74 752 129 914 c 128,-1,29
 184 1076 184 1076 291 1206 c 0,30,31
 419 1364 419 1364 596.5 1442 c 128,-1,32
 774 1520 774 1520 1006 1520 c 0,15,16
EndSplineSet
KernsSLIFO: 221 -149 2 0 376 -149 2 0 89 -149 2 0 88 -73 2 0 86 -73 2 0 46 -45 2 0 45 38 2 0 44 -45 2 0
EndChar
StartChar: P
Encoding: 80 80 80
Width: 1501
Flags: W
AnchorPoint: "below" 234.896 0 basechar 0
AnchorPoint: "above" 952.354 1520 basechar 0
Fore
334 1493 m 1,0,-1
 973 1493 l 2,1,2
 1208 1493 1208 1493 1340.5 1385.5 c 128,-1,3
 1473 1278 1473 1278 1473 1087 c 0,4,5
 1473 970 1473 970 1429 864.5 c 128,-1,6
 1385 759 1385 759 1303 680 c 0,7,8
 1214 595 1214 595 1091 556.5 c 128,-1,9
 968 518 968 518 782 518 c 2,10,-1
 528 518 l 1,11,-1
 428 0 l 1,12,-1
 43 0 l 1,13,-1
 334 1493 l 1,0,-1
666 1214 m 1,14,-1
 584 797 l 1,15,-1
 797 797 l 2,16,17
 933 797 933 797 1005 861 c 128,-1,18
 1077 925 1077 925 1077 1047 c 0,19,20
 1077 1128 1077 1128 1025.5 1171 c 128,-1,21
 974 1214 974 1214 877 1214 c 2,22,-1
 666 1214 l 1,14,-1
EndSplineSet
KernsSLIFO: 252 -73 2 0 229 -131 2 0 230 -131 2 0 45 -36 2 0 8222 -415 2 0 367 -73 2 0 235 -55 2 0 249 -73 2 0 44 -528 2 0 224 -131 2 0 195 -188 2 0 234 -55 2 0 341 -63 2 0 8221 38 2 0 232 -55 2 0 196 -188 2 0 193 -188 2 0 8217 57 2 0 251 -73 2 0 8218 -415 2 0 227 -131 2 0 194 -188 2 0 117 -73 2 0 353 -73 2 0 65 -188 2 0 97 -131 2 0 228 -131 2 0 250 -73 2 0 351 -73 2 0 225 -131 2 0 345 -63 2 0 226 -131 2 0 233 -55 2 0 283 -55 2 0 101 -55 2 0 115 -73 2 0 114 -63 2 0 46 -528 2 0 192 -188 2 0
EndChar
StartChar: Q
Encoding: 81 81 81
Width: 1741
Flags: W
AnchorPoint: "below" 751.331 0 basechar 0
AnchorPoint: "above" 1046.79 1520 basechar 0
Fore
760 -27 m 1,0,1
 749 -28 749 -28 738 -28.5 c 128,-1,2
 727 -29 727 -29 702 -29 c 0,3,4
 589 -29 589 -29 489 2 c 128,-1,5
 389 33 389 33 307 94 c 0,6,7
 197 175 197 175 135.5 300.5 c 128,-1,8
 74 426 74 426 74 569 c 0,9,10
 74 752 74 752 129.5 914.5 c 128,-1,11
 185 1077 185 1077 291 1206 c 0,12,13
 420 1365 420 1365 596.5 1442.5 c 128,-1,14
 773 1520 773 1520 1006 1520 c 0,15,16
 1304 1520 1304 1520 1485.5 1354.5 c 128,-1,17
 1667 1189 1667 1189 1667 922 c 0,18,19
 1667 608 1667 608 1514.5 371.5 c 128,-1,20
 1362 135 1362 135 1090 27 c 1,21,-1
 1319 -299 l 1,22,-1
 952 -299 l 1,23,-1
 760 -27 l 1,0,1
1260 881 m 0,24,25
 1260 1057 1260 1057 1180.5 1149 c 128,-1,26
 1101 1241 1101 1241 950 1241 c 0,27,28
 750 1241 750 1241 614.5 1061.5 c 128,-1,29
 479 882 479 882 479 612 c 0,30,31
 479 440 479 440 558 345 c 128,-1,32
 637 250 637 250 778 250 c 0,33,34
 893 250 893 250 982.5 298.5 c 128,-1,35
 1072 347 1072 347 1135 442 c 0,36,37
 1195 533 1195 533 1227.5 647 c 128,-1,38
 1260 761 1260 761 1260 881 c 0,24,25
EndSplineSet
KernsSLIFO: 45 38 2 0
EndChar
StartChar: R
Encoding: 82 82 82
Width: 1577
Flags: W
AnchorPoint: "below" 565.896 0 basechar 0
AnchorPoint: "above" 890 1520 basechar 0
Fore
752 831 m 2,0,1
 883 831 883 831 950.5 892 c 128,-1,2
 1018 953 1018 953 1018 1071 c 0,3,4
 1018 1145 1018 1145 971.5 1179.5 c 128,-1,5
 925 1214 925 1214 825 1214 c 2,6,-1
 666 1214 l 1,7,-1
 590 831 l 1,8,-1
 752 831 l 2,0,1
539 565 m 1,9,-1
 428 0 l 1,10,-1
 43 0 l 1,11,-1
 334 1493 l 1,12,-1
 903 1493 l 2,13,14
 1149 1493 1149 1493 1276 1401 c 128,-1,15
 1403 1309 1403 1309 1403 1130 c 0,16,17
 1403 949 1403 949 1303 832 c 128,-1,18
 1203 715 1203 715 1032 698 c 1,19,20
 1110 682 1110 682 1162 618.5 c 128,-1,21
 1214 555 1214 555 1253 424 c 2,22,-1
 1380 0 l 1,23,-1
 997 0 l 1,24,-1
 885 371 l 1,25,26
 851 482 851 482 802.5 523.5 c 128,-1,27
 754 565 754 565 662 565 c 2,28,-1
 539 565 l 1,9,-1
EndSplineSet
KernsSLIFO: 367 -112 2 0 356 -92 2 0 283 -102 2 0 253 -131 2 0 221 -188 2 0 376 -188 2 0 255 -131 2 0 339 -102 2 0 248 -102 2 0 252 -112 2 0 251 -112 2 0 249 -112 2 0 250 -112 2 0 245 -102 2 0 246 -102 2 0 244 -102 2 0 242 -102 2 0 243 -102 2 0 235 -102 2 0 234 -102 2 0 232 -102 2 0 233 -102 2 0 121 -131 2 0 117 -112 2 0 111 -102 2 0 101 -102 2 0 89 -188 2 0 84 -92 2 0 46 38 2 0 44 38 2 0
EndChar
StartChar: S
Encoding: 83 83 83
Width: 1475
Flags: W
AnchorPoint: "above" 853.548 1520 basechar 0
AnchorPoint: "below" 558.09 0 basechar 0
Fore
1362 1446 m 1,0,-1
 1300 1130 l 1,1,2
 1187 1186 1187 1186 1077 1213.5 c 128,-1,3
 967 1241 967 1241 862 1241 c 0,4,5
 718 1241 718 1241 637.5 1196 c 128,-1,6
 557 1151 557 1151 557 1071 c 0,7,8
 557 1020 557 1020 592.5 991.5 c 128,-1,9
 628 963 628 963 739 936 c 2,10,-1
 897 897 l 2,11,12
 1095 847 1095 847 1187.5 752.5 c 128,-1,13
 1280 658 1280 658 1280 508 c 0,14,15
 1280 265 1280 265 1095.5 118 c 128,-1,16
 911 -29 911 -29 600 -29 c 0,17,18
 455 -29 455 -29 311.5 -2 c 128,-1,19
 168 25 168 25 31 78 c 1,20,-1
 92 403 l 1,21,22
 225 326 225 326 350.5 288 c 128,-1,23
 476 250 476 250 598 250 c 0,24,25
 730 250 730 250 812.5 304 c 128,-1,26
 895 358 895 358 895 442 c 0,27,28
 895 497 895 497 858 527.5 c 128,-1,29
 821 558 821 558 696 590 c 2,30,-1
 539 629 l 2,31,32
 365 672 365 672 280 765 c 128,-1,33
 195 858 195 858 195 1006 c 0,34,35
 195 1239 195 1239 373.5 1379.5 c 128,-1,36
 552 1520 552 1520 854 1520 c 0,37,38
 975 1520 975 1520 1102.5 1501.5 c 128,-1,39
 1230 1483 1230 1483 1362 1446 c 1,0,-1
EndSplineSet
KernsSLIFO: 350 -73 2 0 352 -73 2 0 83 -73 2 0
EndChar
StartChar: T
Encoding: 84 84 84
Width: 1397
Flags: W
AnchorPoint: "above" 848.354 1520 basechar 0
AnchorPoint: "below" 552.896 0 basechar 0
Fore
156 1493 m 1,0,-1
 1532 1493 l 1,1,-1
 1475 1202 l 1,2,-1
 979 1202 l 1,3,-1
 745 0 l 1,4,-1
 360 0 l 1,5,-1
 594 1202 l 1,6,-1
 98 1202 l 1,7,-1
 156 1493 l 1,0,-1
EndSplineSet
KernsSLIFO: 252 -264 2 0 229 -243 2 0 230 -243 2 0 59 -112 2 0 242 -264 2 0 45 -301 2 0 8222 -301 2 0 367 -264 2 0 245 -264 2 0 235 -264 2 0 249 -264 2 0 58 -112 2 0 224 -243 2 0 195 -159 2 0 234 -264 2 0 231 -264 2 0 341 -225 2 0 232 -264 2 0 196 -159 2 0 193 -159 2 0 269 -264 2 0 345 -225 2 0 251 -264 2 0 253 -339 2 0 8218 -301 2 0 227 -243 2 0 194 -159 2 0 248 -264 2 0 244 -264 2 0 353 -243 2 0 65 -159 2 0 283 -264 2 0 351 -243 2 0 228 -243 2 0 119 -282 2 0 246 -264 2 0 250 -264 2 0 263 -264 2 0 225 -243 2 0 46 -348 2 0 84 47 2 0 226 -243 2 0 233 -264 2 0 356 47 2 0 97 -243 2 0 99 -264 2 0 101 -264 2 0 339 -264 2 0 255 -339 2 0 111 -264 2 0 115 -243 2 0 114 -225 2 0 117 -264 2 0 192 -159 2 0 121 -339 2 0 44 -329 2 0 243 -264 2 0
EndChar
StartChar: U
Encoding: 85 85 85
Width: 1663
Flags: W
AnchorPoint: "below" 687.714 0 basechar 0
AnchorPoint: "above" 978 1520 basechar 0
Fore
334 1493 m 1,0,-1
 719 1493 l 1,1,-1
 545 599 l 1,2,3
 535 551 535 551 530.5 514 c 128,-1,4
 526 477 526 477 526 449 c 0,5,6
 526 351 526 351 578.5 302.5 c 128,-1,7
 631 254 631 254 735 254 c 0,8,9
 875 254 875 254 950 332.5 c 128,-1,10
 1025 411 1025 411 1061 598 c 1,11,-1
 1235 1493 l 1,12,-1
 1620 1493 l 1,13,-1
 1446 598 l 1,14,15
 1381 268 1381 268 1199.5 119.5 c 128,-1,16
 1018 -29 1018 -29 680 -29 c 0,17,18
 415 -29 415 -29 277 84.5 c 128,-1,19
 139 198 139 198 139 414 c 0,20,21
 139 450 139 450 144 494.5 c 128,-1,22
 149 539 149 539 160 598 c 1,23,-1
 334 1493 l 1,0,-1
EndSplineSet
KernsSLIFO: 193 -92 2 0 194 -92 2 0 195 -92 2 0 192 -92 2 0 196 -92 2 0 65 -92 2 0
EndChar
StartChar: V
Encoding: 86 86 86
Width: 1585
Flags: W
AnchorPoint: "below" 647.896 0 basechar 0
AnchorPoint: "above" 943.354 1520 basechar 0
Fore
156 1493 m 1,0,-1
 522 1493 l 1,1,-1
 705 377 l 1,2,-1
 1323 1493 l 1,3,-1
 1720 1493 l 1,4,-1
 877 0 l 1,5,-1
 418 0 l 1,6,-1
 156 1493 l 1,0,-1
EndSplineSet
KernsSLIFO: 367 -149 2 0 283 -149 2 0 210 -36 2 0 212 -36 2 0 211 -36 2 0 193 -139 2 0 194 -139 2 0 8222 -272 2 0 8218 -272 2 0 339 -149 2 0 338 -45 2 0 213 -36 2 0 195 -139 2 0 192 -139 2 0 248 -149 2 0 230 -159 2 0 216 -36 2 0 252 -149 2 0 251 -149 2 0 249 -149 2 0 250 -149 2 0 245 -149 2 0 246 -149 2 0 244 -149 2 0 242 -149 2 0 243 -149 2 0 235 -149 2 0 234 -149 2 0 232 -149 2 0 233 -149 2 0 229 -159 2 0 227 -159 2 0 228 -159 2 0 226 -159 2 0 224 -159 2 0 225 -159 2 0 214 -36 2 0 196 -139 2 0 117 -149 2 0 111 -149 2 0 105 -36 2 0 101 -149 2 0 97 -159 2 0 79 -36 2 0 65 -139 2 0 59 -92 2 0 58 -92 2 0 46 -319 2 0 45 -149 2 0 44 -319 2 0
EndChar
StartChar: W
Encoding: 87 87 87
Width: 2259
Flags: W
AnchorPoint: "above" 1277.71 1527 basechar 0
AnchorPoint: "below" 980.896 0 basechar 0
Fore
219 1493 m 1,0,-1
 575 1493 l 1,1,-1
 621 408 l 1,2,-1
 1090 1493 l 1,3,-1
 1456 1493 l 1,4,-1
 1505 408 l 1,5,-1
 1958 1493 l 1,6,-1
 2341 1493 l 1,7,-1
 1698 0 l 1,8,-1
 1262 0 l 1,9,-1
 1212 1135 l 1,10,-1
 729 0 l 1,11,-1
 283 0 l 1,12,-1
 219 1493 l 1,0,-1
EndSplineSet
KernsSLIFO: 229 -139 2 0 230 -139 2 0 59 -63 2 0 242 -112 2 0 45 -92 2 0 46 -178 2 0 245 -112 2 0 235 -131 2 0 44 -178 2 0 224 -139 2 0 195 -73 2 0 234 -131 2 0 341 -120 2 0 232 -131 2 0 196 -73 2 0 193 -73 2 0 227 -139 2 0 194 -73 2 0 248 -112 2 0 244 -112 2 0 65 -73 2 0 97 -139 2 0 228 -139 2 0 246 -112 2 0 225 -139 2 0 345 -120 2 0 226 -139 2 0 233 -131 2 0 283 -131 2 0 101 -131 2 0 339 -112 2 0 111 -112 2 0 114 -120 2 0 192 -73 2 0 58 -63 2 0 243 -112 2 0
EndChar
StartChar: X
Encoding: 88 88 88
Width: 1579
Flags: W
AnchorPoint: "below" 642.896 0 basechar 0
AnchorPoint: "above" 939.714 1527 basechar 0
Fore
1016 756 m 1,0,-1
 1382 0 l 1,1,-1
 991 0 l 1,2,-1
 748 500 l 1,3,-1
 311 0 l 1,4,-1
 -104 0 l 1,5,-1
 567 766 l 1,6,-1
 213 1493 l 1,7,-1
 606 1493 l 1,8,-1
 836 1024 l 1,9,-1
 1245 1493 l 1,10,-1
 1663 1493 l 1,11,-1
 1016 756 l 1,0,-1
EndSplineSet
KernsSLIFO: 283 -131 2 0 268 -73 2 0 262 -73 2 0 210 -73 2 0 212 -73 2 0 211 -73 2 0 338 -112 2 0 213 -73 2 0 216 -73 2 0 235 -131 2 0 234 -131 2 0 232 -131 2 0 233 -131 2 0 214 -73 2 0 199 -73 2 0 101 -131 2 0 79 -73 2 0 67 -73 2 0 45 -243 2 0
EndChar
StartChar: Y
Encoding: 89 89 89
Width: 1483
Flags: W
AnchorPoint: "above" 892.714 1527 basechar 0
AnchorPoint: "below" 595.896 0 basechar 0
Fore
129 1493 m 1,0,-1
 514 1493 l 1,1,-1
 768 940 l 1,2,-1
 1212 1493 l 1,3,-1
 1657 1493 l 1,4,-1
 920 623 l 1,5,-1
 799 0 l 1,6,-1
 414 0 l 1,7,-1
 535 623 l 1,8,-1
 129 1493 l 1,0,-1
EndSplineSet
KernsSLIFO: 367 -225 2 0 283 -264 2 0 268 -73 2 0 262 -73 2 0 210 -73 2 0 212 -73 2 0 211 -73 2 0 193 -196 2 0 194 -196 2 0 8222 -405 2 0 8218 -376 2 0 339 -264 2 0 338 -120 2 0 213 -73 2 0 195 -196 2 0 192 -196 2 0 248 -264 2 0 230 -243 2 0 216 -73 2 0 252 -225 2 0 251 -225 2 0 249 -225 2 0 250 -225 2 0 245 -264 2 0 246 -264 2 0 244 -264 2 0 242 -264 2 0 243 -264 2 0 235 -264 2 0 234 -264 2 0 232 -264 2 0 233 -264 2 0 229 -243 2 0 227 -243 2 0 228 -243 2 0 226 -243 2 0 224 -243 2 0 225 -243 2 0 214 -73 2 0 199 -73 2 0 196 -196 2 0 117 -225 2 0 111 -264 2 0 101 -264 2 0 97 -243 2 0 79 -73 2 0 67 -73 2 0 65 -196 2 0 59 -178 2 0 58 -178 2 0 46 -339 2 0 45 -301 2 0 44 -339 2 0
EndChar
StartChar: Z
Encoding: 90 90 90
Width: 1485
Flags: W
AnchorPoint: "above" 892.354 1520 basechar 0
AnchorPoint: "below" 594.562 -12 basechar 0
Fore
260 1493 m 1,0,-1
 1516 1493 l 1,1,-1
 1468 1255 l 1,2,-1
 500 291 l 1,3,-1
 1305 291 l 1,4,-1
 1247 0 l 1,5,-1
 -53 0 l 1,6,-1
 -8 238 l 1,7,-1
 963 1202 l 1,8,-1
 203 1202 l 1,9,-1
 260 1493 l 1,0,-1
EndSplineSet
KernsSLIFO: 45 -149 2 0
EndChar
StartChar: bracketleft
Encoding: 91 91 91
Width: 936
Flags: W
Fore
334 1556 m 1,0,-1
 954 1556 l 1,1,-1
 909 1331 l 1,2,-1
 631 1331 l 1,3,-1
 362 -45 l 1,4,-1
 643 -45 l 1,5,-1
 598 -270 l 1,6,-1
 -20 -270 l 1,7,-1
 334 1556 l 1,0,-1
EndSplineSet
EndChar
StartChar: backslash
Encoding: 92 92 92
Width: 748
Flags: W
Fore
344 -190 m 1,0,-1
 145 1493 l 1,1,-1
 367 1493 l 1,2,-1
 565 -190 l 1,3,-1
 344 -190 l 1,0,-1
EndSplineSet
EndChar
StartChar: bracketright
Encoding: 93 93 93
Width: 936
Flags: W
Fore
563 -270 m 1,0,-1
 -57 -270 l 1,1,-1
 -14 -45 l 1,2,-1
 266 -45 l 1,3,-1
 535 1331 l 1,4,-1
 254 1331 l 1,5,-1
 297 1556 l 1,6,-1
 918 1556 l 1,7,-1
 563 -270 l 1,0,-1
EndSplineSet
EndChar
StartChar: asciicircum
Encoding: 94 94 94
Width: 1716
Flags: W
Fore
981 1493 m 1,0,-1
 1509 936 l 1,1,-1
 1268 936 l 1,2,-1
 858 1237 l 1,3,-1
 449 936 l 1,4,-1
 207 936 l 1,5,-1
 735 1493 l 1,6,-1
 981 1493 l 1,0,-1
EndSplineSet
EndChar
StartChar: underscore
Encoding: 95 95 95
Width: 1024
Flags: W
Fore
1044 -293 m 1,0,-1
 1044 -483 l 1,1,-1
 -20 -483 l 1,2,-1
 -20 -293 l 1,3,-1
 1044 -293 l 1,0,-1
EndSplineSet
EndChar
StartChar: grave
Encoding: 96 96 96
Width: 1024
Flags: W
Fore
551 1638 m 1,0,-1
 760 1262 l 1,1,-1
 563 1262 l 1,2,-1
 268 1638 l 1,3,-1
 551 1638 l 1,0,-1
EndSplineSet
EndChar
StartChar: a
Encoding: 97 97 97
Width: 1382
Flags: W
AnchorPoint: "below" 589.342 0 basechar 0
AnchorPoint: "above" 784 1147 basechar 0
Fore
674 504 m 2,0,1
 540 504 540 504 471.5 462.5 c 128,-1,2
 403 421 403 421 403 340 c 0,3,4
 403 279 403 279 443.5 244 c 128,-1,5
 484 209 484 209 555 209 c 0,6,7
 665 209 665 209 739 275.5 c 128,-1,8
 813 342 813 342 838 463 c 1,9,-1
 846 504 l 1,10,-1
 674 504 l 2,0,1
1233 639 m 2,11,-1
 1108 0 l 1,12,-1
 750 0 l 1,13,-1
 780 166 l 1,14,15
 692 66 692 66 594 18.5 c 128,-1,16
 496 -29 496 -29 381 -29 c 0,17,18
 222 -29 222 -29 128.5 53.5 c 128,-1,19
 35 136 35 136 35 276 c 0,20,21
 35 490 35 490 200.5 603.5 c 128,-1,22
 366 717 366 717 678 717 c 2,23,-1
 889 717 l 1,24,-1
 893 745 l 1,25,26
 896 759 896 759 896.5 765 c 128,-1,27
 897 771 897 771 897 776 c 0,28,29
 897 842 897 842 834.5 875.5 c 128,-1,30
 772 909 772 909 649 909 c 0,31,32
 538 909 538 909 434 886 c 128,-1,33
 330 863 330 863 233 817 c 1,34,-1
 287 1090 l 1,35,36
 399 1118 399 1118 516.5 1132.5 c 128,-1,37
 634 1147 634 1147 760 1147 c 0,38,39
 1009 1147 1009 1147 1130 1061.5 c 128,-1,40
 1251 976 1251 976 1251 801 c 0,41,42
 1251 767 1251 767 1246.5 726.5 c 128,-1,43
 1242 686 1242 686 1233 639 c 2,11,-1
EndSplineSet
KernsSLIFO: 253 -63 2 0 255 -63 2 0 121 -63 2 0
Substitution: 0 2 'salt' uni0251
Substitution: 0 2 'aalt' uni0251
EndChar
StartChar: b
Encoding: 98 98 98
Width: 1466
Flags: W
AnchorPoint: "above" 503.049 1520 basechar 0
AnchorPoint: "below" 549.591 0 basechar 0
Fore
831 887 m 0,0,1
 693 887 693 887 605.5 759.5 c 128,-1,2
 518 632 518 632 518 428 c 0,3,4
 518 336 518 336 567.5 283.5 c 128,-1,5
 617 231 617 231 705 231 c 0,6,7
 840 231 840 231 928 356.5 c 128,-1,8
 1016 482 1016 482 1016 678 c 0,9,10
 1016 780 1016 780 968.5 833.5 c 128,-1,11
 921 887 921 887 831 887 c 0,0,1
455 162 m 1,12,-1
 422 0 l 1,13,-1
 63 0 l 1,14,-1
 365 1556 l 1,15,-1
 725 1556 l 1,16,-1
 608 956 l 1,17,18
 690 1054 690 1054 780 1100.5 c 128,-1,19
 870 1147 870 1147 977 1147 c 0,20,21
 1166 1147 1166 1147 1276 1027 c 128,-1,22
 1386 907 1386 907 1386 700 c 0,23,24
 1386 571 1386 571 1347.5 449 c 128,-1,25
 1309 327 1309 327 1237 227 c 0,26,27
 1146 101 1146 101 1031.5 36 c 128,-1,28
 917 -29 917 -29 786 -29 c 0,29,30
 671 -29 671 -29 590.5 17.5 c 128,-1,31
 510 64 510 64 455 162 c 1,12,-1
EndSplineSet
EndChar
StartChar: c
Encoding: 99 99 99
Width: 1214
Flags: W
AnchorPoint: "below" 624.342 0 basechar 0
AnchorPoint: "above" 821 1147 basechar 0
Fore
1190 1085 m 1,0,-1
 1133 793 l 1,1,2
 1061 841 1061 841 991 866 c 128,-1,3
 921 891 921 891 854 891 c 0,4,5
 679 891 679 891 568 773.5 c 128,-1,6
 457 656 457 656 457 473 c 0,7,8
 457 356 457 356 526 291.5 c 128,-1,9
 595 227 595 227 721 227 c 0,10,11
 805 227 805 227 886 252 c 128,-1,12
 967 277 967 277 1040 326 c 1,13,-1
 985 33 l 1,14,15
 896 2 896 2 806 -13.5 c 128,-1,16
 716 -29 716 -29 625 -29 c 0,17,18
 361 -29 361 -29 218.5 89.5 c 128,-1,19
 76 208 76 208 76 426 c 0,20,21
 76 563 76 563 128.5 692 c 128,-1,22
 181 821 181 821 279 924 c 0,23,24
 388 1037 388 1037 529 1092 c 128,-1,25
 670 1147 670 1147 854 1147 c 0,26,27
 939 1147 939 1147 1023 1131.5 c 128,-1,28
 1107 1116 1107 1116 1190 1085 c 1,0,-1
EndSplineSet
EndChar
StartChar: d
Encoding: 100 100 100
Width: 1466
Flags: W
AnchorPoint: "above" 1261.05 1520 basechar 0
AnchorPoint: "below" 580.591 0 basechar 0
Fore
629 231 m 0,0,1
 767 231 767 231 853.5 358 c 128,-1,2
 940 485 940 485 940 690 c 0,3,4
 940 783 940 783 891.5 835 c 128,-1,5
 843 887 843 887 756 887 c 0,6,7
 620 887 620 887 532 761.5 c 128,-1,8
 444 636 444 636 444 440 c 0,9,10
 444 338 444 338 491.5 284.5 c 128,-1,11
 539 231 539 231 629 231 c 0,0,1
1006 956 m 1,12,-1
 1122 1556 l 1,13,-1
 1483 1556 l 1,14,-1
 1180 0 l 1,15,-1
 819 0 l 1,16,-1
 852 162 l 1,17,18
 770 64 770 64 680 17.5 c 128,-1,19
 590 -29 590 -29 483 -29 c 0,20,21
 294 -29 294 -29 184 91 c 128,-1,22
 74 211 74 211 74 418 c 0,23,24
 74 547 74 547 112.5 669 c 128,-1,25
 151 791 151 791 223 891 c 0,26,27
 314 1017 314 1017 428.5 1082 c 128,-1,28
 543 1147 543 1147 674 1147 c 0,29,30
 789 1147 789 1147 869.5 1100.5 c 128,-1,31
 950 1054 950 1054 1006 956 c 1,12,-1
EndSplineSet
EndChar
StartChar: e
Encoding: 101 101 101
Width: 1389
Flags: W
AnchorPoint: "below" 620.342 0 basechar 0
AnchorPoint: "above" 831 1147 basechar 0
Fore
1288 518 m 1,0,-1
 1276 461 l 1,1,-1
 438 461 l 1,2,3
 438 455 438 455 437 443.5 c 128,-1,4
 436 432 436 432 436 426 c 0,5,6
 436 317 436 317 501.5 263 c 128,-1,7
 567 209 567 209 698 209 c 0,8,9
 811 209 811 209 936.5 243 c 128,-1,10
 1062 277 1062 277 1200 344 c 1,11,-1
 1145 66 l 1,12,13
 1014 18 1014 18 884.5 -5.5 c 128,-1,14
 755 -29 755 -29 621 -29 c 0,15,16
 359 -29 359 -29 216.5 92 c 128,-1,17
 74 213 74 213 74 434 c 0,18,19
 74 562 74 562 119.5 682.5 c 128,-1,20
 165 803 165 803 252 903 c 0,21,22
 355 1023 355 1023 498.5 1085 c 128,-1,23
 642 1147 642 1147 817 1147 c 0,24,25
 1044 1147 1044 1147 1177.5 1026 c 128,-1,26
 1311 905 1311 905 1311 700 c 0,27,28
 1311 660 1311 660 1305.5 615.5 c 128,-1,29
 1300 571 1300 571 1288 518 c 1,0,-1
950 682 m 1,30,31
 953 695 953 695 954.5 708.5 c 128,-1,32
 956 722 956 722 956 735 c 0,33,34
 956 815 956 815 908 862 c 128,-1,35
 860 909 860 909 778 909 c 0,36,37
 673 909 673 909 599.5 851.5 c 128,-1,38
 526 794 526 794 487 682 c 1,39,-1
 950 682 l 1,30,31
EndSplineSet
EndChar
StartChar: f
Encoding: 102 102 102
Width: 891
Flags: W
AnchorPoint: "above" 538.23 1520 basechar 0
AnchorPoint: "below" 242.772 0 basechar 0
Fore
1106 1556 m 1,0,-1
 1059 1321 l 1,1,-1
 862 1321 l 2,2,3
 787 1321 787 1321 752.5 1293.5 c 128,-1,4
 718 1266 718 1266 705 1199 c 1,5,-1
 688 1120 l 1,6,-1
 991 1120 l 1,7,-1
 942 864 l 1,8,-1
 639 864 l 1,9,-1
 471 0 l 1,10,-1
 111 0 l 1,11,-1
 279 864 l 1,12,-1
 102 864 l 1,13,-1
 152 1120 l 1,14,-1
 328 1120 l 1,15,-1
 344 1198 l 1,16,17
 381 1384 381 1384 498 1470 c 128,-1,18
 615 1556 615 1556 831 1556 c 2,19,-1
 1106 1556 l 1,0,-1
EndSplineSet
KernsSLIFO: 8217 141 2 0 8221 86 2 0 46 -112 2 0 45 -36 2 0 44 -112 2 0
EndChar
StartChar: g
Encoding: 103 103 103
Width: 1466
Flags: W
AnchorPoint: "below" 546.092 -430 basechar 0
AnchorPoint: "above" 825 1147 basechar 0
Fore
856 190 m 1,0,1
 770 92 770 92 681 46 c 128,-1,2
 592 0 592 0 487 0 c 0,3,4
 297 0 297 0 186.5 122.5 c 128,-1,5
 76 245 76 245 76 457 c 0,6,7
 76 570 76 570 114.5 683.5 c 128,-1,8
 153 797 153 797 225 897 c 0,9,10
 313 1018 313 1018 427 1081.5 c 128,-1,11
 541 1145 541 1145 672 1145 c 0,12,13
 790 1145 790 1145 870.5 1099 c 128,-1,14
 951 1053 951 1053 1006 954 c 1,15,-1
 1036 1120 l 1,16,-1
 1397 1120 l 1,17,-1
 1208 147 l 1,18,19
 1150 -154 1150 -154 960 -298 c 128,-1,20
 770 -442 770 -442 432 -442 c 0,21,22
 328 -442 328 -442 231.5 -426 c 128,-1,23
 135 -410 135 -410 41 -377 c 1,24,-1
 94 -98 l 1,25,26
 179 -152 179 -152 264 -178.5 c 128,-1,27
 349 -205 349 -205 438 -205 c 0,28,29
 616 -205 616 -205 711.5 -129 c 128,-1,30
 807 -53 807 -53 840 113 c 1,31,-1
 856 190 l 1,0,1
756 887 m 0,32,33
 624 887 624 887 536.5 768 c 128,-1,34
 449 649 449 649 449 469 c 0,35,36
 449 367 449 367 496 313.5 c 128,-1,37
 543 260 543 260 633 260 c 0,38,39
 764 260 764 260 852 378.5 c 128,-1,40
 940 497 940 497 940 674 c 0,41,42
 940 778 940 778 893 832.5 c 128,-1,43
 846 887 846 887 756 887 c 0,32,33
EndSplineSet
EndChar
StartChar: h
Encoding: 104 104 104
Width: 1458
Flags: W
AnchorPoint: "below" 546.772 0 basechar 0
AnchorPoint: "above" 565 1520 basechar 0
Fore
1321 682 m 2,0,-1
 1188 0 l 1,1,-1
 829 0 l 1,2,-1
 942 584 l 1,3,4
 954 641 954 641 960.5 680.5 c 128,-1,5
 967 720 967 720 967 743 c 0,6,7
 967 807 967 807 931.5 842 c 128,-1,8
 896 877 896 877 831 877 c 0,9,10
 720 877 720 877 640.5 790.5 c 128,-1,11
 561 704 561 704 530 551 c 1,12,-1
 422 0 l 1,13,-1
 63 0 l 1,14,-1
 365 1556 l 1,15,-1
 725 1556 l 1,16,-1
 608 956 l 1,17,18
 707 1053 707 1053 807 1100 c 128,-1,19
 907 1147 907 1147 1016 1147 c 0,20,21
 1171 1147 1171 1147 1255 1066 c 128,-1,22
 1339 985 1339 985 1339 838 c 0,23,24
 1339 806 1339 806 1334.5 767 c 128,-1,25
 1330 728 1330 728 1321 682 c 2,0,-1
EndSplineSet
EndChar
StartChar: i
Encoding: 105 105 105
Width: 702
Flags: W
AnchorPoint: "above" 546.477 1583 basechar 0
AnchorPoint: "below" 238.772 0 basechar 0
Fore
281 1120 m 1,0,-1
 641 1120 l 1,1,-1
 422 0 l 1,2,-1
 63 0 l 1,3,-1
 281 1120 l 1,0,-1
365 1556 m 1,4,-1
 725 1556 l 1,5,-1
 668 1264 l 1,6,-1
 307 1264 l 1,7,-1
 365 1556 l 1,4,-1
EndSplineSet
Substitution: 0 65534 's001' dotlessi
EndChar
StartChar: j
Encoding: 106 106 106
Width: 702
Flags: W
AnchorPoint: "below" 159.146 -430 basechar 0
AnchorPoint: "above" 576.139 1585 basechar 0
Fore
281 1120 m 1,0,-1
 641 1120 l 1,1,-1
 426 20 l 2,2,3
 380 -215 380 -215 254.5 -328.5 c 128,-1,4
 129 -442 129 -442 -84 -442 c 2,5,-1
 -262 -442 l 1,6,-1
 -217 -207 l 1,7,-1
 -154 -207 l 2,8,9
 -53 -207 -53 -207 -6.5 -161.5 c 128,-1,10
 40 -116 40 -116 66 20 c 1,11,-1
 281 1120 l 1,0,-1
365 1556 m 1,12,-1
 725 1556 l 1,13,-1
 668 1264 l 1,14,-1
 307 1264 l 1,15,-1
 365 1556 l 1,12,-1
EndSplineSet
Substitution: 0 65534 's001' dotlessj
EndChar
StartChar: k
Encoding: 107 107 107
Width: 1362
Flags: W
AnchorPoint: "above" 500.23 1520 basechar 0
AnchorPoint: "below" 546.772 0 basechar 0
Fore
365 1556 m 1,0,-1
 725 1556 l 1,1,-1
 561 713 l 1,2,-1
 1044 1120 l 1,3,-1
 1466 1120 l 1,4,-1
 815 602 l 1,5,-1
 1288 0 l 1,6,-1
 879 0 l 1,7,-1
 516 483 l 1,8,-1
 422 0 l 1,9,-1
 63 0 l 1,10,-1
 365 1556 l 1,0,-1
EndSplineSet
KernsSLIFO: 283 -73 2 0 339 -73 2 0 248 -45 2 0 245 -73 2 0 246 -73 2 0 244 -73 2 0 242 -73 2 0 243 -73 2 0 235 -73 2 0 234 -73 2 0 232 -73 2 0 233 -73 2 0 111 -73 2 0 101 -73 2 0
EndChar
StartChar: l
Encoding: 108 108 108
Width: 702
Flags: W
AnchorPoint: "above" 500.23 1520 basechar 0
AnchorPoint: "below" 204.772 0 basechar 0
Fore
365 1556 m 1,0,-1
 725 1556 l 1,1,-1
 422 0 l 1,2,-1
 63 0 l 1,3,-1
 365 1556 l 1,0,-1
EndSplineSet
AlternateSubs: 0 2 'aalt' l.alt
Substitution: 0 2 'salt' l.alt
EndChar
StartChar: m
Encoding: 109 109 109
Width: 2134
Flags: W
AnchorPoint: "above" 1182.48 1147 basechar 0
AnchorPoint: "below" 959.523 0 basechar 0
Fore
1284 934 m 1,0,1
 1367 1037 1367 1037 1472.5 1092 c 128,-1,2
 1578 1147 1578 1147 1692 1147 c 0,3,4
 1842 1147 1842 1147 1928.5 1064.5 c 128,-1,5
 2015 982 2015 982 2015 838 c 0,6,7
 2015 808 2015 808 2010.5 769.5 c 128,-1,8
 2006 731 2006 731 1997 682 c 1,9,-1
 1864 0 l 1,10,-1
 1503 0 l 1,11,-1
 1616 584 l 1,12,-1
 1619 599 l 2,13,14
 1645 723 1645 723 1645 758 c 0,15,16
 1645 813 1645 813 1613.5 845 c 128,-1,17
 1582 877 1582 877 1528 877 c 0,18,19
 1425 877 1425 877 1353.5 792.5 c 128,-1,20
 1282 708 1282 708 1251 551 c 2,21,-1
 1143 0 l 1,22,-1
 782 0 l 1,23,-1
 897 584 l 1,24,25
 912 659 912 659 918 697.5 c 128,-1,26
 924 736 924 736 924 758 c 0,27,28
 924 814 924 814 893 845.5 c 128,-1,29
 862 877 862 877 807 877 c 0,30,31
 708 877 708 877 633.5 789.5 c 128,-1,32
 559 702 559 702 530 551 c 1,33,-1
 422 0 l 1,34,-1
 63 0 l 1,35,-1
 281 1120 l 1,36,-1
 641 1120 l 1,37,-1
 608 956 l 1,38,39
 692 1051 692 1051 787 1099 c 128,-1,40
 882 1147 882 1147 985 1147 c 0,41,42
 1101 1147 1101 1147 1184 1087.5 c 128,-1,43
 1267 1028 1267 1028 1284 934 c 1,0,1
EndSplineSet
EndChar
StartChar: n
Encoding: 110 110 110
Width: 1458
Flags: W
AnchorPoint: "below" 569.522 0 basechar 0
AnchorPoint: "above" 809 1147 basechar 0
Fore
1321 682 m 2,0,-1
 1188 0 l 1,1,-1
 829 0 l 1,2,-1
 942 584 l 1,3,4
 954 641 954 641 960.5 680.5 c 128,-1,5
 967 720 967 720 967 743 c 0,6,7
 967 807 967 807 931.5 842 c 128,-1,8
 896 877 896 877 831 877 c 0,9,10
 720 877 720 877 640.5 790.5 c 128,-1,11
 561 704 561 704 530 551 c 1,12,-1
 422 0 l 1,13,-1
 63 0 l 1,14,-1
 281 1120 l 1,15,-1
 641 1120 l 1,16,-1
 608 956 l 1,17,18
 707 1053 707 1053 807 1100 c 128,-1,19
 907 1147 907 1147 1016 1147 c 0,20,21
 1171 1147 1171 1147 1255 1066 c 128,-1,22
 1339 985 1339 985 1339 838 c 0,23,24
 1339 806 1339 806 1334.5 767 c 128,-1,25
 1330 728 1330 728 1321 682 c 2,0,-1
EndSplineSet
EndChar
StartChar: o
Encoding: 111 111 111
Width: 1407
Flags: W
AnchorPoint: "below" 596.342 0 basechar 0
AnchorPoint: "above" 797 1147 basechar 0
Fore
768 891 m 0,0,1
 629 891 629 891 539 765 c 128,-1,2
 449 639 449 639 449 444 c 0,3,4
 449 338 449 338 497.5 282.5 c 128,-1,5
 546 227 546 227 639 227 c 0,6,7
 778 227 778 227 868 353.5 c 128,-1,8
 958 480 958 480 958 676 c 0,9,10
 958 781 958 781 909.5 836 c 128,-1,11
 861 891 861 891 768 891 c 0,0,1
797 1147 m 0,12,13
 1047 1147 1047 1147 1190 1020 c 128,-1,14
 1333 893 1333 893 1333 674 c 0,15,16
 1333 547 1333 547 1288 427.5 c 128,-1,17
 1243 308 1243 308 1157 209 c 0,18,19
 1055 91 1055 91 916 31 c 128,-1,20
 777 -29 777 -29 606 -29 c 0,21,22
 359 -29 359 -29 216.5 98 c 128,-1,23
 74 225 74 225 74 444 c 0,24,25
 74 570 74 570 120 690.5 c 128,-1,26
 166 811 166 811 252 911 c 0,27,28
 352 1027 352 1027 490.5 1087 c 128,-1,29
 629 1147 629 1147 797 1147 c 0,12,13
EndSplineSet
EndChar
StartChar: p
Encoding: 112 112 112
Width: 1466
Flags: W
AnchorPoint: "above" 881.88 1147 basechar 0
AnchorPoint: "below" 575.343 -430 basechar 0
Fore
455 162 m 1,0,-1
 340 -426 l 1,1,-1
 -20 -426 l 1,2,-1
 281 1120 l 1,3,-1
 641 1120 l 1,4,-1
 608 956 l 1,5,6
 690 1054 690 1054 780 1100.5 c 128,-1,7
 870 1147 870 1147 977 1147 c 0,8,9
 1166 1147 1166 1147 1276 1027 c 128,-1,10
 1386 907 1386 907 1386 700 c 0,11,12
 1386 571 1386 571 1347.5 449 c 128,-1,13
 1309 327 1309 327 1237 227 c 0,14,15
 1146 101 1146 101 1031.5 36 c 128,-1,16
 917 -29 917 -29 786 -29 c 0,17,18
 671 -29 671 -29 590.5 17.5 c 128,-1,19
 510 64 510 64 455 162 c 1,0,-1
831 887 m 0,20,21
 693 887 693 887 605.5 759.5 c 128,-1,22
 518 632 518 632 518 428 c 0,23,24
 518 336 518 336 567.5 283.5 c 128,-1,25
 617 231 617 231 705 231 c 0,26,27
 840 231 840 231 928 356.5 c 128,-1,28
 1016 482 1016 482 1016 678 c 0,29,30
 1016 780 1016 780 968.5 833.5 c 128,-1,31
 921 887 921 887 831 887 c 0,20,21
EndSplineSet
EndChar
StartChar: q
Encoding: 113 113 113
Width: 1466
Flags: W
AnchorPoint: "above" 881.88 1147 basechar 0
AnchorPoint: "below" 575.343 -430 basechar 0
Fore
1006 956 m 1,0,-1
 1036 1120 l 1,1,-1
 1397 1120 l 1,2,-1
 1096 -426 l 1,3,-1
 735 -426 l 1,4,-1
 850 162 l 1,5,6
 770 64 770 64 680 17.5 c 128,-1,7
 590 -29 590 -29 483 -29 c 0,8,9
 294 -29 294 -29 184 91 c 128,-1,10
 74 211 74 211 74 418 c 0,11,12
 74 547 74 547 112.5 669 c 128,-1,13
 151 791 151 791 223 891 c 0,14,15
 314 1017 314 1017 428.5 1082 c 128,-1,16
 543 1147 543 1147 674 1147 c 0,17,18
 789 1147 789 1147 869.5 1100.5 c 128,-1,19
 950 1054 950 1054 1006 956 c 1,0,-1
629 231 m 0,20,21
 767 231 767 231 853.5 358 c 128,-1,22
 940 485 940 485 940 690 c 0,23,24
 940 783 940 783 891.5 835 c 128,-1,25
 843 887 843 887 756 887 c 0,26,27
 620 887 620 887 532 761.5 c 128,-1,28
 444 636 444 636 444 440 c 0,29,30
 444 338 444 338 491.5 284.5 c 128,-1,31
 539 231 539 231 629 231 c 0,20,21
EndSplineSet
EndChar
StartChar: r
Encoding: 114 114 114
Width: 1010
Flags: W
AnchorPoint: "below" 238.522 0 basechar 0
AnchorPoint: "above" 743 1147 basechar 0
Fore
1053 815 m 1,0,1
 1016 836 1016 836 971 847 c 128,-1,2
 926 858 926 858 874 858 c 0,3,4
 737 858 737 858 646.5 770 c 128,-1,5
 556 682 556 682 524 516 c 1,6,-1
 422 0 l 1,7,-1
 63 0 l 1,8,-1
 281 1120 l 1,9,-1
 641 1120 l 1,10,-1
 602 928 l 1,11,12
 673 1034 673 1034 779.5 1090.5 c 128,-1,13
 886 1147 886 1147 1016 1147 c 0,14,15
 1035 1147 1035 1147 1059 1145 c 128,-1,16
 1083 1143 1083 1143 1116 1139 c 1,17,-1
 1053 815 l 1,0,1
EndSplineSet
KernsSLIFO: 8217 86 2 0 8221 38 2 0 46 -292 2 0 44 -301 2 0
EndChar
StartChar: s
Encoding: 115 115 115
Width: 1219
Flags: W
AnchorPoint: "below" 493.342 0 basechar 0
AnchorPoint: "above" 721 1147 basechar 0
Fore
1147 1085 m 1,0,-1
 1094 807 l 1,1,2
 989 857 989 857 885 883 c 128,-1,3
 781 909 781 909 688 909 c 0,4,5
 582 909 582 909 524.5 881.5 c 128,-1,6
 467 854 467 854 467 803 c 0,7,8
 467 773 467 773 499 755 c 128,-1,9
 531 737 531 737 625 717 c 1,10,-1
 690 705 l 1,11,12
 907 659 907 659 994 586.5 c 128,-1,13
 1081 514 1081 514 1081 385 c 0,14,15
 1081 190 1081 190 928 80.5 c 128,-1,16
 775 -29 775 -29 500 -29 c 0,17,18
 385 -29 385 -29 265 -11 c 128,-1,19
 145 7 145 7 20 43 c 1,20,-1
 74 324 l 1,21,22
 171 267 171 267 281.5 238 c 128,-1,23
 392 209 392 209 508 209 c 0,24,25
 621 209 621 209 678 236 c 128,-1,26
 735 263 735 263 735 315 c 0,27,28
 735 351 735 351 703 371 c 128,-1,29
 671 391 671 391 571 412 c 1,30,-1
 506 424 l 1,31,32
 314 464 314 464 232 542 c 128,-1,33
 150 620 150 620 150 758 c 0,34,35
 150 945 150 945 291.5 1046 c 128,-1,36
 433 1147 433 1147 696 1147 c 0,37,38
 811 1147 811 1147 922.5 1131.5 c 128,-1,39
 1034 1116 1034 1116 1147 1085 c 1,0,-1
EndSplineSet
EndChar
StartChar: t
Encoding: 116 116 116
Width: 979
Flags: W
AnchorPoint: "above" 549.698 1520 basechar 0
AnchorPoint: "below" 254.24 0 basechar 0
Fore
737 1438 m 1,0,-1
 676 1120 l 1,1,-1
 1042 1120 l 1,2,-1
 991 864 l 1,3,-1
 625 864 l 1,4,-1
 533 390 l 1,5,6
 529 374 529 374 527.5 363 c 128,-1,7
 526 352 526 352 526 342 c 0,8,9
 526 296 526 296 556.5 276 c 128,-1,10
 587 256 587 256 659 256 c 2,11,-1
 844 256 l 1,12,-1
 793 0 l 1,13,-1
 492 0 l 2,14,15
 330 0 330 0 245 68 c 128,-1,16
 160 136 160 136 160 264 c 0,17,18
 160 292 160 292 163 324 c 128,-1,19
 166 356 166 356 172 389 c 1,20,-1
 264 864 l 1,21,-1
 88 864 l 1,22,-1
 137 1120 l 1,23,-1
 315 1120 l 1,24,-1
 377 1438 l 1,25,-1
 737 1438 l 1,0,-1
EndSplineSet
EndChar
StartChar: u
Encoding: 117 117 117
Width: 1458
Flags: W
AnchorPoint: "below" 617.966 0 basechar 0
AnchorPoint: "above" 821 1147 basechar 0
Fore
139 436 m 2,0,-1
 270 1120 l 1,1,-1
 629 1120 l 1,2,-1
 516 537 l 1,3,4
 504 480 504 480 498 440 c 128,-1,5
 492 400 492 400 492 377 c 0,6,7
 492 314 492 314 527 279 c 128,-1,8
 562 244 562 244 627 244 c 0,9,10
 738 244 738 244 818 330 c 128,-1,11
 898 416 898 416 928 569 c 2,12,-1
 1036 1120 l 1,13,-1
 1395 1120 l 1,14,-1
 1178 0 l 1,15,-1
 817 0 l 1,16,-1
 850 164 l 1,17,18
 758 67 758 67 657 19 c 128,-1,19
 556 -29 556 -29 444 -29 c 0,20,21
 291 -29 291 -29 207 52 c 128,-1,22
 123 133 123 133 123 281 c 0,23,24
 123 316 123 316 127 355 c 128,-1,25
 131 394 131 394 139 436 c 2,0,-1
EndSplineSet
EndChar
StartChar: v
Encoding: 118 118 118
Width: 1335
Flags: W
AnchorPoint: "above" 782.102 1147 basechar 0
AnchorPoint: "below" 559.147 0 basechar 0
Fore
129 1120 m 1,0,-1
 459 1120 l 1,1,-1
 604 338 l 1,2,-1
 1026 1120 l 1,3,-1
 1389 1120 l 1,4,-1
 731 0 l 1,5,-1
 352 0 l 1,6,-1
 129 1120 l 1,0,-1
EndSplineSet
KernsSLIFO: 46 -167 2 0 44 -167 2 0
EndChar
StartChar: w
Encoding: 119 119 119
Width: 1892
Flags: W
AnchorPoint: "below" 837.146 0 basechar 0
AnchorPoint: "above" 1068 1147 basechar 0
Fore
178 1120 m 1,0,-1
 508 1120 l 1,1,-1
 547 350 l 1,2,-1
 885 1120 l 1,3,-1
 1169 1120 l 1,4,-1
 1210 352 l 1,5,-1
 1546 1120 l 1,6,-1
 1898 1120 l 1,7,-1
 1386 0 l 1,8,-1
 1006 0 l 1,9,-1
 969 770 l 1,10,-1
 627 0 l 1,11,-1
 256 0 l 1,12,-1
 178 1120 l 1,0,-1
EndSplineSet
KernsSLIFO: 46 -131 2 0 44 -131 2 0
EndChar
StartChar: x
Encoding: 120 120 120
Width: 1321
Flags: W
AnchorPoint: "above" 773.102 1147 basechar 0
AnchorPoint: "below" 550.147 0 basechar 0
Fore
453 573 m 1,0,-1
 156 1120 l 1,1,-1
 528 1120 l 1,2,-1
 694 788 l 1,3,-1
 985 1120 l 1,4,-1
 1374 1120 l 1,5,-1
 864 575 l 1,6,-1
 1176 0 l 1,7,-1
 803 0 l 1,8,-1
 627 354 l 1,9,-1
 305 0 l 1,10,-1
 -84 0 l 1,11,-1
 453 573 l 1,0,-1
EndSplineSet
EndChar
StartChar: y
Encoding: 121 121 121
Width: 1335
Flags: W
AnchorPoint: "below" 511.521 -430 basechar 0
AnchorPoint: "above" 801 1147 basechar 0
Fore
135 1120 m 1,0,-1
 473 1120 l 1,1,-1
 627 344 l 1,2,-1
 1024 1120 l 1,3,-1
 1407 1120 l 1,4,-1
 698 -106 l 1,5,6
 579 -313 579 -313 478 -377.5 c 128,-1,7
 377 -442 377 -442 217 -442 c 2,8,-1
 0 -442 l 1,9,-1
 37 -207 l 1,10,-1
 150 -207 l 2,11,12
 238 -207 238 -207 286.5 -177.5 c 128,-1,13
 335 -148 335 -148 373 -74 c 1,14,-1
 406 -14 l 1,15,-1
 135 1120 l 1,0,-1
EndSplineSet
KernsSLIFO: 46 -188 2 0 44 -159 2 0
EndChar
StartChar: z
Encoding: 122 122 122
Width: 1192
Flags: W
AnchorPoint: "below" 487.147 0 basechar 0
AnchorPoint: "above" 676 1147 basechar 0
Fore
223 1120 m 1,0,-1
 1200 1120 l 1,1,-1
 1151 870 l 1,2,-1
 453 256 l 1,3,-1
 1032 256 l 1,4,-1
 983 0 l 1,5,-1
 -18 0 l 1,6,-1
 29 250 l 1,7,-1
 729 864 l 1,8,-1
 174 864 l 1,9,-1
 223 1120 l 1,0,-1
EndSplineSet
EndChar
StartChar: braceleft
Encoding: 123 123 123
Width: 1458
Flags: W
Fore
1047 -109 m 1,0,-1
 1004 -334 l 1,1,-1
 786 -334 l 2,2,3
 607 -334 607 -334 516.5 -272.5 c 128,-1,4
 426 -211 426 -211 426 -88 c 0,5,6
 426 -66 426 -66 429.5 -36 c 128,-1,7
 433 -6 433 -6 440 34 c 1,8,-1
 477 227 l 1,9,10
 483 257 483 257 486 284.5 c 128,-1,11
 489 312 489 312 489 334 c 0,12,13
 489 422 489 422 443.5 458 c 128,-1,14
 398 494 398 494 281 494 c 2,15,-1
 217 494 l 1,16,-1
 262 717 l 1,17,-1
 324 717 l 2,18,19
 465 717 465 717 530.5 775 c 128,-1,20
 596 833 596 833 625 983 c 1,21,-1
 664 1188 l 2,22,23
 701 1381 701 1381 817.5 1468.5 c 128,-1,24
 934 1556 934 1556 1153 1556 c 2,25,-1
 1370 1556 l 1,26,-1
 1327 1331 l 1,27,-1
 1257 1331 l 2,28,29
 1118 1331 1118 1331 1066.5 1287.5 c 128,-1,30
 1015 1244 1015 1244 987 1102 c 2,31,-1
 954 936 l 1,32,33
 924 780 924 780 865 708.5 c 128,-1,34
 806 637 806 637 692 612 c 1,35,36
 772 591 772 591 809 546 c 128,-1,37
 846 501 846 501 846 424 c 0,38,39
 846 394 846 394 842 360.5 c 128,-1,40
 838 327 838 327 829 287 c 1,41,-1
 797 121 l 2,42,43
 788 75 788 75 785 51 c 128,-1,44
 782 27 782 27 782 10 c 0,45,46
 782 -57 782 -57 822.5 -83 c 128,-1,47
 863 -109 863 -109 979 -109 c 2,48,-1
 1047 -109 l 1,0,-1
EndSplineSet
EndChar
StartChar: bar
Encoding: 124 124 124
Width: 748
Flags: W
Fore
487 1565 m 1,0,-1
 487 -483 l 1,1,-1
 260 -483 l 1,2,-1
 260 1565 l 1,3,-1
 487 1565 l 1,0,-1
EndSplineSet
EndChar
StartChar: braceright
Encoding: 125 125 125
Width: 1458
Flags: W
Fore
133 -109 m 1,0,-1
 203 -109 l 2,1,2
 343 -109 343 -109 394.5 -64.5 c 128,-1,3
 446 -20 446 -20 473 121 c 1,4,-1
 506 287 l 1,5,6
 536 442 536 442 595.5 514 c 128,-1,7
 655 586 655 586 770 612 c 1,8,9
 690 631 690 631 652 676 c 128,-1,10
 614 721 614 721 614 799 c 0,11,12
 614 823 614 823 618.5 857 c 128,-1,13
 623 891 623 891 631 936 c 1,14,-1
 664 1102 l 1,15,16
 672 1144 672 1144 675 1169 c 128,-1,17
 678 1194 678 1194 678 1212 c 0,18,19
 678 1280 678 1280 637.5 1305.5 c 128,-1,20
 597 1331 597 1331 481 1331 c 2,21,-1
 414 1331 l 1,22,-1
 457 1556 l 1,23,-1
 676 1556 l 2,24,25
 855 1556 855 1556 944.5 1495 c 128,-1,26
 1034 1434 1034 1434 1034 1311 c 0,27,28
 1034 1283 1034 1283 1030.5 1252.5 c 128,-1,29
 1027 1222 1027 1222 1020 1188 c 1,30,-1
 981 983 l 1,31,32
 975 953 975 953 972 926 c 128,-1,33
 969 899 969 899 969 877 c 0,34,35
 969 789 969 789 1015.5 753 c 128,-1,36
 1062 717 1062 717 1178 717 c 2,37,-1
 1241 717 l 1,38,-1
 1196 494 l 1,39,-1
 1135 494 l 2,40,41
 994 494 994 494 928.5 435.5 c 128,-1,42
 863 377 863 377 834 227 c 2,43,-1
 797 35 l 2,44,45
 760 -158 760 -158 643 -246 c 128,-1,46
 526 -334 526 -334 307 -334 c 2,47,-1
 90 -334 l 1,48,-1
 133 -109 l 1,0,-1
EndSplineSet
EndChar
StartChar: asciitilde
Encoding: 126 126 126
Width: 1716
Flags: W
Fore
1499 850 m 1,0,-1
 1499 606 l 1,1,2
 1393 526 1393 526 1303.5 491.5 c 128,-1,3
 1214 457 1214 457 1118 457 c 0,4,5
 1011 457 1011 457 868 515 c 0,6,7
 854 521 854 521 846 524 c 0,8,9
 839 527 839 527 824 533 c 0,10,11
 669 594 669 594 575 594 c 0,12,13
 487 594 487 594 401 555.5 c 128,-1,14
 315 517 315 517 217 434 c 1,15,-1
 217 678 l 1,16,17
 324 758 324 758 413 792.5 c 128,-1,18
 502 827 502 827 598 827 c 0,19,20
 705 827 705 827 848 769 c 0,21,22
 863 763 863 763 870 760 c 0,23,24
 877 757 877 757 892 751 c 0,25,26
 1047 690 1047 690 1141 690 c 0,27,28
 1227 690 1227 690 1311.5 727.5 c 128,-1,29
 1396 765 1396 765 1499 850 c 1,0,-1
EndSplineSet
EndChar
StartChar: exclamdown
Encoding: 161 161 161
Width: 934
Flags: W
Fore
723 1137 m 1,0,-1
 362 1137 l 1,1,-1
 432 1493 l 1,2,-1
 793 1493 l 1,3,-1
 723 1137 l 1,0,-1
502 0 m 1,4,-1
 141 0 l 1,5,-1
 254 573 l 1,6,-1
 385 991 l 1,7,-1
 643 991 l 1,8,-1
 614 573 l 1,9,-1
 502 0 l 1,4,-1
EndSplineSet
EndChar
StartChar: cent
Encoding: 162 162 162
Width: 1425
Flags: W
Fore
741 856 m 1,0,1
 639 810 639 810 577.5 705.5 c 128,-1,2
 516 601 516 601 516 473 c 0,3,4
 516 399 516 399 544.5 344.5 c 128,-1,5
 573 290 573 290 625 264 c 1,6,-1
 741 856 l 1,0,1
1249 1085 m 1,7,-1
 1192 793 l 1,8,9
 1117 843 1117 843 1049.5 867 c 128,-1,10
 982 891 982 891 918 891 c 2,11,-1
 909 891 l 1,12,-1
 781 227 l 1,13,14
 870 229 870 229 949.5 253.5 c 128,-1,15
 1029 278 1029 278 1100 326 c 1,16,-1
 1044 33 l 1,17,18
 972 8 972 8 894 -7 c 128,-1,19
 816 -22 816 -22 731 -27 c 1,20,-1
 676 -313 l 1,21,-1
 514 -313 l 1,22,-1
 569 -23 l 1,23,24
 368 -1 368 -1 252.5 115.5 c 128,-1,25
 137 232 137 232 137 414 c 0,26,27
 137 705 137 705 319 906 c 128,-1,28
 501 1107 501 1107 797 1141 c 1,29,-1
 852 1432 l 1,30,-1
 1014 1432 l 1,31,-1
 959 1145 l 1,32,33
 1027 1143 1027 1143 1100 1128 c 128,-1,34
 1173 1113 1173 1113 1249 1085 c 1,7,-1
EndSplineSet
EndChar
StartChar: sterling
Encoding: 163 163 163
Width: 1425
Flags: W
Fore
1415 1466 m 1,0,-1
 1360 1180 l 1,1,2
 1301 1217 1301 1217 1231 1237 c 128,-1,3
 1161 1257 1161 1257 1090 1257 c 0,4,5
 965 1257 965 1257 895 1195.5 c 128,-1,6
 825 1134 825 1134 799 1001 c 2,7,-1
 766 831 l 1,8,-1
 1139 831 l 1,9,-1
 1094 592 l 1,10,-1
 719 592 l 1,11,-1
 655 266 l 1,12,-1
 1196 266 l 1,13,-1
 1145 0 l 1,14,-1
 14 0 l 1,15,-1
 66 266 l 1,16,-1
 291 266 l 1,17,-1
 354 592 l 1,18,-1
 162 592 l 1,19,-1
 207 831 l 1,20,-1
 401 831 l 1,21,-1
 434 1001 l 2,22,23
 486 1271 486 1271 637 1395.5 c 128,-1,24
 788 1520 788 1520 1063 1520 c 0,25,26
 1155 1520 1155 1520 1243 1506.5 c 128,-1,27
 1331 1493 1331 1493 1415 1466 c 1,0,-1
EndSplineSet
EndChar
StartChar: currency
Encoding: 164 164 164
Width: 1303
Flags: W
Fore
434 268 m 1,0,-1
 227 61 l 1,1,-1
 74 215 l 1,2,-1
 281 422 l 1,3,4
 253 471 253 471 239 524.5 c 128,-1,5
 225 578 225 578 225 641 c 0,6,7
 225 704 225 704 240 758 c 128,-1,8
 255 812 255 812 285 858 c 1,9,-1
 76 1063 l 1,10,-1
 229 1217 l 1,11,-1
 436 1010 l 1,12,13
 484 1040 484 1040 538 1054.5 c 128,-1,14
 592 1069 592 1069 653 1069 c 0,15,16
 707 1069 707 1069 761 1055.5 c 128,-1,17
 815 1042 815 1042 872 1014 c 1,18,-1
 1079 1221 l 1,19,-1
 1231 1067 l 1,20,-1
 1024 860 l 1,21,22
 1053 805 1053 805 1067 750 c 128,-1,23
 1081 695 1081 695 1081 641 c 0,24,25
 1081 578 1081 578 1066.5 525.5 c 128,-1,26
 1052 473 1052 473 1022 426 c 1,27,-1
 1229 219 l 1,28,-1
 1075 66 l 1,29,-1
 868 272 l 1,30,31
 822 242 822 242 769 227.5 c 128,-1,32
 716 213 716 213 653 213 c 0,33,34
 595 213 595 213 541 226.5 c 128,-1,35
 487 240 487 240 434 268 c 1,0,-1
653 422 m 0,36,37
 744 422 744 422 808 485.5 c 128,-1,38
 872 549 872 549 872 641 c 0,39,40
 872 733 872 733 808.5 796.5 c 128,-1,41
 745 860 745 860 653 860 c 0,42,43
 562 860 562 860 498 796.5 c 128,-1,44
 434 733 434 733 434 641 c 0,45,46
 434 548 434 548 497 485 c 128,-1,47
 560 422 560 422 653 422 c 0,36,37
EndSplineSet
EndChar
StartChar: yen
Encoding: 165 165 165
Width: 1425
Flags: W
Fore
1294 416 m 1,0,-1
 840 416 l 1,1,-1
 758 0 l 1,2,-1
 377 0 l 1,3,-1
 459 416 l 1,4,-1
 12 416 l 1,5,-1
 51 610 l 1,6,-1
 496 610 l 1,7,-1
 510 686 l 1,8,-1
 481 762 l 1,9,-1
 80 762 l 1,10,-1
 117 954 l 1,11,-1
 408 954 l 1,12,-1
 193 1493 l 1,13,-1
 561 1493 l 1,14,-1
 756 993 l 1,15,-1
 1141 1493 l 1,16,-1
 1546 1493 l 1,17,-1
 1106 954 l 1,18,-1
 1399 954 l 1,19,-1
 1362 762 l 1,20,-1
 954 762 l 1,21,-1
 895 686 l 1,22,-1
 877 610 l 1,23,-1
 1331 610 l 1,24,-1
 1294 416 l 1,0,-1
EndSplineSet
EndChar
StartChar: brokenbar
Encoding: 166 166 166
Width: 748
Flags: W
Fore
487 1432 m 1,0,-1
 487 674 l 1,1,-1
 260 674 l 1,2,-1
 260 1432 l 1,3,-1
 487 1432 l 1,0,-1
487 408 m 1,4,-1
 487 -350 l 1,5,-1
 260 -350 l 1,6,-1
 260 408 l 1,7,-1
 487 408 l 1,4,-1
EndSplineSet
EndChar
StartChar: section
Encoding: 167 167 167
Width: 1024
Flags: W
Fore
1012 1462 m 1,0,-1
 969 1235 l 1,1,2
 879 1275 879 1275 807 1294 c 128,-1,3
 735 1313 735 1313 674 1313 c 0,4,5
 594 1313 594 1313 547 1282.5 c 128,-1,6
 500 1252 500 1252 500 1202 c 0,7,8
 500 1172 500 1172 524.5 1147 c 128,-1,9
 549 1122 549 1122 606 1096 c 2,10,-1
 696 1055 l 2,11,12
 871 977 871 977 935 901.5 c 128,-1,13
 999 826 999 826 999 715 c 0,14,15
 999 592 999 592 922 497 c 128,-1,16
 845 402 845 402 698 344 c 1,17,18
 755 308 755 308 782 264 c 128,-1,19
 809 220 809 220 809 166 c 0,20,21
 809 4 809 4 668 -95.5 c 128,-1,22
 527 -195 527 -195 291 -195 c 0,23,24
 207 -195 207 -195 117 -180.5 c 128,-1,25
 27 -166 27 -166 -68 -137 c 1,26,-1
 -20 100 l 1,27,28
 82 57 82 57 162 35.5 c 128,-1,29
 242 14 242 14 303 14 c 0,30,31
 380 14 380 14 428.5 45.5 c 128,-1,32
 477 77 477 77 477 125 c 0,33,34
 477 156 477 156 453 179.5 c 128,-1,35
 429 203 429 203 350 240 c 2,36,-1
 215 301 l 2,37,38
 96 355 96 355 40 428.5 c 128,-1,39
 -16 502 -16 502 -16 604 c 0,40,41
 -16 727 -16 727 57.5 822.5 c 128,-1,42
 131 918 131 918 272 977 c 1,43,44
 220 1018 220 1018 195 1064 c 128,-1,45
 170 1110 170 1110 170 1163 c 0,46,47
 170 1319 170 1319 308.5 1419.5 c 128,-1,48
 447 1520 447 1520 668 1520 c 0,49,50
 751 1520 751 1520 837 1505.5 c 128,-1,51
 923 1491 923 1491 1012 1462 c 1,0,-1
444 854 m 1,52,53
 364 833 364 833 321.5 788.5 c 128,-1,54
 279 744 279 744 279 682 c 0,55,56
 279 621 279 621 327.5 578 c 128,-1,57
 376 535 376 535 539 471 c 1,58,59
 619 498 619 498 663 543.5 c 128,-1,60
 707 589 707 589 707 645 c 0,61,62
 707 706 707 706 650 752.5 c 128,-1,63
 593 799 593 799 444 854 c 1,52,53
EndSplineSet
EndChar
StartChar: dieresis
Encoding: 168 168 168
Width: 1024
Flags: W
Fore
358 1585 m 1,0,-1
 596 1585 l 1,1,-1
 547 1339 l 1,2,-1
 311 1339 l 1,3,-1
 358 1585 l 1,0,-1
756 1585 m 1,4,-1
 991 1585 l 1,5,-1
 942 1339 l 1,6,-1
 707 1339 l 1,7,-1
 756 1585 l 1,4,-1
EndSplineSet
Ligature: 0 1 'liga' space uni0308
EndChar
StartChar: copyright
Encoding: 169 169 169
Width: 2048
Flags: W
Fore
1323 1126 m 1,0,-1
 1323 911 l 1,1,2
 1266 948 1266 948 1210.5 965.5 c 128,-1,3
 1155 983 1155 983 1098 983 c 0,4,5
 985 983 985 983 921.5 919 c 128,-1,6
 858 855 858 855 858 741 c 0,7,8
 858 626 858 626 921 563 c 128,-1,9
 984 500 984 500 1098 500 c 0,10,11
 1162 500 1162 500 1219.5 518 c 128,-1,12
 1277 536 1277 536 1323 571 c 1,13,-1
 1323 358 l 1,14,15
 1258 336 1258 336 1192.5 324.5 c 128,-1,16
 1127 313 1127 313 1065 313 c 0,17,18
 854 313 854 313 727 430 c 128,-1,19
 600 547 600 547 600 741 c 0,20,21
 600 936 600 936 727 1052.5 c 128,-1,22
 854 1169 854 1169 1065 1169 c 0,23,24
 1134 1169 1134 1169 1198 1158.5 c 128,-1,25
 1262 1148 1262 1148 1323 1126 c 1,0,-1
1024 1331 m 0,26,27
 903 1331 903 1331 799 1287.5 c 128,-1,28
 695 1244 695 1244 608 1157 c 0,29,30
 521 1070 521 1070 477.5 966.5 c 128,-1,31
 434 863 434 863 434 741 c 0,32,33
 434 620 434 620 477.5 516.5 c 128,-1,34
 521 413 521 413 608 326 c 0,35,36
 694 240 694 240 798.5 197 c 128,-1,37
 903 154 903 154 1024 154 c 0,38,39
 1147 154 1147 154 1250 196.5 c 128,-1,40
 1353 239 1353 239 1440 326 c 0,41,42
 1527 413 1527 413 1570.5 516.5 c 128,-1,43
 1614 620 1614 620 1614 741 c 0,44,45
 1614 863 1614 863 1570.5 966.5 c 128,-1,46
 1527 1070 1527 1070 1440 1157 c 0,47,48
 1352 1245 1352 1245 1248.5 1288 c 128,-1,49
 1145 1331 1145 1331 1024 1331 c 0,26,27
1024 1485 m 0,50,51
 1176 1485 1176 1485 1307.5 1430 c 128,-1,52
 1439 1375 1439 1375 1548 1266 c 0,53,54
 1657 1157 1657 1157 1711 1026 c 128,-1,55
 1765 895 1765 895 1765 741 c 0,56,57
 1765 589 1765 589 1711 458.5 c 128,-1,58
 1657 328 1657 328 1548 219 c 0,59,60
 1439 110 1439 110 1307.5 55 c 128,-1,61
 1176 0 1176 0 1024 0 c 0,62,63
 872 0 872 0 740.5 55 c 128,-1,64
 609 110 609 110 500 219 c 0,65,66
 391 328 391 328 337 458.5 c 128,-1,67
 283 589 283 589 283 741 c 0,68,69
 283 895 283 895 337 1026 c 128,-1,70
 391 1157 391 1157 500 1266 c 0,71,72
 609 1375 609 1375 740.5 1430 c 128,-1,73
 872 1485 872 1485 1024 1485 c 0,50,51
EndSplineSet
EndChar
StartChar: ordfeminine
Encoding: 170 170 170
Width: 1155
Flags: W
Fore
127 573 m 1,0,-1
 942 573 l 1,1,-1
 903 373 l 1,2,-1
 88 373 l 1,3,-1
 127 573 l 1,0,-1
692 1081 m 2,4,5
 544 1081 544 1081 488 1052.5 c 128,-1,6
 432 1024 432 1024 432 954 c 0,7,8
 432 910 432 910 463 884 c 128,-1,9
 494 858 494 858 547 858 c 0,10,11
 631 858 631 858 696 914.5 c 128,-1,12
 761 971 761 971 778 1059 c 1,13,-1
 782 1081 l 1,14,-1
 692 1081 l 2,4,5
1069 1165 m 1,15,-1
 983 717 l 1,16,-1
 735 717 l 1,17,-1
 760 842 l 1,18,19
 694 766 694 766 618.5 731 c 128,-1,20
 543 696 543 696 442 696 c 0,21,22
 317 696 317 696 247.5 751.5 c 128,-1,23
 178 807 178 807 178 907 c 0,24,25
 178 1062 178 1062 301.5 1140.5 c 128,-1,26
 425 1219 425 1219 668 1219 c 2,27,-1
 809 1219 l 1,28,-1
 813 1239 l 2,29,30
 814 1243 814 1243 814.5 1248 c 128,-1,31
 815 1253 815 1253 815 1264 c 0,32,33
 815 1308 815 1308 776.5 1331 c 128,-1,34
 738 1354 738 1354 662 1354 c 0,35,36
 574 1354 574 1354 487 1336.5 c 128,-1,37
 400 1319 400 1319 315 1284 c 1,38,-1
 350 1464 l 1,39,40
 448 1492 448 1492 535.5 1506 c 128,-1,41
 623 1520 623 1520 698 1520 c 0,42,43
 884 1520 884 1520 981.5 1456 c 128,-1,44
 1079 1392 1079 1392 1079 1270 c 0,45,46
 1079 1239 1079 1239 1076.5 1213.5 c 128,-1,47
 1074 1188 1074 1188 1069 1165 c 1,15,-1
EndSplineSet
EndChar
StartChar: guillemotleft
Encoding: 171 171 171
Width: 1331
Flags: W
Fore
1217 1063 m 1,0,-1
 1167 811 l 1,1,-1
 821 582 l 1,2,-1
 1079 360 l 1,3,-1
 1036 137 l 1,4,-1
 614 506 l 1,5,-1
 651 692 l 1,6,-1
 1217 1063 l 1,0,-1
727 1063 m 1,7,-1
 678 811 l 1,8,-1
 332 582 l 1,9,-1
 590 360 l 1,10,-1
 547 137 l 1,11,-1
 125 506 l 1,12,-1
 162 692 l 1,13,-1
 727 1063 l 1,7,-1
EndSplineSet
EndChar
StartChar: logicalnot
Encoding: 172 172 172
Width: 1716
Flags: W
Fore
217 909 m 1,0,-1
 1499 909 l 1,1,-1
 1499 287 l 1,2,-1
 1264 287 l 1,3,-1
 1264 672 l 1,4,-1
 217 672 l 1,5,-1
 217 909 l 1,0,-1
EndSplineSet
EndChar
StartChar: sfthyphen
Encoding: 173 173 173
Width: 850
Flags: W
Fore
109 735 m 1,0,-1
 737 735 l 1,1,-1
 680 444 l 1,2,-1
 51 444 l 1,3,-1
 109 735 l 1,0,-1
EndSplineSet
EndChar
StartChar: registered
Encoding: 174 174 174
Width: 2048
Flags: W
Fore
1024 1331 m 0,0,1
 903 1331 903 1331 799 1287.5 c 128,-1,2
 695 1244 695 1244 608 1157 c 0,3,4
 521 1070 521 1070 477.5 966.5 c 128,-1,5
 434 863 434 863 434 741 c 0,6,7
 434 620 434 620 477.5 516.5 c 128,-1,8
 521 413 521 413 608 326 c 0,9,10
 694 240 694 240 798.5 197 c 128,-1,11
 903 154 903 154 1024 154 c 0,12,13
 1147 154 1147 154 1250 196.5 c 128,-1,14
 1353 239 1353 239 1440 326 c 0,15,16
 1527 413 1527 413 1570.5 516.5 c 128,-1,17
 1614 620 1614 620 1614 741 c 0,18,19
 1614 863 1614 863 1570.5 966.5 c 128,-1,20
 1527 1070 1527 1070 1440 1157 c 0,21,22
 1352 1245 1352 1245 1248.5 1288 c 128,-1,23
 1145 1331 1145 1331 1024 1331 c 0,0,1
967 1036 m 2,24,-1
 932 1036 l 1,25,-1
 932 829 l 1,26,-1
 967 829 l 2,27,28
 1045 829 1045 829 1084.5 855.5 c 128,-1,29
 1124 882 1124 882 1124 934 c 0,30,31
 1124 986 1124 986 1085.5 1011 c 128,-1,32
 1047 1036 1047 1036 967 1036 c 2,24,-1
1004 1174 m 2,33,34
 1180 1174 1180 1174 1267 1114.5 c 128,-1,35
 1354 1055 1354 1055 1354 934 c 0,36,37
 1354 848 1354 848 1301.5 792 c 128,-1,38
 1249 736 1249 736 1153 719 c 1,39,40
 1194 697 1194 697 1229.5 657 c 128,-1,41
 1265 617 1265 617 1294 559 c 2,42,-1
 1405 338 l 1,43,-1
 1176 338 l 1,44,-1
 1069 551 l 1,45,46
 1031 629 1031 629 1002 661.5 c 128,-1,47
 973 694 973 694 944 694 c 2,48,-1
 932 694 l 1,49,-1
 932 338 l 1,50,-1
 719 338 l 1,51,-1
 719 1174 l 1,52,-1
 1004 1174 l 2,33,34
1024 1485 m 0,53,54
 1176 1485 1176 1485 1307.5 1430 c 128,-1,55
 1439 1375 1439 1375 1548 1266 c 0,56,57
 1657 1157 1657 1157 1711 1026 c 128,-1,58
 1765 895 1765 895 1765 741 c 0,59,60
 1765 589 1765 589 1711 458.5 c 128,-1,61
 1657 328 1657 328 1548 219 c 0,62,63
 1439 110 1439 110 1307.5 55 c 128,-1,64
 1176 0 1176 0 1024 0 c 0,65,66
 872 0 872 0 740.5 55 c 128,-1,67
 609 110 609 110 500 219 c 0,68,69
 391 328 391 328 337 458.5 c 128,-1,70
 283 589 283 589 283 741 c 0,71,72
 283 895 283 895 337 1026 c 128,-1,73
 391 1157 391 1157 500 1266 c 0,74,75
 609 1375 609 1375 740.5 1430 c 128,-1,76
 872 1485 872 1485 1024 1485 c 0,53,54
EndSplineSet
EndChar
StartChar: macron
Encoding: 175 175 175
Width: 1024
Flags: W
Fore
354 1556 m 1,0,-1
 985 1556 l 1,1,-1
 948 1368 l 1,2,-1
 317 1368 l 1,3,-1
 354 1556 l 1,0,-1
EndSplineSet
LCarets: 0 65535 '    ' 1 0 
Ligature: 0 1 'liga' space uni0304
EndChar
StartChar: degree
Encoding: 176 176 176
Width: 1024
Flags: W
Fore
512 1372 m 0,0,1
 440 1372 440 1372 390 1322 c 128,-1,2
 340 1272 340 1272 340 1200 c 0,3,4
 340 1128 340 1128 389.5 1079 c 128,-1,5
 439 1030 439 1030 512 1030 c 0,6,7
 584 1030 584 1030 634 1079.5 c 128,-1,8
 684 1129 684 1129 684 1200 c 0,9,10
 684 1272 684 1272 633.5 1322 c 128,-1,11
 583 1372 583 1372 512 1372 c 0,0,1
512 1534 m 0,12,13
 578 1534 578 1534 639 1508.5 c 128,-1,14
 700 1483 700 1483 748 1436 c 1,15,16
 795 1388 795 1388 819.5 1328 c 128,-1,17
 844 1268 844 1268 844 1200 c 0,18,19
 844 1133 844 1133 819.5 1072.5 c 128,-1,20
 795 1012 795 1012 750 967 c 0,21,22
 702 919 702 919 640 893.5 c 128,-1,23
 578 868 578 868 510 868 c 0,24,25
 369 868 369 868 273.5 963.5 c 128,-1,26
 178 1059 178 1059 178 1200 c 0,27,28
 178 1341 178 1341 274.5 1437.5 c 128,-1,29
 371 1534 371 1534 512 1534 c 0,12,13
EndSplineSet
EndChar
StartChar: plusminus
Encoding: 177 177 177
Width: 1716
Flags: W
Fore
977 1284 m 1,0,-1
 977 930 l 1,1,-1
 1499 930 l 1,2,-1
 1499 694 l 1,3,-1
 977 694 l 1,4,-1
 977 340 l 1,5,-1
 739 340 l 1,6,-1
 739 694 l 1,7,-1
 217 694 l 1,8,-1
 217 930 l 1,9,-1
 739 930 l 1,10,-1
 739 1284 l 1,11,-1
 977 1284 l 1,0,-1
217 238 m 1,12,-1
 1499 238 l 1,13,-1
 1499 0 l 1,14,-1
 217 0 l 1,15,-1
 217 238 l 1,12,-1
EndSplineSet
EndChar
StartChar: twosuperior
Encoding: 178 178 178
Width: 897
Flags: W
Fore
424 836 m 1,0,-1
 801 836 l 1,1,-1
 768 668 l 1,2,-1
 92 668 l 1,3,-1
 123 821 l 1,4,-1
 489 1087 l 2,5,6
 569 1145 569 1145 608 1194.5 c 128,-1,7
 647 1244 647 1244 647 1286 c 0,8,9
 647 1326 647 1326 614.5 1349 c 128,-1,10
 582 1372 582 1372 524 1372 c 0,11,12
 456 1372 456 1372 382.5 1349 c 128,-1,13
 309 1326 309 1326 238 1282 c 1,14,-1
 274 1468 l 1,15,16
 357 1494 357 1494 431.5 1507 c 128,-1,17
 506 1520 506 1520 575 1520 c 0,18,19
 724 1520 724 1520 803.5 1465.5 c 128,-1,20
 883 1411 883 1411 883 1311 c 0,21,22
 883 1232 883 1232 829 1157.5 c 128,-1,23
 775 1083 775 1083 655 999 c 2,24,-1
 424 836 l 1,0,-1
EndSplineSet
EndChar
StartChar: threesuperior
Encoding: 179 179 179
Width: 897
Flags: W
Fore
666 1120 m 1,0,1
 741 1107 741 1107 780 1060.5 c 128,-1,2
 819 1014 819 1014 819 938 c 0,3,4
 819 801 819 801 702 727 c 128,-1,5
 585 653 585 653 369 653 c 0,6,7
 289 653 289 653 216.5 665 c 128,-1,8
 144 677 144 677 82 700 c 1,9,-1
 115 872 l 1,10,11
 173 836 173 836 232.5 817.5 c 128,-1,12
 292 799 292 799 352 799 c 0,13,14
 461 799 461 799 522.5 837 c 128,-1,15
 584 875 584 875 584 942 c 0,16,17
 584 996 584 996 534.5 1021.5 c 128,-1,18
 485 1047 485 1047 381 1047 c 2,19,-1
 305 1047 l 1,20,-1
 332 1184 l 1,21,-1
 418 1184 l 2,22,23
 524 1184 524 1184 580.5 1213 c 128,-1,24
 637 1242 637 1242 637 1296 c 0,25,26
 637 1334 637 1334 599 1353 c 128,-1,27
 561 1372 561 1372 487 1372 c 0,28,29
 433 1372 433 1372 369.5 1359 c 128,-1,30
 306 1346 306 1346 229 1319 c 1,31,-1
 260 1485 l 1,32,33
 332 1502 332 1502 406 1511 c 128,-1,34
 480 1520 480 1520 553 1520 c 0,35,36
 708 1520 708 1520 791 1470 c 128,-1,37
 874 1420 874 1420 874 1327 c 0,38,39
 874 1246 874 1246 817.5 1190 c 128,-1,40
 761 1134 761 1134 666 1120 c 1,0,1
EndSplineSet
EndChar
StartChar: acute
Encoding: 180 180 180
Width: 1024
Flags: W
Fore
811 1638 m 1,0,-1
 1104 1638 l 1,1,-1
 666 1262 l 1,2,-1
 465 1262 l 1,3,-1
 811 1638 l 1,0,-1
EndSplineSet
LCarets: 0 65535 '    ' 1 0 
Ligature: 0 1 'liga' space acutecomb
EndChar
StartChar: mu
Encoding: 181 181 181
Width: 1507
Flags: W
Fore
-55 -428 m 1,0,-1
 246 1120 l 1,1,-1
 606 1120 l 1,2,-1
 479 469 l 2,3,4
 475 448 475 448 473 428 c 128,-1,5
 471 408 471 408 471 391 c 0,6,7
 471 318 471 318 514 279 c 128,-1,8
 557 240 557 240 639 240 c 0,9,10
 741 240 741 240 801 296 c 128,-1,11
 861 352 861 352 885 469 c 1,12,-1
 1012 1120 l 1,13,-1
 1372 1120 l 1,14,-1
 1227 371 l 2,15,16
 1223 350 1223 350 1221 332.5 c 128,-1,17
 1219 315 1219 315 1219 301 c 0,18,19
 1219 272 1219 272 1232.5 258 c 128,-1,20
 1246 244 1246 244 1274 244 c 0,21,22
 1291 244 1291 244 1310.5 249.5 c 128,-1,23
 1330 255 1330 255 1350 266 c 1,24,-1
 1300 16 l 1,25,26
 1243 -7 1243 -7 1194 -18 c 128,-1,27
 1145 -29 1145 -29 1100 -29 c 0,28,29
 1012 -29 1012 -29 962.5 9 c 128,-1,30
 913 47 913 47 893 129 c 1,31,32
 831 50 831 50 755.5 10.5 c 128,-1,33
 680 -29 680 -29 592 -29 c 0,34,35
 518 -29 518 -29 471.5 -5.5 c 128,-1,36
 425 18 425 18 403 66 c 1,37,-1
 307 -428 l 1,38,-1
 -55 -428 l 1,0,-1
EndSplineSet
EndChar
StartChar: paragraph
Encoding: 182 182 182
Width: 1303
Flags: W
Fore
715 1493 m 2,0,-1
 1235 1493 l 1,1,-1
 907 -197 l 1,2,-1
 717 -197 l 1,3,-1
 1016 1346 l 1,4,-1
 827 1346 l 1,5,-1
 526 -197 l 1,6,-1
 338 -197 l 1,7,-1
 502 649 l 1,8,9
 334 669 334 669 243 761 c 128,-1,10
 152 853 152 853 152 1001 c 0,11,12
 152 1216 152 1216 308.5 1354.5 c 128,-1,13
 465 1493 465 1493 715 1493 c 2,0,-1
EndSplineSet
EndChar
StartChar: periodcentered
Encoding: 183 183 183
Width: 778
Flags: W
Fore
248 905 m 1,0,-1
 608 905 l 1,1,-1
 532 518 l 1,2,-1
 172 518 l 1,3,-1
 248 905 l 1,0,-1
EndSplineSet
EndChar
StartChar: cedilla
Encoding: 184 184 184
Width: 1024
Flags: W
Fore
459 0 m 1,0,1
 496 -52 496 -52 513 -96 c 128,-1,2
 530 -140 530 -140 530 -182 c 0,3,4
 530 -286 530 -286 454.5 -343.5 c 128,-1,5
 379 -401 379 -401 242 -401 c 0,6,7
 193 -401 193 -401 144.5 -394.5 c 128,-1,8
 96 -388 96 -388 45 -375 c 1,9,-1
 74 -219 l 1,10,11
 114 -236 114 -236 154.5 -245 c 128,-1,12
 195 -254 195 -254 233 -254 c 0,13,14
 299 -254 299 -254 337 -225.5 c 128,-1,15
 375 -197 375 -197 375 -150 c 0,16,17
 375 -124 375 -124 361.5 -89.5 c 128,-1,18
 348 -55 348 -55 317 0 c 1,19,-1
 459 0 l 1,0,1
EndSplineSet
Ligature: 0 1 'liga' space uni0327
EndChar
StartChar: onesuperior
Encoding: 185 185 185
Width: 897
Flags: W
Fore
168 825 m 1,0,-1
 373 825 l 1,1,-1
 475 1346 l 1,2,-1
 242 1294 l 1,3,-1
 272 1454 l 1,4,-1
 516 1503 l 1,5,-1
 735 1503 l 1,6,-1
 602 825 l 1,7,-1
 809 825 l 1,8,-1
 778 668 l 1,9,-1
 137 668 l 1,10,-1
 168 825 l 1,0,-1
EndSplineSet
EndChar
StartChar: ordmasculine
Encoding: 186 186 186
Width: 1155
Flags: W
Fore
719 1520 m 0,0,1
 902 1520 902 1520 1009 1429.5 c 128,-1,2
 1116 1339 1116 1339 1116 1186 c 0,3,4
 1116 967 1116 967 968.5 832.5 c 128,-1,5
 821 698 821 698 578 698 c 0,6,7
 396 698 396 698 287 789.5 c 128,-1,8
 178 881 178 881 178 1032 c 0,9,10
 178 1249 178 1249 327 1384.5 c 128,-1,11
 476 1520 476 1520 719 1520 c 0,0,1
133 573 m 1,12,-1
 956 573 l 1,13,-1
 918 373 l 1,14,-1
 94 373 l 1,15,-1
 133 573 l 1,12,-1
694 1350 m 0,16,17
 595 1350 595 1350 530 1257.5 c 128,-1,18
 465 1165 465 1165 465 1024 c 0,19,20
 465 948 465 948 500 908 c 128,-1,21
 535 868 535 868 602 868 c 0,22,23
 701 868 701 868 766 960 c 128,-1,24
 831 1052 831 1052 831 1194 c 0,25,26
 831 1269 831 1269 795.5 1309.5 c 128,-1,27
 760 1350 760 1350 694 1350 c 0,16,17
EndSplineSet
EndChar
StartChar: guillemotright
Encoding: 187 187 187
Width: 1331
Flags: W
Fore
117 135 m 1,0,-1
 166 389 l 1,1,-1
 510 618 l 1,2,-1
 254 840 l 1,3,-1
 297 1063 l 1,4,-1
 717 692 l 1,5,-1
 682 506 l 1,6,-1
 117 135 l 1,0,-1
606 135 m 1,7,-1
 655 389 l 1,8,-1
 999 618 l 1,9,-1
 741 840 l 1,10,-1
 786 1063 l 1,11,-1
 1206 692 l 1,12,-1
 1171 506 l 1,13,-1
 606 135 l 1,7,-1
EndSplineSet
EndChar
StartChar: questiondown
Encoding: 191 191 191
Width: 1188
Flags: W
Fore
541 989 m 1,0,-1
 901 989 l 1,1,-1
 891 938 l 1,2,3
 876 858 876 858 833 796.5 c 128,-1,4
 790 735 790 735 659 633 c 1,5,-1
 584 573 l 1,6,7
 504 512 504 512 469 460 c 128,-1,8
 434 408 434 408 434 354 c 0,9,10
 434 297 434 297 474 266.5 c 128,-1,11
 514 236 514 236 590 236 c 0,12,13
 670 236 670 236 771.5 270 c 128,-1,14
 873 304 873 304 987 369 c 1,15,-1
 926 55 l 1,16,17
 799 13 799 13 693.5 -7 c 128,-1,18
 588 -27 588 -27 492 -27 c 0,19,20
 297 -27 297 -27 186.5 58.5 c 128,-1,21
 76 144 76 144 76 293 c 0,22,23
 76 412 76 412 129 506 c 128,-1,24
 182 600 182 600 309 702 c 2,25,-1
 385 762 l 2,26,27
 468 827 468 827 496 864.5 c 128,-1,28
 524 902 524 902 532 944 c 1,29,-1
 541 989 l 1,0,-1
930 1137 m 1,30,-1
 569 1137 l 1,31,-1
 639 1493 l 1,32,-1
 999 1493 l 1,33,-1
 930 1137 l 1,30,-1
EndSplineSet
EndChar
StartChar: Aring
Encoding: 197 197 197
Width: 1585
Flags: W
Fore
795 1616 m 0,0,1
 795 1562 795 1562 833.5 1523.5 c 128,-1,2
 872 1485 872 1485 926 1485 c 0,3,4
 980 1485 980 1485 1018.5 1523.5 c 128,-1,5
 1057 1562 1057 1562 1057 1616 c 0,6,7
 1057 1670 1057 1670 1018 1708.5 c 128,-1,8
 979 1747 979 1747 926 1747 c 0,9,10
 872 1747 872 1747 833.5 1708.5 c 128,-1,11
 795 1670 795 1670 795 1616 c 0,0,1
1155 1456 m 1,12,-1
 1415 0 l 1,13,-1
 1049 0 l 1,14,-1
 1006 272 l 1,15,-1
 410 272 l 1,16,-1
 262 0 l 1,17,-1
 -133 0 l 1,18,-1
 692 1458 l 1,19,20
 666 1495 666 1495 653.5 1533.5 c 128,-1,21
 641 1572 641 1572 641 1616 c 0,22,23
 641 1733 641 1733 724.5 1817 c 128,-1,24
 808 1901 808 1901 926 1901 c 0,25,26
 1043 1901 1043 1901 1126.5 1817 c 128,-1,27
 1210 1733 1210 1733 1210 1616 c 0,28,29
 1210 1568 1210 1568 1197 1529.5 c 128,-1,30
 1184 1491 1184 1491 1155 1456 c 1,12,-1
555 543 m 1,31,-1
 956 543 l 1,32,-1
 866 1118 l 1,33,-1
 555 543 l 1,31,-1
EndSplineSet
Ligature: 0 0 'liga' A uni030A
EndChar
StartChar: AE
Encoding: 198 198 198
Width: 2222
Flags: W
Fore
985 1237 m 1,0,-1
 610 627 l 1,1,-1
 987 627 l 1,2,-1
 1106 1237 l 1,3,-1
 985 1237 l 1,0,-1
774 1493 m 1,4,-1
 2195 1493 l 1,5,-1
 2138 1202 l 1,6,-1
 1485 1202 l 1,7,-1
 1432 924 l 1,8,-1
 2046 924 l 1,9,-1
 1989 633 l 1,10,-1
 1374 633 l 1,11,-1
 1309 291 l 1,12,-1
 1982 291 l 1,13,-1
 1927 0 l 1,14,-1
 866 0 l 1,15,-1
 934 350 l 1,16,-1
 442 350 l 1,17,-1
 225 0 l 1,18,-1
 -160 0 l 1,19,-1
 774 1493 l 1,4,-1
EndSplineSet
KernsSLIFO: 45 -36 2 0
EndChar
StartChar: Eth
Encoding: 208 208 208
Width: 1731
Flags: W
Fore
696 1202 m 1,0,-1
 639 903 l 1,1,-1
 885 903 l 1,2,-1
 834 643 l 1,3,-1
 588 643 l 1,4,-1
 518 291 l 1,5,-1
 655 291 l 2,6,7
 926 291 926 291 1083.5 442.5 c 128,-1,8
 1241 594 1241 594 1241 850 c 0,9,10
 1241 1024 1241 1024 1137.5 1113 c 128,-1,11
 1034 1202 1034 1202 831 1202 c 2,12,-1
 696 1202 l 1,0,-1
367 1493 m 1,13,-1
 772 1493 l 2,14,15
 1062 1493 1062 1493 1207 1458.5 c 128,-1,16
 1352 1424 1352 1424 1448 1343 c 0,17,18
 1545 1262 1545 1262 1595 1146 c 128,-1,19
 1645 1030 1645 1030 1645 885 c 0,20,21
 1645 684 1645 684 1560.5 504 c 128,-1,22
 1476 324 1476 324 1325 201 c 0,23,24
 1193 92 1193 92 1018.5 46 c 128,-1,25
 844 0 844 0 481 0 c 2,26,-1
 76 0 l 1,27,-1
 201 643 l 1,28,-1
 -4 643 l 1,29,-1
 47 903 l 1,30,-1
 252 903 l 1,31,-1
 367 1493 l 1,13,-1
EndSplineSet
KernsSLIFO: 7922 -159 2 0 562 -159 2 0 374 -159 2 0 221 -159 2 0 8222 -36 2 0 8218 -36 2 0 376 -159 2 0 89 -159 2 0 45 38 2 0
EndChar
StartChar: multiply
Encoding: 215 215 215
Width: 1716
Flags: W
Fore
1460 1075 m 1,0,-1
 1026 641 l 1,1,-1
 1460 209 l 1,2,-1
 1292 41 l 1,3,-1
 858 473 l 1,4,-1
 424 41 l 1,5,-1
 256 209 l 1,6,-1
 690 641 l 1,7,-1
 256 1075 l 1,8,-1
 424 1243 l 1,9,-1
 858 809 l 1,10,-1
 1292 1243 l 1,11,-1
 1460 1075 l 1,0,-1
EndSplineSet
EndChar
StartChar: Oslash
Encoding: 216 216 216
Width: 1741
Flags: W
AnchorPoint: "above" 1057 1520 basechar 0
Fore
1196 1128 m 1,0,1
 1156 1185 1156 1185 1095 1213 c 128,-1,2
 1034 1241 1034 1241 952 1241 c 0,3,4
 750 1241 750 1241 615.5 1062.5 c 128,-1,5
 481 884 481 884 481 612 c 0,6,7
 481 590 481 590 485 538 c 0,8,9
 485 532 l 1,10,-1
 1196 1128 l 1,0,1
158 258 m 1,11,12
 116 332 116 332 95 410.5 c 128,-1,13
 74 489 74 489 74 569 c 0,14,15
 74 752 74 752 129 914 c 128,-1,16
 184 1076 184 1076 291 1206 c 0,17,18
 420 1365 420 1365 596.5 1442.5 c 128,-1,19
 773 1520 773 1520 1006 1520 c 0,20,21
 1154 1520 1154 1520 1270.5 1481 c 128,-1,22
 1387 1442 1387 1442 1475 1364 c 1,23,-1
 1733 1579 l 1,24,-1
 1835 1456 l 1,25,-1
 1577 1243 l 1,26,27
 1622 1167 1622 1167 1644.5 1086 c 128,-1,28
 1667 1005 1667 1005 1667 920 c 0,29,30
 1667 738 1667 738 1611.5 576 c 128,-1,31
 1556 414 1556 414 1450 285 c 0,32,33
 1320 127 1320 127 1142 49 c 128,-1,34
 964 -29 964 -29 733 -29 c 0,35,36
 586 -29 586 -29 468 12 c 128,-1,37
 350 53 350 53 258 135 c 1,38,-1
 6 -78 l 1,39,-1
 -96 45 l 1,40,-1
 158 258 l 1,11,12
539 371 m 1,41,42
 578 312 578 312 639 281 c 128,-1,43
 700 250 700 250 778 250 c 0,44,45
 893 250 893 250 982.5 298.5 c 128,-1,46
 1072 347 1072 347 1135 442 c 0,47,48
 1195 534 1195 534 1228.5 648.5 c 128,-1,49
 1262 763 1262 763 1262 879 c 0,50,51
 1262 904 1262 904 1255 957 c 0,52,53
 1254 965 1254 965 1253 969 c 1,54,-1
 539 371 l 1,41,42
EndSplineSet
KernsSLIFO: 221 -36 2 0 193 -36 2 0 194 -36 2 0 376 -36 2 0 195 -36 2 0 192 -36 2 0 196 -36 2 0 89 -36 2 0 88 -73 2 0 86 -36 2 0 65 -36 2 0 46 -45 2 0 45 38 2 0 44 -45 2 0
EndChar
StartChar: Thorn
Encoding: 222 222 222
Width: 1520
Flags: W
Fore
334 1493 m 1,0,-1
 719 1493 l 1,1,-1
 676 1270 l 1,2,-1
 922 1270 l 2,3,4
 1157 1270 1157 1270 1290 1162.5 c 128,-1,5
 1423 1055 1423 1055 1423 864 c 0,6,7
 1423 747 1423 747 1379.5 642.5 c 128,-1,8
 1336 538 1336 538 1253 459 c 0,9,10
 1164 373 1164 373 1039.5 334 c 128,-1,11
 915 295 915 295 731 295 c 2,12,-1
 485 295 l 1,13,-1
 428 0 l 1,14,-1
 43 0 l 1,15,-1
 334 1493 l 1,0,-1
621 993 m 1,16,-1
 541 573 l 1,17,-1
 745 573 l 2,18,19
 881 573 881 573 953.5 638 c 128,-1,20
 1026 703 1026 703 1026 825 c 0,21,22
 1026 907 1026 907 975.5 950 c 128,-1,23
 925 993 925 993 827 993 c 2,24,-1
 621 993 l 1,16,-1
EndSplineSet
EndChar
StartChar: germandbls
Encoding: 223 223 223
Width: 1473
Flags: W
Fore
279 1114 m 1,0,1
 321 1338 321 1338 475.5 1447 c 128,-1,2
 630 1556 630 1556 903 1556 c 0,3,4
 1129 1556 1129 1556 1246.5 1468 c 128,-1,5
 1364 1380 1364 1380 1364 1210 c 0,6,7
 1364 1190 1364 1190 1361.5 1166 c 128,-1,8
 1359 1142 1359 1142 1354 1115 c 1,9,-1
 1339 1042 l 1,10,11
 1188 1037 1188 1037 1099 990.5 c 128,-1,12
 1010 944 1010 944 1010 872 c 0,13,14
 1010 817 1010 817 1112 745 c 0,15,16
 1121 739 1121 739 1127 735 c 2,17,-1
 1188 692 l 2,18,19
 1272 633 1272 633 1311 563.5 c 128,-1,20
 1350 494 1350 494 1350 403 c 0,21,22
 1350 210 1350 210 1211 90.5 c 128,-1,23
 1072 -29 1072 -29 844 -29 c 0,24,25
 766 -29 766 -29 690.5 -16.5 c 128,-1,26
 615 -4 615 -4 541 20 c 1,27,-1
 590 264 l 1,28,29
 646 237 646 237 701.5 223 c 128,-1,30
 757 209 757 209 809 209 c 0,31,32
 891 209 891 209 941 247 c 128,-1,33
 991 285 991 285 991 346 c 0,34,35
 991 386 991 386 968 418.5 c 128,-1,36
 945 451 945 451 868 506 c 2,37,-1
 807 549 l 2,38,39
 740 596 740 596 710 646.5 c 128,-1,40
 680 697 680 697 680 760 c 0,41,42
 680 898 680 898 771.5 997 c 128,-1,43
 863 1096 863 1096 1036 1145 c 1,44,45
 1037 1151 1037 1151 1037.5 1159 c 128,-1,46
 1038 1167 1038 1167 1038 1182 c 0,47,48
 1038 1249 1038 1249 997 1284 c 128,-1,49
 956 1319 956 1319 877 1319 c 0,50,51
 775 1319 775 1319 716.5 1265.5 c 128,-1,52
 658 1212 658 1212 637 1100 c 1,53,-1
 422 0 l 1,54,-1
 63 0 l 1,55,-1
 279 1114 l 1,0,1
EndSplineSet
EndChar
StartChar: ae
Encoding: 230 230 230
Width: 2146
Flags: W
AnchorPoint: "above" 1177.3 1147 basechar 0
AnchorPoint: "below" 954.342 0 basechar 0
Fore
674 504 m 2,0,1
 540 504 540 504 471.5 462.5 c 128,-1,2
 403 421 403 421 403 340 c 0,3,4
 403 279 403 279 443.5 244 c 128,-1,5
 484 209 484 209 555 209 c 0,6,7
 665 209 665 209 739 275.5 c 128,-1,8
 813 342 813 342 838 463 c 1,9,-1
 846 504 l 1,10,-1
 674 504 l 2,0,1
291 1090 m 1,11,12
 408 1118 408 1118 519.5 1132.5 c 128,-1,13
 631 1147 631 1147 735 1147 c 0,14,15
 884 1147 884 1147 982 1110.5 c 128,-1,16
 1080 1074 1080 1074 1137 997 c 1,17,18
 1232 1074 1232 1074 1338.5 1110.5 c 128,-1,19
 1445 1147 1445 1147 1575 1147 c 0,20,21
 1798 1147 1798 1147 1931 1025 c 128,-1,22
 2064 903 2064 903 2064 702 c 0,23,24
 2064 657 2064 657 2059 611 c 128,-1,25
 2054 565 2054 565 2044 518 c 1,26,-1
 2030 461 l 1,27,-1
 1194 461 l 1,28,29
 1194 455 1194 455 1193 443.5 c 128,-1,30
 1192 432 1192 432 1192 426 c 0,31,32
 1192 317 1192 317 1257.5 263 c 128,-1,33
 1323 209 1323 209 1454 209 c 0,34,35
 1566 209 1566 209 1690.5 242.5 c 128,-1,36
 1815 276 1815 276 1954 344 c 1,37,-1
 1901 66 l 1,38,39
 1770 18 1770 18 1639.5 -5.5 c 128,-1,40
 1509 -29 1509 -29 1374 -29 c 0,41,42
 1201 -29 1201 -29 1083 22.5 c 128,-1,43
 965 74 965 74 899 178 c 1,44,45
 782 73 782 73 658.5 22 c 128,-1,46
 535 -29 535 -29 397 -29 c 0,47,48
 227 -29 227 -29 131 52 c 128,-1,49
 35 133 35 133 35 274 c 0,50,51
 35 490 35 490 200.5 603.5 c 128,-1,52
 366 717 366 717 682 717 c 2,53,-1
 887 717 l 1,54,-1
 893 746 l 1,55,56
 896 759 896 759 896.5 765 c 128,-1,57
 897 771 897 771 897 776 c 0,58,59
 897 842 897 842 835 875.5 c 128,-1,60
 773 909 773 909 653 909 c 0,61,62
 539 909 539 909 435.5 886 c 128,-1,63
 332 863 332 863 238 817 c 1,64,-1
 291 1090 l 1,11,12
1706 682 m 1,65,66
 1709 695 1709 695 1710.5 708.5 c 128,-1,67
 1712 722 1712 722 1712 735 c 0,68,69
 1712 815 1712 815 1663.5 862 c 128,-1,70
 1615 909 1615 909 1534 909 c 0,71,72
 1429 909 1429 909 1354.5 851 c 128,-1,73
 1280 793 1280 793 1243 682 c 1,74,-1
 1706 682 l 1,65,66
EndSplineSet
EndChar
StartChar: eth
Encoding: 240 240 240
Width: 1407
Flags: W
AnchorPoint: "below" 556.591 0 basechar 0
AnchorPoint: "above" 852.049 1520 basechar 0
Fore
958 743 m 1,0,1
 906 770 906 770 855 783.5 c 128,-1,2
 804 797 804 797 752 797 c 0,3,4
 612 797 612 797 530.5 703 c 128,-1,5
 449 609 449 609 449 451 c 0,6,7
 449 342 449 342 499 284.5 c 128,-1,8
 549 227 549 227 643 227 c 0,9,10
 783 227 783 227 873 353.5 c 128,-1,11
 963 480 963 480 963 678 c 0,12,13
 963 691 963 691 959 731 c 0,14,15
 959 738 959 738 958 743 c 1,0,1
1204 1100 m 2,16,17
 1268 1008 1268 1008 1300.5 902 c 128,-1,18
 1333 796 1333 796 1333 680 c 0,19,20
 1333 550 1333 550 1287.5 428.5 c 128,-1,21
 1242 307 1242 307 1155 207 c 0,22,23
 1054 91 1054 91 914.5 31 c 128,-1,24
 775 -29 775 -29 604 -29 c 0,25,26
 363 -29 363 -29 218.5 96 c 128,-1,27
 74 221 74 221 74 426 c 0,28,29
 74 706 74 706 256 880.5 c 128,-1,30
 438 1055 438 1055 731 1055 c 0,31,32
 780 1055 780 1055 823.5 1048 c 128,-1,33
 867 1041 867 1041 903 1028 c 1,34,-1
 752 1243 l 1,35,-1
 367 1135 l 1,36,-1
 332 1264 l 1,37,-1
 672 1358 l 1,38,-1
 535 1556 l 1,39,-1
 887 1556 l 1,40,-1
 969 1440 l 1,41,-1
 1354 1546 l 1,42,-1
 1389 1419 l 1,43,-1
 1049 1325 l 1,44,-1
 1204 1100 l 2,16,17
EndSplineSet
EndChar
StartChar: divide
Encoding: 247 247 247
Width: 1716
Flags: W
Fore
705 395 m 1,0,-1
 1012 395 l 1,1,-1
 1012 86 l 1,2,-1
 705 86 l 1,3,-1
 705 395 l 1,0,-1
705 1198 m 1,4,-1
 1012 1198 l 1,5,-1
 1012 889 l 1,6,-1
 705 889 l 1,7,-1
 705 1198 l 1,4,-1
217 760 m 1,8,-1
 1499 760 l 1,9,-1
 1499 524 l 1,10,-1
 217 524 l 1,11,-1
 217 760 l 1,8,-1
EndSplineSet
EndChar
StartChar: oslash
Encoding: 248 248 248
Width: 1407
Flags: W
AnchorPoint: "above" 819.004 1147 basechar 0
AnchorPoint: "below" 596.05 0 basechar 0
Fore
905 842 m 1,0,1
 882 866 882 866 847.5 878.5 c 128,-1,2
 813 891 813 891 768 891 c 0,3,4
 628 891 628 891 543.5 771.5 c 128,-1,5
 459 652 459 652 449 438 c 1,6,-1
 905 842 l 1,0,1
152 174 m 1,7,8
 113 233 113 233 93.5 301.5 c 128,-1,9
 74 370 74 370 74 446 c 0,10,11
 74 572 74 572 119.5 691.5 c 128,-1,12
 165 811 165 811 252 911 c 0,13,14
 352 1028 352 1028 490.5 1087.5 c 128,-1,15
 629 1147 629 1147 801 1147 c 0,16,17
 905 1147 905 1147 991 1124 c 128,-1,18
 1077 1101 1077 1101 1145 1055 c 1,19,-1
 1337 1223 l 1,20,-1
 1434 1112 l 1,21,-1
 1251 950 l 1,22,23
 1292 891 1292 891 1312.5 822 c 128,-1,24
 1333 753 1333 753 1333 674 c 0,25,26
 1333 547 1333 547 1288 427.5 c 128,-1,27
 1243 308 1243 308 1157 209 c 0,28,29
 1056 93 1056 93 915.5 32 c 128,-1,30
 775 -29 775 -29 606 -29 c 0,31,32
 497 -29 497 -29 409.5 -4.5 c 128,-1,33
 322 20 322 20 254 70 c 1,34,-1
 61 -102 l 1,35,-1
 -35 10 l 1,36,-1
 152 174 l 1,7,8
498 283 m 1,37,38
 523 255 523 255 557.5 241 c 128,-1,39
 592 227 592 227 639 227 c 0,40,41
 780 227 780 227 865.5 351 c 128,-1,42
 951 475 951 475 958 692 c 1,43,-1
 498 283 l 1,37,38
EndSplineSet
EndChar
StartChar: thorn
Encoding: 254 254 254
Width: 1466
Flags: W
Fore
455 162 m 1,0,-1
 340 -426 l 1,1,-1
 -20 -426 l 1,2,-1
 365 1556 l 1,3,-1
 725 1556 l 1,4,-1
 608 956 l 1,5,6
 690 1054 690 1054 780 1100.5 c 128,-1,7
 870 1147 870 1147 977 1147 c 0,8,9
 1166 1147 1166 1147 1276 1027 c 128,-1,10
 1386 907 1386 907 1386 700 c 0,11,12
 1386 571 1386 571 1347.5 449 c 128,-1,13
 1309 327 1309 327 1237 227 c 0,14,15
 1146 101 1146 101 1031.5 36 c 128,-1,16
 917 -29 917 -29 786 -29 c 0,17,18
 671 -29 671 -29 590.5 17.5 c 128,-1,19
 510 64 510 64 455 162 c 1,0,-1
831 887 m 0,20,21
 693 887 693 887 605.5 759.5 c 128,-1,22
 518 632 518 632 518 428 c 0,23,24
 518 336 518 336 567.5 283.5 c 128,-1,25
 617 231 617 231 705 231 c 0,26,27
 840 231 840 231 928 356.5 c 128,-1,28
 1016 482 1016 482 1016 678 c 0,29,30
 1016 780 1016 780 968.5 833.5 c 128,-1,31
 921 887 921 887 831 887 c 0,20,21
EndSplineSet
EndChar
StartChar: dcroat
Encoding: 273 273 273
Width: 1466
Flags: W
Fore
629 231 m 0,0,1
 767 231 767 231 853.5 358 c 128,-1,2
 940 485 940 485 940 690 c 0,3,4
 940 783 940 783 891.5 835 c 128,-1,5
 843 887 843 887 756 887 c 0,6,7
 620 887 620 887 532 761.5 c 128,-1,8
 444 636 444 636 444 440 c 0,9,10
 444 338 444 338 491.5 284.5 c 128,-1,11
 539 231 539 231 629 231 c 0,0,1
1006 956 m 1,12,-1
 1063 1251 l 1,13,-1
 668 1251 l 1,14,-1
 705 1440 l 1,15,-1
 1100 1440 l 1,16,-1
 1122 1556 l 1,17,-1
 1483 1556 l 1,18,-1
 1460 1440 l 1,19,-1
 1673 1440 l 1,20,-1
 1636 1251 l 1,21,-1
 1423 1251 l 1,22,-1
 1180 0 l 1,23,-1
 819 0 l 1,24,-1
 852 162 l 1,25,26
 770 64 770 64 680 17.5 c 128,-1,27
 590 -29 590 -29 483 -29 c 0,28,29
 294 -29 294 -29 184 91 c 128,-1,30
 74 211 74 211 74 418 c 0,31,32
 74 547 74 547 112.5 669 c 128,-1,33
 151 791 151 791 223 891 c 0,34,35
 314 1017 314 1017 428.5 1082 c 128,-1,36
 543 1147 543 1147 674 1147 c 0,37,38
 789 1147 789 1147 869.5 1100.5 c 128,-1,39
 950 1054 950 1054 1006 956 c 1,12,-1
EndSplineSet
EndChar
StartChar: Hbar
Encoding: 294 294 294
Width: 1994
Flags: W
AnchorPoint: "above" 1181 1520 basechar 0
Fore
473 1493 m 1,0,-1
 858 1493 l 1,1,-1
 822 1306 l 1,2,-1
 1390 1306 l 1,3,-1
 1426 1493 l 1,4,-1
 1811 1493 l 1,5,-1
 1775 1306 l 1,6,-1
 1915 1306 l 1,7,-1
 1877 1112 l 1,8,-1
 1737 1112 l 1,9,-1
 1521 0 l 1,10,-1
 1136 0 l 1,11,-1
 1259 633 l 1,12,-1
 691 633 l 1,13,-1
 568 0 l 1,14,-1
 183 0 l 1,15,-1
 399 1112 l 1,16,-1
 259 1112 l 1,17,-1
 297 1306 l 1,18,-1
 437 1306 l 1,19,-1
 473 1493 l 1,0,-1
784 1112 m 1,20,-1
 748 924 l 1,21,-1
 1316 924 l 1,22,-1
 1352 1112 l 1,23,-1
 784 1112 l 1,20,-1
EndSplineSet
EndChar
StartChar: hbar
Encoding: 295 295 295
Width: 1618
Flags: W
AnchorPoint: "above" 677 1520 basechar 0
Fore
1433.5 682 m 2,0,-1
 1301 0 l 1,1,-1
 941 0 l 1,2,-1
 1042 520 l 18,3,4
 1069.5 662 1069.5 662 1074.5 722 c 0,5,6
 1075.5 737 1075.5 737 1075.5 750 c 0,7,8
 1075.5 784 1075.5 784 1067.5 803 c 0,9,10
 1053.5 838 1053.5 838 1021.5 857.5 c 0,11,12
 990 877 990 877 943 877 c 0,13,14
 831 877 831 877 750.5 790.5 c 128,-1,15
 670 704 670 704 640 551 c 9,16,-1
 533 0 l 1,17,-1
 175 0 l 1,18,-1
 419 1255 l 1,19,-1
 259 1255 l 1,20,-1
 296 1449 l 1,21,-1
 456 1449 l 1,22,-1
 477 1556 l 1,23,-1
 835 1556 l 1,24,-1
 814 1449 l 1,25,-1
 1177 1449 l 1,26,-1
 1140 1255 l 1,27,-1
 777 1255 l 1,28,-1
 719 956 l 1,29,30
 819 1054 819 1054 918.5 1100.5 c 0,31,32
 1018.5 1147 1018.5 1147 1128.5 1147 c 0,33,34
 1322.5 1147 1322.5 1147 1400 1028 c 0,35,36
 1449.5 952 1449.5 952 1449.5 832.5 c 0,37,38
 1449.5 764.5 1449.5 764.5 1433.5 682 c 2,0,-1
EndSplineSet
EndChar
StartChar: dotlessi
Encoding: 305 305 305
Width: 702
Flags: W
AnchorPoint: "below" 241.147 0 basechar 0
AnchorPoint: "above" 463 1147 basechar 0
Fore
281 1120 m 1,0,-1
 641 1120 l 1,1,-1
 422 0 l 1,2,-1
 63 0 l 1,3,-1
 281 1120 l 1,0,-1
EndSplineSet
EndChar
StartChar: kgreenlandic
Encoding: 312 312 312
Width: 1362
Flags: W
Fore
281 1120 m 1,0,-1
 639 1120 l 1,1,-1
 559 709 l 1,2,-1
 1051 1120 l 1,3,-1
 1467 1120 l 1,4,-1
 820 606 l 1,5,-1
 1292 0 l 1,6,-1
 858 0 l 1,7,-1
 512 467 l 1,8,-1
 421 0 l 1,9,-1
 63 0 l 1,10,-1
 281 1120 l 1,0,-1
EndSplineSet
EndChar
StartChar: Lslash
Encoding: 321 321 321
Width: 1352
Flags: W
Fore
410 1493 m 1,0,-1
 795 1493 l 1,1,-1
 694 977 l 1,2,-1
 1034 1128 l 1,3,-1
 1139 918 l 1,4,-1
 639 698 l 1,5,-1
 561 291 l 1,6,-1
 1235 291 l 1,7,-1
 1180 0 l 1,8,-1
 119 0 l 1,9,-1
 217 502 l 1,10,-1
 57 428 l 1,11,-1
 -47 643 l 1,12,-1
 270 778 l 1,13,-1
 410 1493 l 1,0,-1
EndSplineSet
KernsSLIFO: 366 -73 2 0 356 -339 2 0 253 -253 2 0 221 -319 2 0 217 -73 2 0 219 -73 2 0 218 -73 2 0 210 -73 2 0 212 -73 2 0 211 -73 2 0 376 -319 2 0 255 -253 2 0 8217 -264 2 0 8221 -264 2 0 338 -73 2 0 213 -73 2 0 216 -73 2 0 220 -73 2 0 214 -73 2 0 121 -253 2 0 89 -319 2 0 87 -159 2 0 86 -282 2 0 85 -73 2 0 84 -339 2 0 79 -73 2 0
EndChar
StartChar: lslash
Encoding: 322 322 322
Width: 768
Flags: W
Fore
408 1556 m 1,0,-1
 768 1556 l 1,1,-1
 666 1040 l 1,2,-1
 834 1118 l 1,3,-1
 934 915 l 1,4,-1
 614 770 l 1,5,-1
 465 0 l 1,6,-1
 104 0 l 1,7,-1
 221 598 l 1,8,-1
 82 530 l 1,9,-1
 -14 733 l 1,10,-1
 274 868 l 1,11,-1
 408 1556 l 1,0,-1
EndSplineSet
EndChar
StartChar: Eng
Encoding: 330 330 330
Width: 1714
Flags: W
AnchorPoint: "above" 1076 1520 basechar 0
Fore
354 1493 m 1,0,-1
 700 1493 l 1,1,-1
 1121 529 l 1,2,-1
 1308 1493 l 1,3,-1
 1655 1493 l 1,4,-1
 1369 20 l 2,5,6
 1325 -203 1325 -203 1192 -324 c 0,7,8
 1061 -442 1061 -442 856 -442 c 2,9,-1
 575 -442 l 1,10,-1
 620 -207 l 1,11,-1
 786 -207 l 2,12,13
 888 -207 888 -207 936 -161 c 0,14,15
 983 -115 983 -115 1009 20 c 1,16,-1
 597 964 l 1,17,-1
 410 0 l 1,18,-1
 64 0 l 1,19,-1
 354 1493 l 1,0,-1
EndSplineSet
Substitution: 0 2 'salt' Eng.alt
Substitution: 0 4 'locl' Eng.alt
Substitution: 0 2 'aalt' Eng.alt
EndChar
StartChar: eng
Encoding: 331 331 331
Width: 1458
Flags: W
Fore
1362 682 m 2,0,-1
 1233 20 l 2,1,2
 1190 -203 1190 -203 1057 -324 c 0,3,4
 926 -442 926 -442 721 -442 c 2,5,-1
 440 -442 l 1,6,-1
 485 -207 l 1,7,-1
 651 -207 l 2,8,9
 753 -207 753 -207 800 -161 c 128,-1,10
 847 -115 847 -115 873 20 c 2,11,-1
 971 522 l 2,12,13
 999 667 999 667 1004 722 c 0,14,15
 1005 736 1005 736 1005 748 c 0,16,17
 1005 784 1005 784 997 803 c 0,18,19
 982 838 982 838 950 858 c 0,20,21
 918 877 918 877 872 877 c 0,22,23
 760 877 760 877 679 790 c 0,24,25
 598 704 598 704 569 551 c 2,26,-1
 461 0 l 1,27,-1
 103 0 l 1,28,-1
 321 1120 l 1,29,-1
 679 1120 l 1,30,-1
 647 956 l 1,31,32
 747 1054 747 1054 847 1100 c 0,33,34
 947 1147 947 1147 1057 1147 c 0,35,36
 1251 1147 1251 1147 1329 1028 c 0,37,38
 1378 952 1378 952 1378 833 c 0,39,40
 1378 765 1378 765 1362 682 c 2,0,-1
EndSplineSet
EndChar
StartChar: OE
Encoding: 338 338 338
Width: 2390
Flags: W
Fore
1268 1202 m 1,0,-1
 1163 1202 l 2,1,2
 1023 1202 1023 1202 919 1178.5 c 128,-1,3
 815 1155 815 1155 739 1106 c 0,4,5
 626 1032 626 1032 557.5 907 c 128,-1,6
 489 782 489 782 489 647 c 0,7,8
 489 464 489 464 609.5 377.5 c 128,-1,9
 730 291 730 291 985 291 c 2,10,-1
 1092 291 l 1,11,-1
 1268 1202 l 1,0,-1
1235 1493 m 1,12,-1
 2363 1493 l 1,13,-1
 2306 1202 l 1,14,-1
 1655 1202 l 1,15,-1
 1599 924 l 1,16,-1
 2214 924 l 1,17,-1
 2157 633 l 1,18,-1
 1542 633 l 1,19,-1
 1477 291 l 1,20,-1
 2152 291 l 1,21,-1
 2095 0 l 1,22,-1
 936 0 l 1,23,-1
 881 0 l 2,24,25
 502 0 502 0 294 151 c 128,-1,26
 86 302 86 302 86 575 c 0,27,28
 86 817 86 817 204 1022.5 c 128,-1,29
 322 1228 322 1228 530 1350 c 1,30,31
 658 1423 658 1423 815.5 1458 c 128,-1,32
 973 1493 973 1493 1178 1493 c 2,33,-1
 1235 1493 l 1,12,-1
EndSplineSet
EndChar
StartChar: oe
Encoding: 339 339 339
Width: 2241
Flags: W
AnchorPoint: "below" 1021.34 0 basechar 0
AnchorPoint: "above" 1244.3 1147 basechar 0
Fore
1798 682 m 1,0,1
 1801 695 1801 695 1802.5 708.5 c 128,-1,2
 1804 722 1804 722 1804 735 c 0,3,4
 1804 815 1804 815 1756 862 c 128,-1,5
 1708 909 1708 909 1626 909 c 0,6,7
 1521 909 1521 909 1445.5 850.5 c 128,-1,8
 1370 792 1370 792 1333 682 c 1,9,-1
 1798 682 l 1,0,1
2136 518 m 2,10,-1
 2124 461 l 1,11,-1
 1286 461 l 1,12,13
 1286 455 1286 455 1285 443.5 c 128,-1,14
 1284 432 1284 432 1284 426 c 0,15,16
 1284 317 1284 317 1349.5 263 c 128,-1,17
 1415 209 1415 209 1546 209 c 0,18,19
 1658 209 1658 209 1784 243 c 128,-1,20
 1910 277 1910 277 2048 344 c 1,21,-1
 1993 66 l 1,22,23
 1862 18 1862 18 1732 -5.5 c 128,-1,24
 1602 -29 1602 -29 1466 -29 c 0,25,26
 1311 -29 1311 -29 1211 10 c 128,-1,27
 1111 49 1111 49 1053 131 c 1,28,29
 963 49 963 49 856 10 c 128,-1,30
 749 -29 749 -29 612 -29 c 0,31,32
 361 -29 361 -29 217.5 97.5 c 128,-1,33
 74 224 74 224 74 444 c 0,34,35
 74 571 74 571 119.5 691.5 c 128,-1,36
 165 812 165 812 250 911 c 0,37,38
 351 1028 351 1028 491 1087.5 c 128,-1,39
 631 1147 631 1147 803 1147 c 0,40,41
 943 1147 943 1147 1044.5 1106.5 c 128,-1,42
 1146 1066 1146 1066 1210 985 c 1,43,44
 1304 1066 1304 1066 1418 1106.5 c 128,-1,45
 1532 1147 1532 1147 1669 1147 c 0,46,47
 1892 1147 1892 1147 2025.5 1025 c 128,-1,48
 2159 903 2159 903 2159 702 c 0,49,50
 2159 662 2159 662 2153 615.5 c 128,-1,51
 2147 569 2147 569 2136 518 c 2,10,-1
768 891 m 0,52,53
 629 891 629 891 539 765 c 128,-1,54
 449 639 449 639 449 444 c 0,55,56
 449 338 449 338 497.5 282.5 c 128,-1,57
 546 227 546 227 639 227 c 0,58,59
 778 227 778 227 868 353.5 c 128,-1,60
 958 480 958 480 958 676 c 0,61,62
 958 781 958 781 909.5 836 c 128,-1,63
 861 891 861 891 768 891 c 0,52,53
EndSplineSet
EndChar
StartChar: Tbar
Encoding: 358 358 358
Width: 1397
Flags: W
TeX: 0 0 0 0
Fore
155 1493 m 1,0,-1
 1531 1493 l 1,1,-1
 1475 1202 l 1,2,-1
 980 1202 l 1,3,-1
 881 697 l 1,4,-1
 1128 697 l 1,5,-1
 1091 505 l 1,6,-1
 844 505 l 1,7,-1
 746 0 l 1,8,-1
 361 0 l 1,9,-1
 459 505 l 1,10,-1
 212 505 l 1,11,-1
 249 697 l 1,12,-1
 496 697 l 1,13,-1
 595 1202 l 1,14,-1
 99 1202 l 1,15,-1
 155 1493 l 1,0,-1
EndSplineSet
EndChar
StartChar: tbar
Encoding: 359 359 359
Width: 979
Flags: W
TeX: 0 0 0 0
Fore
703 1438 m 1,0,-1
 641 1120 l 1,1,-1
 1010 1120 l 1,2,-1
 960 864 l 1,3,-1
 591 864 l 1,4,-1
 564 722 l 1,5,-1
 748 722 l 1,6,-1
 710 530 l 1,7,-1
 526 530 l 1,8,-1
 499 389 l 2,9,10
 493 360 493 360 493 338 c 0,11,12
 493 301 493 301 509 284 c 0,13,14
 535 256 535 256 627 256 c 2,15,-1
 811 256 l 1,16,-1
 761 0 l 1,17,-1
 454 0 l 2,18,19
 242 0 242 0 171 88 c 0,20,21
 126 145 126 145 126 250 c 0,22,23
 126 311 126 311 141 389 c 2,24,-1
 168 530 l 1,25,-1
 -10 530 l 1,26,-1
 28 722 l 1,27,-1
 206 722 l 1,28,-1
 233 864 l 1,29,-1
 55 864 l 1,30,-1
 105 1120 l 1,31,-1
 283 1120 l 1,32,-1
 345 1438 l 1,33,-1
 703 1438 l 1,0,-1
EndSplineSet
EndChar
StartChar: longs
Encoding: 383 383 383
Width: 891
Flags: W
TeX: 0 0 0 0
Fore
471 0 m 1,0,-1
 111 0 l 1,1,-1
 279 864 l 1,2,-1
 102 864 l 1,3,-1
 152 1120 l 1,4,-1
 328 1120 l 1,5,-1
 344 1198 l 1,6,7
 381 1384 381 1384 498 1470 c 128,-1,8
 615 1556 615 1556 831 1556 c 2,9,-1
 1106 1556 l 1,10,-1
 1059 1321 l 1,11,-1
 862 1321 l 2,12,13
 787 1321 787 1321 752 1294 c 128,-1,14
 718 1266 718 1266 705 1199 c 1,15,-1
 471 0 l 1,0,-1
EndSplineSet
EndChar
StartChar: uni0180
Encoding: 384 384 384
Width: 1466
Flags: W
TeX: 117 0 0 0
AnchorPoint: "above" 503.049 1520 basechar 0
Fore
567 956 m 1,0,1
 660 1054 660 1054 760 1100 c 0,2,3
 859 1147 859 1147 976 1147 c 0,4,5
 1183 1147 1183 1147 1284 982 c 0,6,7
 1385 818 1385 818 1334 559 c 0,8,9
 1284 300 1284 300 1119 136 c 0,10,11
 954 -29 954 -29 747 -29 c 0,12,13
 630 -29 630 -29 549 18 c 0,14,15
 468 64 468 64 413 162 c 1,16,-1
 382 0 l 1,17,-1
 24 0 l 1,18,-1
 264 1237 l 1,19,-1
 110 1237 l 1,20,-1
 150 1442 l 1,21,-1
 304 1442 l 1,22,-1
 326 1556 l 1,23,-1
 684 1556 l 1,24,-1
 662 1442 l 1,25,-1
 990 1442 l 1,26,-1
 950 1237 l 1,27,-1
 622 1237 l 1,28,-1
 567 956 l 1,0,1
664 231 m 0,29,30
 779 231 779 231 856 315 c 0,31,32
 933 399 933 399 964 559 c 0,33,34
 995 719 995 719 951 803 c 0,35,36
 907 887 907 887 792 887 c 0,37,38
 677 887 677 887 599 802 c 0,39,40
 521 718 521 718 490 559 c 0,41,42
 459 400 459 400 504 316 c 0,43,44
 549 231 549 231 664 231 c 0,29,30
EndSplineSet
EndChar
StartChar: uni0181
Encoding: 385 385 385
Width: 1661
Flags: W
TeX: 117 0 0 0
AnchorPoint: "above" 1027.35 1520 basechar 0
Fore
919 915 m 2,0,1
 1010 915 1010 915 1065 955 c 0,2,3
 1119 995 1119 995 1134 1073 c 0,4,5
 1149 1150 1149 1150 1110 1190 c 0,6,7
 1071 1231 1071 1231 980 1231 c 2,8,-1
 767 1231 l 1,9,-1
 706 915 l 1,10,-1
 919 915 l 2,0,1
805 262 m 2,11,12
 921 262 921 262 989 311 c 0,13,14
 1057 360 1057 360 1076 459 c 0,15,16
 1095 556 1095 556 1046 604 c 0,17,18
 998 653 998 653 881 653 c 2,19,-1
 655 653 l 1,20,-1
 579 262 l 1,21,-1
 805 262 l 2,11,12
1267 799 m 1,22,23
 1384 763 1384 763 1433 666 c 0,24,25
 1482 569 1482 569 1455 428 c 0,26,27
 1413 212 1413 212 1246 106 c 0,28,29
 1080 -0 1080 -0 782 0 c 2,30,-1
 143 0 l 1,31,-1
 382 1231 l 1,32,33
 309 1231 309 1231 303 1230 c 0,34,35
 257 1226 257 1226 239 1210 c 0,36,37
 202 1176 202 1176 190 1126 c 0,38,39
 186 1112 186 1112 180 1079 c 1,40,-1
 -75 1079 l 1,41,-1
 -60 1156 l 2,42,43
 -34 1294 -34 1294 27 1359 c 0,44,45
 50 1383 50 1383 88 1412 c 0,46,47
 175 1475 175 1475 317 1488 c 0,48,49
 368 1493 368 1493 433 1493 c 2,50,-1
 1011 1493 l 2,51,52
 1322 1493 1322 1493 1443 1399 c 0,53,54
 1565 1305 1565 1305 1524 1098 c 0,55,56
 1503 989 1503 989 1437 912 c 0,57,58
 1371 836 1371 836 1267 799 c 1,22,23
EndSplineSet
EndChar
StartChar: uni0183
Encoding: 387 387 387
Width: 1466
Flags: W
TeX: 117 0 0 0
Fore
567 956 m 1,0,1
 660 1054 660 1054 760 1100 c 0,2,3
 859 1147 859 1147 976 1147 c 0,4,5
 1183 1147 1183 1147 1284 982 c 0,6,7
 1385 818 1385 818 1334 559 c 0,8,9
 1284 300 1284 300 1119 136 c 0,10,11
 954 -29 954 -29 747 -29 c 0,12,13
 630 -29 630 -29 549 18 c 0,14,15
 468 64 468 64 413 162 c 1,16,-1
 382 0 l 1,17,-1
 24 0 l 1,18,-1
 326 1556 l 1,19,-1
 1355 1556 l 1,20,-1
 1298 1265 l 1,21,-1
 627 1265 l 1,22,-1
 567 956 l 1,0,1
664 231 m 0,23,24
 779 231 779 231 856 315 c 0,25,26
 933 399 933 399 964 559 c 0,27,28
 995 719 995 719 951 803 c 0,29,30
 907 887 907 887 792 887 c 0,31,32
 677 887 677 887 599 802 c 0,33,34
 521 718 521 718 490 559 c 0,35,36
 459 400 459 400 504 316 c 0,37,38
 549 231 549 231 664 231 c 0,23,24
EndSplineSet
EndChar
StartChar: uni0184
Encoding: 388 388 388
Width: 1561
Flags: W
TeX: 117 0 0 0
Fore
786 262 m 2,0,1
 907 262 907 262 970 307 c 0,2,3
 1037 356 1037 356 1055 449 c 0,4,5
 1073 540 1073 540 1024 588 c 0,6,7
 980 633 980 633 858 633 c 2,8,-1
 632 633 l 1,9,-1
 560 262 l 1,10,-1
 786 262 l 2,0,1
763 0 m 10,11,-1
 124 0 l 17,12,-1
 304 924 l 1,0,0
 150 1104 l 1,0,0
 799 1493 l 25,14,-1
 689 924 l 1,17,-1
 943 924 l 2,18,19
 1226 924 1226 924 1364 807 c 0,20,21
 1489 701 1489 701 1442 461 c 24,22,23
 1396 223 1396 223 1230 117 c 0,24,25
 1046 0 1046 0 763 0 c 10,11,-1
EndSplineSet
EndChar
StartChar: uni0185
Encoding: 389 389 389
Width: 1466
Flags: W
TeX: 117 0 0 0
Fore
619 956 m 1,0,1
 712 1054 712 1054 812 1100 c 0,2,3
 911 1147 911 1147 1028 1147 c 0,4,5
 1235 1147 1235 1147 1336 982 c 0,6,7
 1437 818 1437 818 1386 559 c 0,8,9
 1336 300 1336 300 1171 136 c 0,10,11
 1006 -29 1006 -29 799 -29 c 0,12,13
 682 -29 682 -29 601 18 c 0,14,15
 520 64 520 64 465 162 c 1,16,-1
 434 0 l 1,17,-1
 76 0 l 1,18,-1
 255 924 l 1,0,0
 118 1104 l 1,19,-1
 736 1556 l 1,20,-1
 619 956 l 1,0,1
716 231 m 0,23,24
 831 231 831 231 908 315 c 0,25,26
 985 399 985 399 1016 559 c 0,27,28
 1047 719 1047 719 1003 803 c 0,29,30
 959 887 959 887 844 887 c 0,31,32
 729 887 729 887 651 802 c 0,33,34
 573 718 573 718 542 559 c 0,35,36
 511 400 511 400 556 316 c 0,37,38
 601 231 601 231 716 231 c 0,23,24
EndSplineSet
EndChar
StartChar: uni0186
Encoding: 390 390 390
Width: 1503
Flags: W
TeX: 117 0 0 0
AnchorPoint: "above" 737 1520 basechar 0
Fore
-27 82 m 1,0,-1
 35 391 l 1,1,2
 131 318 131 318 228 284 c 128,-1,3
 325 250 325 250 436 250 c 0,4,5
 667 250 667 250 823 428 c 128,-1,6
 979 606 979 606 979 873 c 0,7,8
 979 1045 979 1045 883 1143 c 128,-1,9
 787 1241 787 1241 618 1241 c 0,10,11
 517 1241 517 1241 403.5 1204.5 c 128,-1,12
 290 1168 290 1168 149 1090 c 1,13,-1
 215 1421 l 1,14,15
 353 1470 353 1470 480 1495 c 128,-1,16
 607 1520 607 1520 721 1520 c 0,17,18
 1022 1520 1022 1520 1202 1355 c 128,-1,19
 1382 1190 1382 1190 1382 918 c 0,20,21
 1382 739 1382 739 1325 580.5 c 128,-1,22
 1268 422 1268 422 1157 291 c 0,23,24
 1026 137 1026 137 841.5 54 c 128,-1,25
 657 -29 657 -29 444 -29 c 0,26,27
 328 -29 328 -29 211 -1.5 c 128,-1,28
 94 26 94 26 -27 82 c 1,0,-1
EndSplineSet
EndChar
StartChar: uni0187
Encoding: 391 391 391
Width: 1503
Flags: W
TeX: 117 0 0 0
AnchorPoint: "above" 1023.39 1520 basechar 0
Fore
1207 82 m 1,0,1
 1090 27 1090 27 970 -1 c 0,2,3
 849 -29 849 -29 724 -29 c 0,4,5
 351 -29 351 -29 174 180 c 0,6,7
 -4 388 -4 388 66 745 c 0,8,9
 135 1103 135 1103 394 1312 c 0,10,11
 652 1520 652 1520 1025 1520 c 0,12,13
 1074 1520 1074 1520 1119 1516 c 1,14,15
 1183 1665 1183 1665 1298 1754 c 0,16,17
 1477 1892 1477 1892 1784 1892 c 2,18,-1
 1862 1892 l 1,19,-1
 1805 1601 l 1,20,-1
 1745 1601 l 2,21,22
 1625 1601 1625 1601 1551 1534 c 0,23,24
 1476 1467 1476 1467 1451 1337 c 2,25,-1
 1405 1100 l 1,26,27
 1312 1173 1312 1173 1215 1207 c 0,28,29
 1117 1241 1117 1241 1002 1241 c 0,30,31
 796 1241 796 1241 653 1109 c 0,32,33
 509 977 509 977 464 745 c 0,34,35
 419 514 419 514 511 382 c 0,36,37
 604 250 604 250 810 250 c 0,38,39
 925 250 925 250 1035 284 c 0,40,41
 1146 318 1146 318 1267 391 c 1,42,-1
 1207 82 l 1,0,1
EndSplineSet
EndChar
StartChar: uni0188
Encoding: 392 392 392
Width: 1214
Flags: W
TeX: 117 0 0 0
AnchorPoint: "above" 814.64 1147 basechar 0
Fore
1134 1021 m 2,0,-1
 1090 793 l 1,1,2
 1027 843 1027 843 958 867 c 0,3,4
 889 891 889 891 810 891 c 0,5,6
 660 891 660 891 559 804 c 0,7,8
 459 716 459 716 428 559 c 0,9,10
 398 402 398 402 464 314 c 0,11,12
 531 227 531 227 681 227 c 0,13,14
 765 227 765 227 845 252 c 0,15,16
 926 277 926 277 999 326 c 1,17,-1
 942 33 l 1,18,19
 852 2 852 2 763 -14 c 0,20,21
 673 -29 673 -29 586 -29 c 0,22,23
 283 -29 283 -29 142 126 c 0,24,25
 2 282 2 282 55 559 c 0,26,27
 109 836 109 836 310 992 c 0,28,29
 510 1146 510 1146 810 1147 c 1,30,31
 859 1282 859 1282 951 1364 c 0,32,33
 1082 1483 1082 1483 1287 1483 c 2,34,-1
 1464 1483 l 1,35,-1
 1418 1248 l 1,36,-1
 1356 1248 l 2,37,38
 1254 1248 1254 1248 1207 1202 c 0,39,40
 1160 1156 1160 1156 1134 1021 c 2,0,-1
EndSplineSet
EndChar
StartChar: uni018A
Encoding: 394 394 394
Width: 1800
Flags: W
TeX: 117 0 0 0
AnchorPoint: "above" 1027.35 1520 basechar 0
Fore
762 1202 m 1,0,-1
 584 291 l 1,1,-1
 722 291 l 2,2,3
 958 291 958 291 1106 408 c 0,4,5
 1253 525 1253 525 1296 748 c 0,6,7
 1339 970 1339 970 1238 1086 c 0,8,9
 1137 1202 1137 1202 900 1202 c 2,10,-1
 762 1202 l 1,0,-1
382 1231 m 1,11,12
 309 1231 309 1231 303 1230 c 0,13,14
 257 1226 257 1226 239 1210 c 0,15,16
 202 1176 202 1176 190 1126 c 0,17,18
 186 1112 186 1112 180 1079 c 1,19,-1
 -75 1079 l 1,20,-1
 -60 1156 l 2,21,22
 -34 1294 -34 1294 27 1359 c 0,23,24
 50 1383 50 1383 88 1412 c 0,25,26
 175 1475 175 1475 317 1488 c 0,27,28
 368 1493 368 1493 433 1493 c 2,29,-1
 839 1493 l 2,30,31
 1179 1493 1179 1493 1336 1444 c 0,32,33
 1492 1396 1492 1396 1590 1280 c 0,34,35
 1675 1178 1675 1178 1700 1047 c 0,36,37
 1726 915 1726 915 1693 748 c 0,38,39
 1660 579 1660 579 1584 446 c 0,40,41
 1507 314 1507 314 1382 213 c 0,42,43
 1239 97 1239 97 1062 48 c 0,44,45
 885 0 885 0 549 0 c 2,46,-1
 143 0 l 1,47,-1
 382 1231 l 1,11,12
EndSplineSet
EndChar
StartChar: uni018B
Encoding: 395 395 395
Width: 1561
Flags: W
TeX: 117 0 0 0
Fore
712 262 m 2,0,-1
 938 262 l 1,1,-1
 1010 633 l 1,2,-1
 784 633 l 2,3,4
 662 633 662 633 600 588 c 0,5,6
 533 540 533 540 515 449 c 0,7,8
 497 356 497 356 546 307 c 0,9,10
 591 262 591 262 712 262 c 2,0,-1
633 0 m 18,11,12
 350 0 350 0 212 117 c 0,13,14
 86 223 86 223 133 461 c 0,15,16
 179 701 179 701 346 807 c 0,17,18
 530 924 530 924 813 924 c 2,19,-1
 1066 924 l 1,20,-1
 1121 1202 l 1,21,-1
 477 1202 l 1,22,-1
 533 1493 l 1,23,-1
 1562 1493 l 1,24,-1
 1272 0 l 1,25,-1
 633 0 l 18,11,12
EndSplineSet
EndChar
StartChar: uni018C
Encoding: 396 396 396
Width: 1466
Flags: W
TeX: 117 0 0 0
Fore
971 956 m 1,0,-1
 1031 1265 l 1,1,-1
 362 1265 l 1,2,-1
 419 1556 l 1,3,-1
 1448 1556 l 1,4,-1
 1146 0 l 1,5,-1
 788 0 l 1,6,-1
 819 162 l 1,7,8
 726 64 726 64 627 18 c 0,9,10
 528 -29 528 -29 411 -29 c 0,11,12
 204 -29 204 -29 103 136 c 0,13,14
 2 300 2 300 52 559 c 0,15,16
 103 818 103 818 268 982 c 0,17,18
 433 1147 433 1147 640 1147 c 0,19,20
 757 1147 757 1147 838 1100 c 0,21,22
 916 1056 916 1056 971 956 c 1,0,-1
594 231 m 0,23,24
 709 231 709 231 786 315 c 0,25,26
 863 399 863 399 894 559 c 0,27,28
 925 719 925 719 881 803 c 0,29,30
 837 887 837 887 722 887 c 0,31,32
 608 887 608 887 531 803 c 0,33,34
 454 719 454 719 423 559 c 0,35,36
 392 399 392 399 436 315 c 0,37,38
 480 231 480 231 594 231 c 0,23,24
EndSplineSet
EndChar
StartChar: uni018D
Encoding: 397 397 397
Width: 1407
Flags: W
TeX: 117 0 0 0
AnchorPoint: "above" 932.717 1520 basechar 0
Fore
162 -118 m 17,0,1
 271 -188 271 -188 557 -188 c 0,2,3
 760 -188 760 -188 774 -115 c 0,4,5
 787 -49 787 -49 577 -16 c 0,6,7
 335 21 335 21 217 133 c 0,8,9
 73 268 73 268 127 545 c 0,10,11
 179 810 179 810 373 966 c 0,12,13
 568 1123 568 1123 855 1123 c 0,14,15
 1141 1123 1141 1123 1276 966 c 0,16,17
 1410 810 1410 810 1356 535 c 0,18,19
 1316 330 1316 330 1121 166 c 0,20,21
 1060 116 1060 116 990 84 c 1,22,23
 1122 5 1122 5 1091 -154 c 0,24,25
 1038 -426 1038 -426 510 -426 c 0,26,27
 245 -426 245 -426 116 -356 c 1,28,-1
 162 -118 l 17,0,1
763 214 m 1,29,30
 820 236 820 236 873 292 c 0,31,32
 956 379 956 379 986 536 c 0,33,34
 1017 693 1017 693 968 781 c 0,35,36
 920 869 920 869 805 869 c 0,37,38
 693 869 693 869 610 780 c 0,39,40
 526 690 526 690 498 544 c 0,41,42
 468 391 468 391 524 317 c 0,43,44
 581 240 581 240 678 229 c 0,45,46
 723 224 723 224 763 214 c 1,29,30
EndSplineSet
EndChar
StartChar: uni018E
Encoding: 398 398 398
Width: 1399
Flags: W
TeX: 117 0 0 0
AnchorPoint: "above" 840.354 1520 basechar 0
Fore
1394 1493 m 1,0,-1
 1104 0 l 1,11,-1
 43 0 l 1,10,-1
 99 291 l 1,9,-1
 775 291 l 1,8,-1
 842 633 l 1,7,-1
 227 633 l 1,6,-1
 284 924 l 1,5,-1
 899 924 l 1,4,-1
 953 1202 l 1,3,-1
 299 1202 l 1,2,-1
 355 1493 l 1,1,-1
 1394 1493 l 1,0,-1
EndSplineSet
EndChar
StartChar: uni018F
Encoding: 399 399 399
Width: 1741
Flags: W
TeX: 117 0 0 0
Fore
1258 829 m 16,0,1
 1281 973 1281 973 1228 1069 c 0,2,3
 1133 1241 1133 1241 875 1241 c 0,4,5
 757 1241 757 1241 627 1206 c 128,-1,6
 497 1171 497 1171 347 1100 c 1,7,-1
 408 1409 l 1,8,9
 562 1464 562 1464 709 1492 c 128,-1,10
 856 1520 856 1520 990 1520 c 0,11,12
 1231 1520 1231 1520 1387 1441 c 0,13,14
 1544 1362 1544 1362 1620 1202 c 0,15,16
 1682 1071 1682 1071 1677 912 c 0,17,18
 1672 755 1672 755 1612 578 c 24,19,20
 1556 416 1556 416 1450 287 c 0,21,22
 1320 128 1320 128 1142 50 c 0,23,24
 965 -29 965 -29 733 -29 c 0,25,26
 436 -29 436 -29 255 136 c 0,27,28
 63 311 63 311 74 569 c 0,29,30
 80 702 80 702 104 829 c 9,31,-1
 1258 829 l 16,0,1
1202 571 m 9,32,-1
 480 571 l 17,33,34
 489 428 489 428 558 345 c 0,35,36
 637 250 637 250 778 250 c 0,37,38
 893 250 893 250 982 298 c 0,39,40
 1072 347 1072 347 1135 442 c 0,41,42
 1174 502 1174 502 1202 571 c 9,32,-1
EndSplineSet
EndChar
StartChar: uni0190
Encoding: 400 400 400
Width: 1425
Flags: W
TeX: 117 0 0 0
AnchorPoint: "above" 937 1520 basechar 0
Fore
457 805 m 1,0,1
 328 839 328 839 275 922 c 0,2,3
 223 1006 223 1006 248 1137 c 0,4,5
 285 1329 285 1329 448 1424 c 0,6,7
 612 1520 612 1520 903 1520 c 0,8,9
 1011 1520 1011 1520 1119 1504 c 0,10,11
 1228 1488 1228 1488 1336 1456 c 1,12,-1
 1281 1174 l 1,13,14
 1195 1215 1195 1215 1104 1236 c 0,15,16
 1013 1257 1013 1257 920 1257 c 0,17,18
 794 1257 794 1257 716 1210 c 0,19,20
 638 1163 638 1163 621 1077 c 0,21,22
 603 984 603 984 666 938 c 0,23,24
 728 893 728 893 873 893 c 2,25,-1
 1035 893 l 1,26,-1
 986 645 l 1,27,-1
 832 645 l 2,28,29
 669 645 669 645 576 592 c 128,-1,30
 482 540 482 540 462 438 c 0,31,32
 443 339 443 339 514 286 c 0,33,34
 585 233 585 233 738 233 c 0,35,36
 841 233 841 233 953 260 c 0,37,38
 1065 288 1065 288 1184 342 c 1,39,-1
 1126 45 l 1,40,41
 1006 8 1006 8 887 -10 c 0,42,43
 767 -29 767 -29 652 -29 c 0,44,45
 326 -29 326 -29 179 86 c 0,46,47
 31 202 31 202 75 424 c 0,48,49
 103 573 103 573 201 670 c 0,50,51
 298 766 298 766 457 805 c 1,0,1
EndSplineSet
EndChar
StartChar: uni0191
Encoding: 401 401 401
Width: 1399
Flags: W
TeX: 117 0 0 0
Fore
111 145 m 2,0,-1
 373 1493 l 1,1,-1
 1412 1493 l 1,2,-1
 1355 1202 l 1,3,-1
 701 1202 l 1,4,-1
 647 924 l 1,5,-1
 1262 924 l 1,6,-1
 1206 633 l 1,7,-1
 591 633 l 1,8,-1
 496 145 l 2,9,10
 442 -134 442 -134 263 -272 c 0,11,12
 85 -410 85 -410 -222 -410 c 2,13,-1
 -300 -410 l 1,14,-1
 -243 -119 l 1,15,-1
 -183 -119 l 2,16,17
 -63 -119 -63 -119 11 -52 c 0,18,19
 86 15 86 15 111 145 c 2,0,-1
EndSplineSet
EndChar
StartChar: florin
Encoding: 402 402 402
Width: 891
Flags: W
AnchorPoint: "above" 579.633 1520 basechar 0
Fore
1102 1556 m 1,0,-1
 1056 1321 l 1,1,-1
 858 1321 l 2,2,3
 782 1321 782 1321 747 1294 c 0,4,5
 711 1266 711 1266 698 1198 c 2,6,-1
 683 1120 l 1,7,-1
 989 1120 l 1,8,-1
 939 864 l 1,9,-1
 633 864 l 1,10,-1
 452 -68 l 2,11,12
 416 -251 416 -251 297 -338 c 0,13,14
 178 -426 178 -426 -36 -426 c 2,15,-1
 -310 -426 l 1,16,-1
 -264 -191 l 1,17,-1
 -66 -191 l 2,18,19
 10 -191 10 -191 45 -164 c 0,20,21
 81 -136 81 -136 94 -68 c 2,22,-1
 275 864 l 1,23,-1
 97 864 l 1,24,-1
 147 1120 l 1,25,-1
 325 1120 l 1,26,-1
 340 1198 l 2,27,28
 376 1381 376 1381 495 1468 c 0,29,30
 614 1556 614 1556 828 1556 c 2,31,-1
 1102 1556 l 1,0,-1
EndSplineSet
EndChar
StartChar: uni0193
Encoding: 403 403 403
Width: 1681
Flags: W
TeX: 117 0 0 0
AnchorPoint: "above" 1044.39 1520 basechar 0
Fore
1371 111 m 1,0,1
 1213 41 1213 41 1051 6 c 0,2,3
 889 -29 889 -29 724 -29 c 0,4,5
 351 -29 351 -29 174 180 c 0,6,7
 -4 388 -4 388 66 745 c 0,8,9
 136 1106 136 1106 398 1313 c 0,10,11
 660 1520 660 1520 1046 1520 c 0,12,13
 1136 1520 1136 1520 1220 1510 c 1,14,15
 1283 1663 1283 1663 1401 1754 c 0,16,17
 1580 1892 1580 1892 1887 1892 c 2,18,-1
 1965 1892 l 1,19,-1
 1908 1601 l 1,20,-1
 1848 1601 l 2,21,22
 1728 1601 1728 1601 1654 1534 c 0,23,24
 1579 1467 1579 1467 1554 1337 c 2,25,-1
 1508 1100 l 1,26,27
 1397 1171 1397 1171 1280 1206 c 0,28,29
 1163 1241 1163 1241 1039 1241 c 0,30,31
 809 1241 809 1241 660 1112 c 0,32,33
 510 984 510 984 464 745 c 0,34,35
 418 508 418 508 513 379 c 0,36,37
 608 250 608 250 829 250 c 0,38,39
 889 250 889 250 941 258 c 0,40,41
 994 265 994 265 1039 281 c 1,42,-1
 1095 571 l 1,43,-1
 860 571 l 1,44,-1
 910 829 l 1,45,-1
 1510 829 l 1,46,-1
 1371 111 l 1,0,1
EndSplineSet
EndChar
StartChar: uni0194
Encoding: 404 404 404
Width: 1624
Flags: W
TeX: 0 0 0 0
Fore
868 818 m 1,0,-1
 1414 1493 l 1,1,-1
 1806 1493 l 1,2,-1
 1003 497 l 1,3,-1
 1041 405 l 2,4,5
 1128 198 1128 198 1141 99 c 128,-1,6
 1155 0 1155 0 1155 -44 c 128,-1,0
 1155 -88 1155 -88 1150 -114 c 0,1,2
 1122 -267 1122 -267 1012 -349 c 128,-1,3
 902 -430 902 -430 625 -430 c 128,-1,4
 349 -430 349 -430 270 -349 c 0,5,6
 214 -291 214 -291 214 -196 c 0,0,0
 214 -158 214 -158 225 -105 c 128,-1,1
 236 -52 236 -52 301 73 c 128,-1,2
 366 198 366 198 533 405 c 2,3,-1
 608 497 l 1,4,-1
 192 1493 l 1,5,-1
 584 1493 l 1,6,-1
 868 818 l 1,0,-1
722 150 m 2,7,8
 598 -4 598 -4 583 -45 c 0,9,10
 560 -106 560 -106 560 -123 c 128,-1,0
 560 -139 560 -139 582 -167 c 128,-1,1
 603 -195 603 -195 671 -195 c 128,-1,0
 738 -195 738 -195 775 -164 c 128,-1,1
 811 -133 811 -133 814 -109 c 128,-1,2
 817 -86 817 -86 817 -44 c 128,-1,0
 817 -3 817 -3 754 150 c 2,1,-1
 743 175 l 1,2,-1
 722 150 l 2,7,8
EndSplineSet
EndChar
StartChar: uni0195
Encoding: 405 405 405
Width: 2140
Flags: W
TeX: 117 0 0 0
Fore
888 520 m 2,0,1
 917 667 917 667 921 722 c 0,2,3
 925 777 925 777 914 803 c 0,4,5
 900 838 900 838 868 858 c 0,6,7
 835 877 835 877 789 877 c 0,8,9
 677 877 677 877 597 790 c 0,10,11
 516 704 516 704 486 551 c 2,12,-1
 379 0 l 1,13,-1
 21 0 l 1,14,-1
 323 1556 l 1,15,-1
 681 1556 l 1,16,-1
 565 956 l 1,17,18
 665 1054 665 1054 765 1100 c 0,19,20
 865 1147 865 1147 975 1147 c 0,21,22
 1169 1147 1169 1147 1246 1028 c 0,23,24
 1324 909 1324 909 1280 682 c 2,25,-1
 1236 460 l 2,26,27
 1204 291 1204 291 1211 279 c 0,28,29
 1242 227 1242 227 1289 231 c 2,30,-1
 1310 233 l 2,31,32
 1428 233 1428 233 1529 330 c 0,33,34
 1622 418 1622 418 1649 560 c 0,35,36
 1670 667 1670 667 1635 782 c 0,37,38
 1611 866 1611 866 1541 938 c 1,39,-1
 1575 1120 l 1,40,41
 1713 1117 1713 1117 1799 1077 c 0,42,43
 1838 1059 1838 1059 1886 1027 c 0,44,45
 1942 990 1942 990 1969 923 c 0,46,47
 1971 918 1971 918 2000 835 c 0,48,49
 2038 727 2038 727 2008 569 c 0,50,51
 1958 315 1958 315 1775 158 c 0,52,53
 1590 0 1590 0 1347 0 c 2,54,-1
 1210 -2 l 2,55,56
 1008 -5 1008 -5 920 116 c 0,57,58
 833 236 833 236 876 460 c 2,59,-1
 888 520 l 2,0,1
EndSplineSet
EndChar
StartChar: uni0196
Encoding: 406 406 406
Width: 892
Flags: W
TeX: 117 0 0 0
AnchorPoint: "above" 528.354 1520 basechar 0
Fore
718 1493 m 1,0,-1
 536 555 l 2,1,2
 511 425 511 425 559 358 c 0,3,4
 607 291 607 291 727 291 c 2,5,-1
 787 291 l 1,6,-1
 731 0 l 1,7,-1
 653 0 l 2,8,9
 346 0 346 0 221 138 c 0,10,11
 97 276 97 276 151 555 c 2,12,-1
 333 1493 l 1,13,-1
 718 1493 l 1,0,-1
EndSplineSet
EndChar
StartChar: uni0197
Encoding: 407 407 407
Width: 797
Flags: W
TeX: 117 0 0 0
AnchorPoint: "above" 528.354 1520 basechar 0
Fore
346 1493 m 1,0,-1
 731 1493 l 1,1,-1
 612 881 l 1,2,-1
 813 881 l 1,3,-1
 763 621 l 1,4,-1
 562 621 l 1,5,-1
 441 0 l 1,6,-1
 56 0 l 1,7,-1
 177 621 l 1,8,-1
 -14 621 l 1,9,-1
 36 881 l 1,10,-1
 227 881 l 1,11,-1
 346 1493 l 1,0,-1
EndSplineSet
EndChar
StartChar: uni0198
Encoding: 408 408 408
Width: 1587
Flags: W
TeX: 117 0 0 0
AnchorPoint: "below" 733.271 0 basechar 0
AnchorPoint: "above" 817.729 1520 basechar 0
Fore
1304.88 1155.5 m 2,0,-1
 861.054 786 l 1,1,-1
 1501.27 0 l 1,2,-1
 1019.27 0 l 1,3,-1
 539.566 588 l 1,4,-1
 425.271 0 l 1,5,-1
 40.2705 0 l 1,6,-1
 330.48 1493 l 1,7,-1
 715.48 1493 l 1,8,-1
 609.544 948 l 1,9,-1
 1186.65 1427 l 2,10,11
 1298.7 1520 1298.7 1520 1429.73 1520 c 0,12,13
 1564.8 1520 1564.8 1520 1637.65 1427 c 0,14,15
 1692.55 1356.88 1692.55 1356.88 1692.55 1266.93 c 0,16,17
 1692.55 1236.13 1692.55 1236.13 1686.11 1203 c 2,18,-1
 1644.12 987 l 1,19,-1
 1404.12 987 l 1,20,-1
 1426.19 1100.5 l 2,21,22
 1432 1130.41 1432 1130.41 1418.51 1148.46 c 0,23,24
 1396.79 1177.5 1396.79 1177.5 1372.47 1177.5 c 0,25,26
 1331.3 1177.5 1331.3 1177.5 1304.88 1155.5 c 2,0,-1
EndSplineSet
EndChar
StartChar: uni0199
Encoding: 409 409 409
Width: 1362
Flags: W
TeX: 117 0 0 0
AnchorPoint: "above" 500.229 1520 basechar 0
Fore
517 709 m 1,0,-1
 1008 1120 l 1,1,-1
 1424 1120 l 1,2,-1
 778 606 l 1,3,-1
 1250 0 l 1,4,-1
 816 0 l 1,5,-1
 470 467 l 1,6,-1
 379 0 l 1,7,-1
 21 0 l 1,8,-1
 233 1094 l 2,9,10
 277 1317 277 1317 410 1438 c 0,11,12
 541 1556 541 1556 746 1556 c 2,13,-1
 1027 1556 l 1,14,-1
 982 1321 l 1,15,-1
 816 1321 l 2,16,17
 715 1321 715 1321 667 1275 c 0,18,19
 618 1229 618 1229 591 1094 c 2,20,-1
 517 709 l 1,0,-1
EndSplineSet
EndChar
StartChar: uni019A
Encoding: 410 410 410
Width: 738
Flags: W
TeX: 117 0 0 0
AnchorPoint: "above" 521.23 1520 basechar 0
Fore
344 1556 m 1,0,-1
 702 1556 l 1,1,-1
 571 881 l 1,2,-1
 748 881 l 1,3,-1
 697 621 l 1,4,-1
 520 621 l 1,5,-1
 400 0 l 1,6,-1
 42 0 l 1,7,-1
 162 621 l 1,8,-1
 -21 621 l 1,9,-1
 30 881 l 1,10,-1
 213 881 l 1,11,-1
 344 1556 l 1,0,-1
EndSplineSet
EndChar
StartChar: uni019B
Encoding: 411 411 411
Width: 1212
Flags: W
TeX: 117 0 0 0
AnchorPoint: "above" 745.23 1520 basechar 0
Fore
-90 0 m 1,0,-1
 457 1020 l 1,1,-1
 420 1229 l 1,2,-1
 83 1128 l 1,3,-1
 71 1257 l 1,4,-1
 399 1354 l 1,5,-1
 363 1556 l 1,6,-1
 721 1556 l 1,7,-1
 739 1455 l 1,8,-1
 1087 1554 l 1,9,-1
 1097 1425 l 1,10,-1
 762 1328 l 1,11,-1
 1000 0 l 1,12,-1
 642 0 l 1,13,-1
 550 514 l 1,14,-1
 268 0 l 1,15,-1
 -90 0 l 1,0,-1
EndSplineSet
EndChar
StartChar: uni019C
Encoding: 412 412 412
Width: 2134
Flags: W
TeX: 117 0 0 0
Fore
826 186 m 1,0,1
 737 82 737 82 633 28 c 128,-1,2
 529 -27 529 -27 417 -27 c 0,3,4
 235 -27 235 -27 146 92 c 128,-1,5
 66 199 66 199 113 438 c 2,6,-1
 318 1493 l 1,7,-1
 678 1493 l 1,8,-1
 492 536 l 1,9,10
 488 523 488 523 485 509 c 128,-1,11
 482 495 482 495 477 469 c 0,12,13
 454 350 454 350 478 296 c 128,-1,14
 503 243 503 243 581 243 c 0,15,16
 683 243 683 243 755 327 c 128,-1,17
 826 411 826 411 859 570 c 1,18,-1
 1039 1493 l 1,19,-1
 1399 1493 l 1,20,-1
 1213 536 l 2,21,22
 1177 350 1177 350 1198 296 c 128,-1,23
 1220 243 1220 243 1302 243 c 0,24,25
 1405 243 1405 243 1477 328 c 128,-1,26
 1550 413 1550 413 1580 569 c 2,27,-1
 1760 1493 l 1,28,-1
 2120 1493 l 1,29,-1
 1830 0 l 1,30,-1
 1470 0 l 1,31,-1
 1501 164 l 1,32,33
 1417 69 1417 69 1322 21 c 128,-1,34
 1227 -27 1227 -27 1124 -27 c 0,35,36
 1008 -27 1008 -27 930 29 c 128,-1,37
 852 85 852 85 826 186 c 1,0,1
EndSplineSet
EndChar
StartChar: uni019D
Encoding: 413 413 413
Width: 1714
Flags: W
TeX: 117 0 0 0
AnchorPoint: "above" 1069.2 1520 basechar 0
Fore
111 145 m 2,0,-1
 373 1493 l 1,1,-1
 803 1493 l 1,2,-1
 1147 469 l 1,3,-1
 1346 1493 l 1,4,-1
 1711 1493 l 1,5,-1
 1421 0 l 1,6,-1
 991 0 l 1,7,-1
 647 1024 l 1,8,-1
 476 145 l 2,9,10
 429 -97 429 -97 324 -215 c 0,11,12
 296 -247 296 -247 263 -272 c 0,13,14
 85 -410 85 -410 -222 -410 c 2,15,-1
 -300 -410 l 1,16,-1
 -243 -119 l 1,17,-1
 -183 -119 l 2,18,19
 -63 -119 -63 -119 11 -52 c 0,20,21
 86 15 86 15 111 145 c 2,0,-1
EndSplineSet
EndChar
StartChar: uni019F
Encoding: 415 415 415
Width: 1741
Flags: W
TeX: 117 0 0 0
Fore
1021 1520 m 0,0,1
 1381 1520 1381 1520 1544 1314 c 0,2,3
 1708 1108 1708 1108 1638 745 c 0,4,5
 1568 383 1568 383 1324 177 c 0,6,7
 1079 -29 1079 -29 719 -29 c 0,8,9
 360 -29 360 -29 196 177 c 0,10,11
 32 383 32 383 102 745 c 0,12,13
 172 1108 172 1108 417 1314 c 0,14,15
 662 1520 662 1520 1021 1520 c 0,0,1
966 1241 m 0,16,17
 790 1241 790 1241 668 1111 c 0,18,19
 568 1005 568 1005 520 829 c 1,20,-1
 1254 829 l 1,21,22
 1273 1005 1273 1005 1215 1111 c 0,23,24
 1143 1241 1143 1241 966 1241 c 0,16,17
482 571 m 1,25,26
 483 457 483 457 526 380 c 0,27,28
 598 250 598 250 774 250 c 0,29,30
 951 250 951 250 1073 380 c 0,31,32
 1145 457 1145 457 1191 571 c 1,33,-1
 482 571 l 1,25,26
EndSplineSet
EndChar
StartChar: uni01A2
Encoding: 418 418 418
Width: 2281
Flags: W
TeX: 117 0 0 0
Fore
966 1241 m 0,0,1
 790 1241 790 1241 668 1111 c 0,2,3
 546 981 546 981 500 745 c 0,4,5
 454 510 454 510 526 380 c 0,6,7
 598 250 598 250 774 250 c 0,8,9
 951 250 951 250 1073 380 c 1,10,-1
 1215 1111 l 1,11,12
 1143 1241 1143 1241 966 1241 c 0,0,1
1596 0 m 1,13,-1
 1778 938 l 2,14,15
 1804 1068 1804 1068 1755 1135 c 0,16,17
 1707 1202 1707 1202 1587 1202 c 2,18,-1
 1523 1202 l 1,19,-1
 1324 177 l 1,20,21
 1079 -29 1079 -29 719 -29 c 0,22,23
 360 -29 360 -29 196 177 c 0,24,25
 32 383 32 383 102 745 c 0,26,27
 172 1108 172 1108 417 1314 c 0,28,29
 662 1520 662 1520 1021 1520 c 0,30,31
 1151 1520 1151 1520 1256 1493 c 2,32,-1
 1661 1493 l 2,33,34
 1971 1493 1971 1493 2093 1355 c 0,35,36
 2217 1215 2217 1215 2163 938 c 2,37,-1
 1981 0 l 1,38,-1
 1596 0 l 1,13,-1
EndSplineSet
EndChar
StartChar: uni01A3
Encoding: 419 419 419
Width: 1971
Flags: W
TeX: 117 0 0 0
Fore
810 891 m 0,0,1
 691 891 691 891 612 806 c 0,2,3
 532 720 532 720 501 559 c 0,4,5
 470 398 470 398 516 312 c 0,6,7
 562 227 562 227 681 227 c 0,8,9
 798 227 798 227 876 312 c 1,10,-1
 972 806 l 1,11,12
 927 891 927 891 810 891 c 0,0,1
1253 -442 m 1,13,-1
 1466 658 l 2,14,15
 1493 793 1493 793 1464 839 c 0,16,17
 1435 885 1435 885 1333 885 c 2,18,-1
 1260 885 l 1,19,-1
 1113 127 l 1,20,21
 920 -29 920 -29 631 -29 c 0,22,23
 341 -29 341 -29 208 127 c 0,24,25
 74 283 74 283 128 559 c 0,26,27
 182 835 182 835 376 991 c 0,28,29
 569 1147 569 1147 859 1147 c 0,30,31
 980 1147 980 1147 1073 1120 c 2,32,-1
 1493 1120 l 2,33,34
 1698 1120 1698 1120 1783 1002 c 0,35,36
 1868 883 1868 883 1824 658 c 2,37,-1
 1611 -442 l 1,38,-1
 1253 -442 l 1,13,-1
EndSplineSet
EndChar
StartChar: uni01A4
Encoding: 420 420 420
Width: 1601
Flags: W
TeX: 117 0 0 0
AnchorPoint: "above" 1027.35 1520 basechar 0
Fore
764 1214 m 1,0,-1
 683 797 l 1,1,-1
 896 797 l 2,2,3
 1008 797 1008 797 1079 852 c 0,4,5
 1151 906 1151 906 1170 1006 c 0,6,7
 1190 1106 1190 1106 1139 1160 c 0,8,9
 1089 1214 1089 1214 977 1214 c 2,10,-1
 764 1214 l 1,0,-1
382 1231 m 1,11,12
 309 1231 309 1231 303 1230 c 0,13,14
 257 1226 257 1226 239 1210 c 0,15,16
 202 1176 202 1176 190 1126 c 0,17,18
 186 1112 186 1112 180 1079 c 1,19,-1
 -75 1079 l 1,20,-1
 -60 1156 l 2,21,22
 -34 1294 -34 1294 27 1359 c 0,23,24
 50 1383 50 1383 88 1412 c 0,25,26
 175 1475 175 1475 317 1488 c 0,27,28
 368 1493 368 1493 433 1493 c 2,29,-1
 1072 1493 l 2,30,31
 1357 1493 1357 1493 1485 1366 c 0,32,33
 1613 1240 1613 1240 1567 1006 c 0,34,35
 1522 771 1522 771 1345 644 c 0,36,37
 1168 518 1168 518 883 518 c 2,38,-1
 629 518 l 1,39,-1
 528 0 l 1,40,-1
 143 0 l 1,41,-1
 382 1231 l 1,11,12
EndSplineSet
EndChar
StartChar: uni01A5
Encoding: 421 421 421
Width: 1466
Flags: W
TeX: 117 0 0 0
Fore
653 1198 m 2,0,-1
 606 956 l 1,1,2
 699 1054 699 1054 798 1100 c 0,3,4
 897 1147 897 1147 1014 1147 c 0,5,6
 1221 1147 1221 1147 1322 982 c 0,7,8
 1423 818 1423 818 1373 559 c 0,9,10
 1322 300 1322 300 1158 136 c 0,11,12
 993 -29 993 -29 786 -29 c 0,13,14
 669 -29 669 -29 588 18 c 0,15,16
 507 64 507 64 452 162 c 1,17,-1
 337 -426 l 1,18,-1
 -21 -426 l 1,19,-1
 295 1198 l 2,20,21
 328 1366 328 1366 450 1468 c 0,22,23
 554 1556 554 1556 783 1556 c 2,24,-1
 1057 1556 l 1,25,-1
 1011 1321 l 1,26,-1
 813 1321 l 2,27,28
 737 1321 737 1321 702 1294 c 0,29,30
 666 1266 666 1266 653 1198 c 2,0,-1
831 887 m 0,31,32
 716 887 716 887 638 802 c 0,33,34
 560 718 560 718 529 559 c 0,35,36
 498 400 498 400 543 316 c 0,37,38
 588 231 588 231 703 231 c 0,39,40
 818 231 818 231 895 315 c 0,41,42
 972 399 972 399 1003 559 c 0,43,44
 1034 719 1034 719 990 803 c 0,45,46
 946 887 946 887 831 887 c 0,31,32
EndSplineSet
EndChar
StartChar: uni01A6
Encoding: 422 422 422
Width: 1577
Flags: W
TeX: 117 0 0 0
Fore
730.335 573 m 2,0,1
 851.335 573 851.335 573 912.582 618 c 128,-1,2
 973.829 663 973.829 663 993.851 766 c 0,3,4
 1000.01 797.71 1000.01 797.71 1000.01 839.695 c 0,0,0
 1000.01 881.679 1000.01 881.679 962.898 918.839 c 128,-1,5
 925.782 956 925.782 956 804.782 956 c 2,6,-1
 642.782 956 l 1,7,-1
 568.335 573 l 1,8,-1
 730.335 573 l 2,0,1
516.63 307 m 1,9,-1
 456.955 0 l 1,10,-1
 71.9551 0 l 1,11,-1
 362.165 1493 l 1,12,-1
 747.165 1493 l 1,0,0
 697.015 1235 l 1,0,0
 900.015 1235 l 2,13,14
 1195.01 1235 1195.01 1235 1313.27 1136 c 128,-1,15
 1400.75 1062.76 1400.75 1062.76 1400.75 926.588 c 0,0,0
 1400.75 878.688 1400.75 878.688 1389.93 823 c 0,16,17
 1332.92 529.688 1332.92 529.688 1028.48 440 c 1,19,20
 1103.98 422 1103.98 422 1154.14 358.5 c 128,-1,21
 1204.3 295 1204.3 295 1243.22 166 c 2,22,-1
 1381.83 -299 l 1,23,-1
 971.835 -299 l 1,24,-1
 849.92 113 l 2,25,26
 816.69 225 816.69 225 768.16 266 c 128,-1,27
 719.63 307 719.63 307 625.63 307 c 2,28,-1
 516.63 307 l 1,9,-1
EndSplineSet
EndChar
StartChar: uni01A7
Encoding: 423 423 423
Width: 1475
Flags: W
TeX: 117 0 0 0
AnchorPoint: "above" 853.548 1520 basechar 0
Fore
287 1446 m 1,0,1
 433 1483 433 1483 567 1502 c 0,2,3
 701 1520 701 1520 824 1520 c 0,4,5
 1094 1520 1094 1520 1214 1400 c 0,6,7
 1335 1280 1335 1280 1292 1057 c 0,8,9
 1257 879 1257 879 1133 774 c 128,-1,10
 1009 669 1009 669 776 621 c 2,11,-1
 620 588 l 2,12,13
 479 558 479 558 426 520 c 128,-1,14
 373 482 373 482 359 412 c 0,15,16
 344 334 344 334 403 292 c 128,-1,17
 462 250 462 250 588 250 c 0,18,19
 712 250 712 250 853 288 c 0,20,21
 994 327 994 327 1151 403 c 1,22,-1
 1088 78 l 1,23,24
 935 25 935 25 787 -2 c 0,25,26
 638 -29 638 -29 496 -29 c 0,27,28
 195 -29 195 -29 72 92 c 0,29,30
 -51 212 -51 212 -3 459 c 0,31,32
 34 647 34 647 159 749 c 128,-1,33
 284 851 284 851 542 901 c 2,34,-1
 713 934 l 2,35,36
 834 958 834 958 885 992 c 0,37,38
 936 1025 936 1025 948 1085 c 0,39,40
 964 1165 964 1165 905 1203 c 128,-1,41
 846 1241 846 1241 708 1241 c 0,42,43
 604 1241 604 1241 482 1213 c 0,44,45
 359 1185 359 1185 226 1130 c 1,46,-1
 287 1446 l 1,0,1
EndSplineSet
EndChar
StartChar: uni01A8
Encoding: 424 424 424
Width: 1219
Flags: W
TeX: 117 0 0 0
AnchorPoint: "above" 716.296 1147 basechar 0
Fore
208 1085 m 1,0,1
 342 1117 342 1117 454 1132 c 128,-1,2
 566 1147 566 1147 665 1147 c 0,3,4
 917 1147 917 1147 1023 1061 c 0,5,6
 1128 975 1128 975 1093 797 c 0,7,8
 1061 632 1061 632 949 551 c 0,9,10
 838 470 838 470 593 440 c 2,11,-1
 528 432 l 2,12,13
 417 419 417 419 376 396 c 0,14,15
 335 372 335 372 325 324 c 0,16,17
 314 267 314 267 362 238 c 0,18,19
 409 209 409 209 514 209 c 0,20,21
 630 209 630 209 748 235 c 0,22,23
 865 261 865 261 982 313 c 1,24,-1
 929 41 l 1,25,26
 798 6 798 6 676 -12 c 0,27,28
 554 -29 554 -29 443 -29 c 0,29,30
 181 -29 181 -29 66 61 c 0,31,32
 -48 151 -48 151 -14 330 c 0,33,34
 20 501 20 501 130 581 c 0,35,36
 241 661 241 661 523 696 c 2,37,-1
 587 705 l 1,38,39
 687 716 687 716 728 739 c 0,40,41
 770 762 770 762 779 805 c 0,42,43
 789 858 789 858 745 884 c 0,44,45
 700 909 700 909 598 909 c 0,46,47
 503 909 503 909 391 885 c 0,48,49
 280 861 280 861 155 813 c 1,50,-1
 208 1085 l 1,0,1
EndSplineSet
EndChar
StartChar: uni01AA
Encoding: 426 426 426
Width: 1130
Flags: W
TeX: 117 0 0 0
Fore
474 1554 m 1,31,32
 587 1554 l 2,30,-1
 792 1554 792 1554 877 1436 c 0,28,29
 948 1337 948 1337 932 1180 c 1,26,27
 1048 1179 1048 1179 1103 1179 c 1,24,25
 1062 968 l 1,23,-1
 894 968 l 1,22,-1
 689 -86 l 2,21,-1
 676 -154 676 -154 701 -182 c 0,19,20
 726 -209 726 -209 802 -209 c 2,17,18
 1000 -209 l 1,16,-1
 954 -444 l 1,15,-1
 680 -444 l 2,14,-1
 466 -444 466 -444 381 -356 c 0,12,13
 296 -269 296 -269 331 -86 c 2,10,11
 536 968 l 1,9,-1
 328 969 l 2,8,-1
 20 970 20 970 70 1245 c 0,6,7
 121 1528 121 1528 410 1553 c 1,4,5
 410 1554 l 1,3,-1
 417 1554 l 1,2,-1
 474 1554 l 1,31,32
572 1180 m 1,33,34
 576 1244 576 1244 558 1273 c 0,42,43
 529 1319 529 1319 427 1319 c 2,40,41
 383 1319 l 2,39,-1
 288 1312 288 1312 278 1254 c 0,37,38
 265 1179 265 1179 369 1179 c 0,35,36
 433 1179 433 1179 572 1180 c 1,33,34
EndSplineSet
EndChar
StartChar: uni01AB
Encoding: 427 427 427
Width: 979
Flags: W
TeX: 117 0 0 0
AnchorPoint: "above" 592.656 1520 basechar 0
Fore
746 1438 m 1,0,-1
 684 1120 l 1,1,-1
 1053 1120 l 1,2,-1
 1003 864 l 1,3,-1
 634 864 l 1,4,-1
 542 389 l 2,5,6
 527 311 527 311 552 284 c 0,7,8
 578 256 578 256 670 256 c 2,9,-1
 854 256 l 1,10,-1
 804 -0 l 2,11,12
 758 -210 758 -210 633 -324 c 0,13,14
 502 -442 502 -442 297 -442 c 2,15,-1
 120 -442 l 1,16,-1
 166 -207 l 1,17,-1
 228 -207 l 2,18,19
 330 -207 330 -207 377 -161 c 0,20,21
 421 -118 421 -118 446 1 c 1,22,23
 276 11 276 11 214 88 c 0,24,25
 143 177 143 177 184 389 c 2,26,-1
 276 864 l 1,27,-1
 98 864 l 1,28,-1
 148 1120 l 1,29,-1
 326 1120 l 1,30,-1
 388 1438 l 1,31,-1
 746 1438 l 1,0,-1
EndSplineSet
EndChar
StartChar: uni01AC
Encoding: 428 428 428
Width: 1447
Flags: W
TeX: 117 0 0 0
AnchorPoint: "above" 911.354 1520 basechar 0
Fore
789 1493 m 1,0,-1
 1581 1493 l 1,1,-1
 1525 1202 l 1,2,-1
 1030 1202 l 1,3,-1
 796 0 l 1,4,-1
 411 0 l 1,5,-1
 645 1202 l 1,6,-1
 642 1202 l 2,7,8
 489 1202 489 1202 433 1164 c 0,9,10
 377 1126 377 1126 356 1021 c 2,11,-1
 347 972 l 1,12,-1
 74 972 l 1,13,-1
 108 1149 l 2,14,15
 143 1330 143 1330 255 1412 c 0,16,17
 367 1493 367 1493 581 1493 c 2,18,-1
 789 1493 l 1,0,-1
EndSplineSet
EndChar
StartChar: uni01AD
Encoding: 429 429 429
Width: 979
Flags: W
TeX: 117 0 0 0
AnchorPoint: "above" 571.909 1755 basechar 0
Fore
645 1198 m 2,0,-1
 629 1120 l 1,1,-1
 998 1120 l 1,2,-1
 949 864 l 1,3,-1
 580 864 l 1,4,-1
 487 389 l 2,5,6
 472 311 472 311 498 284 c 0,7,8
 524 256 524 256 616 256 c 2,9,-1
 800 256 l 1,10,-1
 750 0 l 1,11,-1
 443 0 l 2,12,13
 231 0 231 0 159 88 c 0,14,15
 88 177 88 177 129 389 c 2,16,-1
 222 864 l 1,17,-1
 44 864 l 1,18,-1
 93 1120 l 1,19,-1
 271 1120 l 1,20,-1
 287 1198 l 2,21,22
 319 1366 319 1366 441 1468 c 0,23,24
 546 1556 546 1556 774 1556 c 2,25,-1
 1048 1556 l 1,26,-1
 1003 1321 l 1,27,-1
 805 1321 l 2,28,29
 729 1321 729 1321 693 1294 c 0,30,31
 658 1266 658 1266 645 1198 c 2,0,-1
EndSplineSet
EndChar
StartChar: uni01AE
Encoding: 430 430 430
Width: 1397
Flags: W
TeX: 117 0 0 0
AnchorPoint: "above" 901.201 1520 basechar 0
Fore
634 1202 m 1,0,-1
 138 1202 l 1,1,-1
 195 1493 l 1,2,-1
 1571 1493 l 1,3,-1
 1514 1202 l 1,4,-1
 1019 1202 l 1,5,-1
 814 145 l 2,6,7
 789 15 789 15 837 -52 c 0,8,9
 886 -119 886 -119 1006 -119 c 2,10,-1
 1066 -119 l 1,11,-1
 1009 -410 l 1,12,-1
 931 -410 l 2,13,14
 624 -410 624 -410 499 -272 c 0,15,16
 375 -134 375 -134 429 145 c 2,17,-1
 634 1202 l 1,0,-1
EndSplineSet
EndChar
StartChar: uni01B1
Encoding: 433 433 433
Width: 1575
Flags: W
TeX: 117 0 0 0
Fore
1324 1224 m 1,0,-1
 1426 1103 1426 1103 1460 964 c 0,38,39
 1494 825 1494 825 1462 661 c 0,36,37
 1402 348 1402 348 1177 160 c 0,34,35
 952 -29 952 -29 639 -29 c 0,32,33
 327 -29 327 -29 176 160 c 0,30,31
 25 348 25 348 85 661 c 0,28,29
 117 825 117 825 205 964 c 0,26,27
 293 1103 293 1103 443 1224 c 1,24,25
 152 1224 l 1,23,-1
 202 1480 l 1,22,-1
 811 1480 l 1,21,-1
 754 1189 l 1,20,-1
 612 1104 612 1104 520 972 c 0,18,19
 428 839 428 839 396 675 c 0,16,17
 357 472 357 472 436 356 c 0,14,15
 514 239 514 239 691 239 c 0,12,13
 869 239 869 239 994 356 c 0,10,11
 1118 472 1118 472 1157 675 c 0,8,9
 1189 840 1189 840 1149 972 c 0,6,7
 1108 1103 1108 1103 999 1189 c 1,4,5
 1056 1480 l 1,3,-1
 1665 1480 l 1,2,-1
 1615 1224 l 1,1,-1
 1324 1224 l 1,0,-1
EndSplineSet
EndChar
StartChar: uni01B2
Encoding: 434 434 434
Width: 1666
Flags: W
TeX: 117 0 0 0
AnchorPoint: "above" 528.354 1520 basechar 0
Fore
731 0 m 0,32,33
 653 0 l 2,8,9
 346 0 346 0 221 138 c 0,10,11
 97 276 97 276 151 555 c 2,12,-1
 333 1493 l 1,13,-1
 718 1493 l 1,0,-1
 536 555 l 2,1,2
 511 425 511 425 559 358 c 0,3,4
 607 291 607 291 727 291 c 2,5,-1
 787 291 l 0,12,13
 965 291 965 291 1090 408 c 0,10,11
 1233 542 1233 542 1259 675 c 0,8,9
 1299 878 1299 878 1251 972 c 0,6,7
 1167 1134 1167 1134 1018 1229 c 1,4,5
 1046 1374 l 1,3,-1
 1316 1374 l 1,0,-1
 1480 1237 1480 1237 1562 964 c 0,38,39
 1599 841 1599 841 1564 661 c 0,36,37
 1515 408 1515 408 1273 212 c 0,34,35
 1012 -0 1012 -0 731 0 c 0,32,33
EndSplineSet
EndChar
StartChar: uni01B3
Encoding: 435 435 435
Width: 1633
Flags: W
TeX: 117 0 0 0
AnchorPoint: "above" 888.09 1527 basechar 0
Fore
1276.51 1061 m 2,0,-1
 908.536 629 l 1,1,-1
 786.271 0 l 1,2,-1
 401.271 0 l 1,3,-1
 523.536 629 l 1,4,-1
 122.48 1493 l 1,5,-1
 543.48 1493 l 1,6,-1
 780.07 961 l 1,7,-1
 1065.55 1303 l 2,8,9
 1246.69 1520 1246.69 1520 1459.73 1520 c 0,10,11
 1594.8 1520 1594.8 1520 1667.65 1427 c 0,12,13
 1722.55 1356.88 1722.55 1356.88 1722.55 1266.93 c 0,14,15
 1722.55 1236.13 1722.55 1236.13 1716.11 1203 c 2,16,-1
 1674.12 987 l 1,17,-1
 1434.12 987 l 1,18,-1
 1447.54 1056 l 2,19,20
 1453.35 1085.91 1453.35 1085.91 1439.86 1103.96 c 0,21,22
 1418.14 1133 1418.14 1133 1393.82 1133 c 0,23,24
 1337.83 1133 1337.83 1133 1276.51 1061 c 2,0,-1
EndSplineSet
EndChar
StartChar: uni01B4
Encoding: 436 436 436
Width: 1594
Flags: W
TeX: 117 0 0 0
AnchorPoint: "above" 815.436 1147 basechar 0
AnchorPoint: "below" 508.897 -430 basechar 0
Fore
1651.05 646 m 17,0,-1
 1407.72 646 l 1,1,-1
 1419.38 706 l 1,2,3
 1425.8 739 1425.8 739 1417.9 767.5 c 128,-1,4
 1409.99 796 1409.99 796 1389.96 812.5 c 128,-1,5
 1369.95 829 1369.95 829 1342.64 829 c 129,-1,6
 1315.34 829 1315.34 829 1289.22 812 c 0,7,8
 1260.45 794 1260.45 794 1243.79 767 c 0,9,10
 1235.17 752 1235.17 752 1225.74 737 c 18,11,-1
 737.877 -106 l 2,12,13
 628.907 -294.294 628.907 -294.294 521.949 -368 c 0,14,15
 412.564 -442 412.564 -442 257.564 -442 c 2,16,-1
 50.5645 -442 l 1,17,-1
 96.2441 -207 l 1,18,-1
 208.244 -207 l 2,19,20
 299.244 -207 299.244 -207 346.881 -178 c 0,21,22
 392.042 -149.548 392.042 -149.548 431.097 -74 c 2,23,-1
 447.123 -43 l 1,24,-1
 174.187 1120 l 1,25,-1
 532.187 1120 l 1,26,-1
 685.458 360 l 1,27,-1
 985.088 924 l 10,28,29
 1103.56 1147 1103.56 1147 1374.44 1147 c 0,30,31
 1475.44 1147 1475.44 1147 1551.72 1097 c 128,-1,32
 1628 1047 1628 1047 1661.78 961 c 0,33,34
 1683.07 906.805 1683.07 906.805 1683.07 846.256 c 0,35,36
 1683.07 810.722 1683.07 810.722 1675.74 773 c 1,37,-1
 1651.05 646 l 17,0,-1
EndSplineSet
EndChar
StartChar: uni01B5
Encoding: 437 437 437
Width: 1485
Flags: W
TeX: 117 0 0 0
AnchorPoint: "above" 867.354 1520 basechar 0
Fore
260 1493 m 1,0,-1
 1515 1493 l 1,1,-1
 1470 1260 l 1,2,-1
 1083 881 l 1,3,-1
 1277 881 l 1,4,-1
 1227 621 l 1,5,-1
 817 621 l 1,6,-1
 480 291 l 1,7,-1
 1304 291 l 1,8,-1
 1248 0 l 1,9,-1
 -53 0 l 1,10,-1
 -8 233 l 1,11,-1
 388 621 l 1,12,-1
 210 621 l 1,13,-1
 260 881 l 1,14,-1
 654 881 l 1,15,-1
 982 1202 l 1,16,-1
 204 1202 l 1,17,-1
 260 1493 l 1,0,-1
EndSplineSet
EndChar
StartChar: uni01B6
Encoding: 438 438 438
Width: 1192
Flags: W
TeX: 117 0 0 0
AnchorPoint: "above" 710.102 1147 basechar 0
Fore
226 1120 m 1,0,-1
 1203 1120 l 1,1,-1
 1154 870 l 1,2,-1
 937 682 l 1,3,-1
 1061 682 l 1,4,-1
 1018 461 l 1,5,-1
 682 461 l 1,6,-1
 445 256 l 1,7,-1
 1035 256 l 1,8,-1
 985 0 l 1,9,-1
 -17 0 l 1,10,-1
 32 250 l 1,11,-1
 276 461 l 1,12,-1
 159 461 l 1,13,-1
 202 682 l 1,14,-1
 531 682 l 1,15,-1
 741 864 l 1,16,-1
 176 864 l 1,17,-1
 226 1120 l 1,0,-1
EndSplineSet
EndChar
StartChar: uni01B7
Encoding: 439 439 439
Width: 1582
Flags: W
TeX: 117 0 0 0
Fore
684 195 m 8,0,1
 841 195 841 195 933 248 c 128,-1,2
 1025 301 1025 301 1044 400 c 0,3,4
 1064 502 1064 502 991 554 c 128,-1,5
 917 607 917 607 754 607 c 2,6,-1
 567 607 l 1,7,-1
 615 852 l 1,8,-1
 988 1202 l 1,9,-1
 243 1202 l 1,10,-1
 300 1493 l 1,11,-1
 1522 1493 l 1,12,-1
 1473 1243 l 1,13,-1
 1004 809 l 1,14,15
 1135 798 1135 798 1212 777 c 0,16,17
 1332 744 1332 744 1396 632 c 0,18,19
 1454 529 1454 529 1426 386 c 0,20,21
 1383 164 1383 164 1191 48 c 128,-1,22
 998 -67 998 -67 635 -67 c 16,23,24
 481 -67 481 -67 331 -37 c 128,-1,25
 182 -6 182 -6 42 55 c 1,26,-1
 98 345 l 1,27,28
 240 271 240 271 387 233 c 128,-1,29
 534 195 534 195 684 195 c 8,0,1
EndSplineSet
EndChar
StartChar: uni01B8
Encoding: 440 440 440
Width: 1582
Flags: W
TeX: 117 0 0 0
Fore
689 195 m 16,0,1
 838 195 838 195 1000 233 c 128,-1,29
 1162 271 1162 271 1333 345 c 1,27,28
 1276 55 l 1,26,-1
 1113 -6 1113 -6 951 -37 c 128,-1,25
 790 -67 790 -67 635 -67 c 8,23,24
 272 -67 272 -67 125 48 c 128,-1,22
 -23 164 -23 164 20 386 c 0,20,21
 48 529 48 529 147 632 c 0,18,19
 254 744 254 744 386 777 c 0,16,17
 472 798 472 798 608 809 c 1,14,15
 307 1243 l 1,13,-1
 356 1493 l 1,12,-1
 1578 1493 l 1,11,-1
 1521 1202 l 1,10,-1
 776 1202 l 1,9,-1
 1013 852 l 1,8,-1
 965 607 l 1,7,-1
 778 607 l 2,6,-1
 615 607 615 607 522 554 c 128,-1,5
 428 502 428 502 408 400 c 0,3,4
 389 301 389 301 460 248 c 128,-1,2
 531 195 531 195 689 195 c 16,0,1
EndSplineSet
EndChar
StartChar: uni01B9
Encoding: 441 441 441
Width: 1312
Flags: W
TeX: 117 0 0 0
AnchorPoint: "above" 856.865 1147 basechar 0
Fore
1005 479 m 1,0,-1
 957 234 l 1,1,-1
 770 234 l 2,2,3
 607 234 607 234 514 182 c 0,4,5
 420 129 420 129 400 27 c 0,6,7
 381 -72 381 -72 452 -125 c 128,-1,8
 523 -178 523 -178 676 -178 c 0,9,10
 779 -178 779 -178 891 -150 c 0,11,12
 1003 -123 1003 -123 1122 -69 c 1,13,-1
 1064 -366 l 1,14,15
 944 -403 944 -403 824 -422 c 0,16,17
 705 -440 705 -440 590 -440 c 0,18,19
 264 -440 264 -440 117 -324 c 0,20,21
 -31 -209 -31 -209 12 13 c 0,22,23
 40 156 40 156 139 258 c 0,24,25
 246 371 246 371 378 404 c 0,26,27
 469 427 469 427 633 436 c 1,28,-1
 299 870 l 1,29,-1
 348 1120 l 1,30,-1
 1325 1120 l 1,31,-1
 1275 864 l 1,32,-1
 710 864 l 1,33,-1
 1005 479 l 1,0,-1
EndSplineSet
EndChar
StartChar: uni01BA
Encoding: 442 442 442
Width: 1192
Flags: W
TeX: 117 0 0 0
Fore
775 546 m 17,0,-1
 883 529 883 529 952 481 c 0,56,57
 1031 425 1031 425 1031 322 c 0,54,55
 1031 294 1031 294 1025 261 c 0,52,53
 998 123 998 123 893 56 c 0,50,51
 792 -9 792 -9 557 -36 c 2,48,49
 496 -43 l 2,47,-1
 388 -55 388 -55 352 -73 c 0,45,46
 313 -92 313 -92 305 -132 c 0,43,44
 304 -140 304 -140 304 -147 c 0,41,42
 304 -184 304 -184 342 -204 c 0,39,40
 388 -228 388 -228 488 -228 c 0,37,38
 598 -228 598 -228 709 -206 c 0,35,36
 820 -185 820 -185 929 -142 c 1,33,34
 886 -368 l 1,32,-1
 752 -399 752 -399 647 -412 c 0,30,31
 531 -426 531 -426 425 -426 c 0,28,29
 179 -426 179 -426 66 -351 c 0,26,27
 -23 -292 -23 -292 -23 -186 c 0,24,25
 -23 -158 -23 -158 -17 -127 c 0,22,23
 11 14 11 14 115 81 c 0,20,21
 203 138 203 138 484 175 c 2,18,19
 546 183 l 2,17,-1
 648 196 648 196 678 210 c 0,15,16
 717 228 717 228 725 266 c 0,13,14
 726 274 726 274 726 281 c 0,11,12
 726 315 726 315 690 331 c 0,9,10
 644 352 644 352 397 352 c 10,7,8
 145 352 l 17,6,-1
 736 864 l 1,5,-1
 171 864 l 1,4,-1
 221 1120 l 1,3,-1
 1198 1120 l 1,2,-1
 1149 870 l 1,1,-1
 775 546 l 17,0,-1
EndSplineSet
EndChar
StartChar: uni01BB
Encoding: 443 443 443
Width: 1425
Flags: W
TeX: 117 0 0 0
Fore
497 283 m 1,0,-1
 1154 283 l 1,1,-1
 1099 0 l 1,2,-1
 14 0 l 1,3,-1
 69 283 l 1,4,-1
 418 546 l 1,5,-1
 192 546 l 1,6,-1
 243 806 l 1,7,-1
 759 806 l 1,8,9
 809 850 809 850 841 893 c 0,10,11
 888 956 888 956 901 1024 c 0,12,13
 922 1129 922 1129 864 1193 c 0,14,15
 806 1257 806 1257 689 1257 c 0,16,17
 599 1257 599 1257 484 1218 c 0,18,19
 370 1180 370 1180 233 1104 c 1,20,-1
 297 1432 l 1,21,22
 435 1475 435 1475 566 1498 c 0,23,24
 698 1520 698 1520 820 1520 c 0,25,26
 1088 1520 1088 1520 1213 1402 c 0,27,28
 1339 1284 1339 1284 1298 1073 c 0,29,30
 1274 951 1274 951 1191 846 c 0,31,32
 1176 827 1176 827 1156 806 c 1,33,-1
 1183 806 l 1,34,-1
 1132 546 l 1,35,-1
 848 546 l 1,36,-1
 497 283 l 1,0,-1
EndSplineSet
EndChar
StartChar: uni01BC
Encoding: 444 444 444
Width: 1582
Flags: W
TeX: 117 0 0 0
Fore
167 607 m 1,0,-1
 215 852 l 1,1,-1
 340 1493 l 1,2,-1
 1401 1493 l 1,3,-1
 1344 1202 l 1,4,-1
 668 1202 l 1,5,-1
 600 852 l 1,6,-1
 819 852 l 2,7,8
 1074 852 1074 852 1231 792 c 0,9,10
 1337 752 1337 752 1396 632 c 0,11,12
 1452 517 1452 517 1426 386 c 0,13,14
 1383 164 1383 164 1191 48 c 0,15,16
 998 -67 998 -67 635 -67 c 0,17,18
 254 -67 254 -67 125 48 c 0,19,20
 -20 178 -20 178 23 400 c 1,21,-1
 408 400 l 1,22,23
 389 301 389 301 460 248 c 0,24,25
 531 195 531 195 684 195 c 0,26,27
 841 195 841 195 933 248 c 0,28,29
 1025 301 1025 301 1044 400 c 0,30,31
 1064 502 1064 502 991 554 c 0,32,33
 917 607 917 607 754 607 c 2,34,-1
 552 607 l 1,35,-1
 167 607 l 1,0,-1
EndSplineSet
EndChar
StartChar: uni01BD
Encoding: 445 445 445
Width: 1312
Flags: W
TeX: 117 0 0 0
Fore
151 234 m 1,0,-1
 199 479 l 1,1,-1
 324 1120 l 1,2,-1
 1173 1120 l 1,3,-1
 1130 899 l 1,4,-1
 639 899 l 1,5,-1
 557 479 l 1,6,-1
 563 479 l 2,7,8
 806 479 806 479 906 432 c 0,9,10
 1054 362 1054 362 1107 258 c 0,11,12
 1163 143 1163 143 1137 13 c 0,13,14
 1094 -209 1094 -209 902 -324 c 0,15,16
 709 -440 709 -440 383 -440 c 0,17,18
 268 -440 268 -440 156 -422 c 0,19,20
 45 -403 45 -403 -61 -366 c 1,21,-1
 -4 -69 l 1,22,23
 94 -123 94 -123 195 -150 c 0,24,25
 296 -178 296 -178 399 -178 c 0,26,27
 552 -178 552 -178 644 -125 c 0,28,29
 736 -72 736 -72 755 27 c 0,30,31
 775 129 775 129 702 182 c 0,32,33
 628 234 628 234 465 234 c 2,34,-1
 151 234 l 1,0,-1
EndSplineSet
EndChar
StartChar: uni01BE
Encoding: 446 446 446
Width: 1173
Flags: W
TeX: 117 0 0 0
Fore
289 789 m 1,0,-1
 348 1096 l 1,1,-1
 191 1096 l 1,2,-1
 229 1290 l 1,3,-1
 386 1290 l 1,4,-1
 415 1438 l 1,5,-1
 773 1438 l 1,6,-1
 744 1290 l 1,7,-1
 1002 1290 l 1,8,-1
 964 1096 l 1,9,-1
 706 1096 l 1,10,-1
 693 1029 l 1,11,12
 875 998 875 998 959 904 c 0,13,14
 1086 759 1086 759 1041 528 c 0,15,16
 999 313 999 313 841 180 c 0,17,18
 592 -30 592 -30 350 -30 c 0,19,20
 169 -30 169 -30 92 -12 c 0,21,22
 14 5 14 5 -55 40 c 1,23,-1
 3 338 l 1,24,25
 72 295 72 295 146 274 c 0,26,27
 221 252 221 252 301 252 c 0,28,29
 480 252 480 252 601 366 c 0,30,31
 672 432 672 432 691 528 c 0,32,33
 705 599 705 599 662 675 c 0,34,35
 599 789 599 789 382 789 c 2,36,-1
 289 789 l 1,0,-1
EndSplineSet
EndChar
StartChar: uni01BF
Encoding: 447 447 447
Width: 1466
Flags: W
TeX: 117 0 0 0
Fore
390 -132 m 1,1,-1
 333 -426 l 1,2,-1
 -25 -426 l 1,3,-1
 276 1120 l 1,4,-1
 634 1120 l 1,5,-1
 602 955 l 1,6,7
 710 1066 710 1066 803 1103 c 0,8,9
 915 1147 915 1147 1103 1147 c 0,10,-1
 1110 1147 l 0,11,12
 1312 1147 1312 1147 1370 1035 c 0,13,14
 1419 943 1419 943 1419 850 c 0,15,16
 1419 809 1419 809 1410 769 c 0,17,18
 1313 342 1313 342 390 -132 c 1,1,-1
444 145 m 17,19,20
 985 479 985 479 1015 643 c 0,21,22
 1022 681 1022 681 1022 713 c 0,23,24
 1022 778 1022 778 993 822 c 0,25,26
 950 887 950 887 824 887 c 0,27,28
 735 887 735 887 549 684 c 1,29,30
 497 414 497 414 444 145 c 17,19,20
EndSplineSet
EndChar
StartChar: uni01C0
Encoding: 448 448 448
Width: 762
Flags: W
TeX: 117 0 0 0
Fore
375 1493 m 1,0,-1
 760 1493 l 1,1,-1
 386 -426 l 1,2,-1
 1 -426 l 1,3,-1
 375 1493 l 1,0,-1
EndSplineSet
EndChar
StartChar: uni01C2
Encoding: 450 450 450
Width: 1114
Flags: W
TeX: 117 0 0 0
Fore
548 1493 m 1,0,-1
 933 1493 l 1,1,-1
 824 933 l 1,2,-1
 1175 933 l 1,3,-1
 1129 698 l 1,4,-1
 778 698 l 1,5,-1
 735 478 l 1,6,-1
 1086 478 l 1,7,-1
 1040 241 l 1,8,-1
 689 241 l 1,9,-1
 559 -426 l 1,10,-1
 174 -426 l 1,11,-1
 304 241 l 1,12,-1
 -47 241 l 1,13,-1
 -1 478 l 1,14,-1
 350 478 l 1,15,-1
 393 698 l 1,16,-1
 42 698 l 1,17,-1
 88 933 l 1,18,-1
 439 933 l 1,19,-1
 548 1493 l 1,0,-1
EndSplineSet
EndChar
StartChar: uni01E4
Encoding: 484 484 484
Width: 1681
Flags: W
Fore
1447 382 m 1,0,-1
 1395 111 l 1,1,2
 1249 40 1249 40 1092 6 c 128,-1,3
 935 -29 935 -29 756 -29 c 0,4,5
 438 -29 438 -29 256 132 c 128,-1,6
 74 294 74 294 74 573 c 0,7,8
 74 754 74 754 131 912 c 128,-1,9
 188 1071 188 1071 301 1202 c 0,10,11
 439 1362 439 1362 626 1441 c 128,-1,12
 814 1520 814 1520 1055 1520 c 0,13,14
 1189 1520 1189 1520 1325 1492 c 128,-1,15
 1461 1464 1461 1464 1593 1409 c 1,16,-1
 1534 1100 l 1,17,18
 1412 1171 1412 1171 1296 1206 c 128,-1,19
 1179 1241 1179 1241 1061 1241 c 0,20,21
 803 1241 803 1241 641 1069 c 128,-1,22
 479 897 479 897 479 627 c 0,23,24
 479 448 479 448 574 349 c 128,-1,25
 668 250 668 250 840 250 c 0,26,27
 896 250 896 250 952 258 c 128,-1,28
 1008 265 1008 265 1065 281 c 1,29,-1
 1085 382 l 1,30,-1
 969 382 l 1,31,-1
 982 469 l 1,32,-1
 1102 469 l 1,33,-1
 1122 571 l 1,34,-1
 887 571 l 1,35,-1
 936 829 l 1,36,-1
 1534 829 l 1,37,-1
 1464 469 l 1,38,-1
 1587 469 l 1,39,-1
 1574 382 l 1,40,-1
 1447 382 l 1,0,-1
EndSplineSet
EndChar
StartChar: uni01E5
Encoding: 485 485 485
Width: 1466
Flags: W
Fore
756 887 m 0,0,1
 624 887 624 887 536 768 c 128,-1,2
 449 649 449 649 449 469 c 0,3,4
 449 367 449 367 496 314 c 128,-1,5
 543 260 543 260 633 260 c 0,6,7
 764 260 764 260 852 378 c 128,-1,8
 940 497 940 497 940 674 c 0,9,10
 940 778 940 778 893 832 c 128,-1,11
 846 887 846 887 756 887 c 0,0,1
784 -44 m 1,12,13
 822 21 822 21 840 113 c 2,14,-1
 856 190 l 1,15,16
 770 92 770 92 681 46 c 128,-1,17
 592 0 592 0 487 0 c 0,18,19
 297 0 297 0 186 122 c 128,-1,20
 76 245 76 245 76 457 c 0,21,22
 76 570 76 570 114 684 c 128,-1,23
 153 797 153 797 225 897 c 0,24,25
 313 1018 313 1018 427 1082 c 128,-1,26
 541 1145 541 1145 672 1145 c 0,27,28
 790 1145 790 1145 870 1099 c 128,-1,29
 951 1053 951 1053 1006 954 c 1,30,-1
 1036 1120 l 1,31,-1
 1397 1120 l 1,32,-1
 1208 147 l 2,33,34
 1188 42 1188 42 1151 -44 c 1,35,-1
 1311 -44 l 1,36,-1
 1289 -133 l 1,37,-1
 1106 -133 l 1,38,39
 1047 -231 1047 -231 960 -298 c 0,40,41
 770 -442 770 -442 432 -442 c 0,42,43
 328 -442 328 -442 232 -426 c 128,-1,44
 135 -410 135 -410 41 -377 c 1,45,-1
 94 -98 l 1,46,47
 179 -152 179 -152 264 -178 c 128,-1,48
 349 -205 349 -205 438 -205 c 0,49,50
 611 -205 611 -205 706 -133 c 1,51,-1
 282 -133 l 1,52,-1
 304 -44 l 1,53,-1
 784 -44 l 1,12,13
EndSplineSet
EndChar
StartChar: uni01F0
Encoding: 496 496 496
Width: 702
Flags: W
Fore
281 1120 m 1,0,-1
 641 1120 l 1,1,-1
 426 20 l 2,2,3
 380 -215 380 -215 254 -328 c 128,-1,4
 129 -442 129 -442 -84 -442 c 2,5,-1
 -262 -442 l 1,6,-1
 -217 -207 l 1,7,-1
 -154 -207 l 2,8,9
 -53 -207 -53 -207 -6 -162 c 128,-1,10
 40 -116 40 -116 66 20 c 2,11,-1
 281 1120 l 1,0,-1
625 1263 m 1,12,-1
 365 1263 l 1,13,-1
 182 1639 l 1,14,-1
 358 1639 l 1,15,-1
 514 1412 l 1,16,-1
 758 1639 l 1,17,-1
 954 1639 l 1,18,-1
 625 1263 l 1,12,-1
EndSplineSet
EndChar
StartChar: uni01F6
Encoding: 502 502 502
Width: 2639
Flags: W
TeX: 117 0 0 0
Fore
1178 924 m 1,0,-1
 1289 1493 l 1,1,-1
 1674 1493 l 1,2,-1
 1500 598 l 2,3,4
 1464 413 1464 413 1509 334 c 0,5,6
 1554 254 1554 254 1691 254 c 0,7,8
 1829 254 1829 254 1905 334 c 0,9,10
 1981 413 1981 413 2017 598 c 2,11,-1
 2118 1120 l 1,12,-1
 2503 1120 l 1,13,-1
 2402 598 l 2,14,15
 2340 281 2340 281 2151 126 c 0,16,17
 1962 -29 1962 -29 1636 -29 c 0,18,19
 1312 -30 1312 -30 1182 126 c 0,20,21
 1053 281 1053 281 1115 598 c 2,22,-1
 1122 633 l 1,23,-1
 554 633 l 1,24,-1
 431 0 l 1,25,-1
 46 0 l 1,26,-1
 336 1493 l 1,27,-1
 721 1493 l 1,28,-1
 610 924 l 1,29,-1
 1178 924 l 1,0,-1
EndSplineSet
EndChar
StartChar: uni01F7
Encoding: 503 503 503
Width: 1612
VWidth: 2216
Flags: W
TeX: 117 0 0 0
Fore
458 113 m 1,1,-1
 353 -426 l 1,2,-1
 -41 -426 l 1,3,-1
 332 1493 l 1,4,-1
 726 1493 l 1,5,-1
 690 1308 l 1,6,7
 804 1426 804 1426 912 1471 c 0,8,9
 1030 1520 1030 1520 1249 1520 c 0,10,11
 1471 1520 1471 1520 1535 1396 c 0,12,13
 1587 1295 1587 1295 1587 1189 c 0,14,15
 1587 1147 1587 1147 1578 1104 c 0,16,17
 1489 642 1489 642 458 113 c 1,1,-1
517 417 m 17,18,19
 1109 785 1109 785 1144 965 c 0,20,21
 1152 1006 1152 1006 1152 1041 c 0,22,23
 1152 1113 1152 1113 1120 1162 c 0,24,25
 1073 1234 1073 1234 934 1234 c 0,26,27
 837 1234 837 1234 632 1010 c 1,28,-1
 517 417 l 17,18,19
EndSplineSet
EndChar
StartChar: uni021C
Encoding: 540 540 540
Width: 1414
Flags: W
TeX: 117 0 0 0
Fore
-38 -147 m 1,0,1
 130 -112 130 -112 358 -25 c 0,2,3
 527 39 527 39 653 132 c 0,4,5
 756 207 756 207 774 300 c 0,6,7
 778 321 778 321 778 341 c 0,8,9
 778 402 778 402 736 444 c 0,10,11
 682 498 682 498 597 498 c 0,12,13
 540 498 540 498 472 473 c 2,14,-1
 239 388 l 1,15,-1
 289 642 l 1,16,-1
 541 737 l 2,17,18
 690 793 690 793 795 880 c 0,19,20
 880 951 880 951 902 1066 c 0,21,22
 906 1087 906 1087 906 1105 c 0,23,24
 906 1170 906 1170 856 1207 c 0,25,26
 791 1256 791 1256 688 1256 c 0,27,28
 605 1256 605 1256 483 1208 c 0,29,30
 394 1174 394 1174 269 1100 c 1,31,32
 294 1232 294 1232 318 1356 c 1,33,34
 448 1421 448 1421 554 1464 c 0,35,36
 694 1520 694 1520 825 1520 c 0,37,38
 1070 1520 1070 1520 1193 1416 c 0,39,40
 1307 1320 1307 1320 1307 1193 c 0,41,42
 1307 1164 1307 1164 1301 1133 c 0,43,44
 1269 967 1269 967 1178 864 c 0,45,46
 1074 747 1074 747 929 674 c 1,47,48
 1072 655 1072 655 1133 546 c 0,49,50
 1182 457 1182 457 1182 370 c 0,51,52
 1182 341 1182 341 1176 311 c 0,53,54
 1142 132 1142 132 868 -46 c 0,55,56
 685 -165 685 -165 351 -298 c 0,57,58
 122 -389 122 -389 -93 -430 c 1,59,-1
 -38 -147 l 1,0,1
EndSplineSet
EndChar
StartChar: uni021D
Encoding: 541 541 541
Width: 1244
Flags: W
TeX: 117 0 0 0
Fore
-53 -204 m 1,0,1
 98 -175 98 -175 302 -105 c 0,2,3
 453 -52 453 -52 565 22 c 0,4,5
 656 83 656 83 671 159 c 0,6,7
 674 174 674 174 674 189 c 0,8,9
 674 240 674 240 634 275 c 0,10,11
 584 319 584 319 507 319 c 0,12,13
 457 319 457 319 395 299 c 2,14,-1
 188 230 l 1,15,-1
 228 436 l 1,16,-1
 454 513 l 2,17,18
 587 558 587 558 679 628 c 0,19,20
 754 686 754 686 773 779 c 0,21,22
 775 794 775 794 775 808 c 0,23,24
 775 863 775 863 729 893 c 0,25,26
 669 933 669 933 576 933 c 0,27,28
 501 933 501 933 393 894 c 0,29,30
 313 866 313 866 202 807 c 1,31,32
 223 913 223 913 242 1014 c 1,33,34
 357 1067 357 1067 452 1101 c 0,35,36
 577 1147 577 1147 695 1147 c 0,37,38
 916 1147 916 1147 1029 1063 c 0,39,40
 1134 983 1134 983 1134 877 c 0,41,42
 1134 856 1134 856 1130 833 c 0,43,44
 1104 699 1104 699 1024 615 c 0,45,46
 932 520 932 520 804 461 c 1,47,48
 933 446 933 446 990 358 c 0,49,50
 1037 283 1037 283 1037 210 c 0,51,52
 1037 189 1037 189 1033 167 c 0,53,54
 1005 23 1005 23 761 -122 c 0,55,56
 599 -218 599 -218 300 -326 c 0,57,58
 96 -399 96 -399 -97 -433 c 1,59,-1
 -53 -204 l 1,0,1
EndSplineSet
EndChar
StartChar: uni0220
Encoding: 544 544 544
Width: 1714
Flags: W
TeX: 117 0 0 0
Fore
1163 691 m 18,0,1
 1198 873 1198 873 1204 956 c 0,2,3
 1209 1029 1209 1029 1191 1064 c 0,4,5
 1167 1110 1167 1110 1117 1136 c 0,6,7
 1065 1162 1065 1162 995 1162 c 0,8,9
 838 1162 838 1162 726 1047 c 128,-1,10
 615 932 615 932 576 730 c 2,11,-1
 434 0 l 1,12,-1
 66 0 l 1,13,-1
 356 1493 l 1,14,-1
 727 1493 l 1,15,-1
 683 1266 l 1,16,17
 821 1401 821 1401 946 1459 c 0,18,19
 1077 1520 1077 1520 1221 1520 c 0,20,21
 1448 1520 1448 1520 1536 1362 c 0,22,23
 1624 1204 1624 1204 1565 903 c 2,24,-1
 1307 -426 l 1,25,-1
 946 -426 l 9,26,-1
 1163 691 l 18,0,1
EndSplineSet
EndChar
StartChar: uni0221
Encoding: 545 545 545
Width: 1771
Flags: W
TeX: 117 0 0 0
AnchorPoint: "above" 1273.2 1520 basechar 0
AnchorPoint: "below" 592.739 0 basechar 0
Fore
1300 230 m 0,0,1
 1434 230 1434 230 1450 319 c 0,2,3
 1455 344 1455 344 1428 344 c 0,4,5
 1353 344 1353 344 1301 293 c 2,6,-1
 1255 246 l 1,7,8
 1273 230 1273 230 1300 230 c 0,0,1
607 231 m 0,9,10
 722 231 722 231 799 315 c 0,11,12
 875 399 875 399 906 559 c 128,-1,13
 937 719 937 719 894 803 c 0,14,15
 849 887 849 887 734 887 c 0,16,17
 620 887 620 887 544 803 c 0,18,19
 466 719 466 719 435 559 c 128,-1,20
 404 399 404 399 449 315 c 0,21,22
 493 231 493 231 607 231 c 0,9,10
1258 514 m 9,23,24
 1352 606 1352 606 1458 606 c 0,25,26
 1552 606 1552 606 1592 550 c 0,27,28
 1642 481 1642 481 1610 327 c 0,29,30
 1579 167 1579 167 1496 80 c 0,31,32
 1399 -25 1399 -25 1233 -26 c 0,33,34
 1142 -26 1142 -26 1076 0 c 17,35,36
 1025 -74 1025 -74 980 -154 c 25,37,-1
 830 -82 l 17,38,39
 860 -27 860 -27 928 86 c 17,40,41
 915 100 915 100 907 118 c 1,42,43
 848 50 848 50 772 15 c 0,44,45
 675 -29 675 -29 423 -29 c 0,46,47
 216 -29 216 -29 115 136 c 0,48,49
 14 300 14 300 64 559 c 128,-1,50
 115 818 115 818 280 982 c 0,51,52
 445 1147 445 1147 652 1147 c 0,53,54
 768 1147 768 1147 848 1100 c 0,55,56
 929 1054 929 1054 984 956 c 1,57,-1
 1100 1556 l 1,58,-1
 1460 1556 l 1,59,-1
 1258 514 l 9,23,24
EndSplineSet
EndChar
StartChar: uni0222
Encoding: 546 546 546
Width: 1657
Flags: W
TeX: 117 0 0 0
Fore
814 668 m 0,0,1
 653 668 653 668 554 609 c 128,-1,2
 455 550 455 550 433 440 c 0,3,4
 429 416 429 416 429 395 c 0,5,6
 429 317 429 317 489 272 c 0,7,8
 564 213 564 213 725 213 c 0,9,10
 887 213 887 213 984 272 c 0,11,12
 1080 330 1080 330 1101 440 c 0,13,14
 1106 465 1106 465 1106 488 c 0,15,16
 1106 564 1106 564 1049 610 c 0,17,18
 976 668 976 668 814 668 c 0,0,1
1005 1346 m 9,19,-1
 1039 1519 l 1,20,21
 1319 1511 1319 1511 1455 1422 c 0,22,23
 1575 1343 1575 1343 1575 1205 c 0,24,25
 1575 1171 1575 1171 1568 1133 c 0,26,27
 1543 1006 1543 1006 1444 921 c 0,28,29
 1343 836 1343 836 1172 795 c 1,30,31
 1346 753 1346 753 1421 658 c 0,32,33
 1475 590 1475 590 1475 495 c 0,34,35
 1475 459 1475 459 1467 420 c 0,36,37
 1424 198 1424 198 1225 84 c 0,38,39
 1026 -29 1026 -29 678 -29 c 0,40,41
 329 -29 329 -29 173 84 c 0,42,43
 51 173 51 173 51 329 c 0,44,45
 51 372 51 372 60 420 c 0,46,47
 88 564 88 564 200 658 c 0,48,49
 311 753 311 753 501 795 c 1,50,51
 339 825 339 825 278 911 c 0,52,53
 225 985 225 985 225 1052 c 0,54,55
 225 1068 225 1068 228 1083 c 0,56,57
 249 1191 249 1191 438 1291 c 0,58,59
 567 1360 567 1360 884 1369 c 1,60,-1
 854 1215 l 17,61,62
 742 1217 742 1217 681 1180 c 0,63,64
 588 1124 588 1124 577 1064 c 0,65,66
 575 1053 575 1053 575 1043 c 0,67,68
 575 988 575 988 636 947 c 0,69,70
 693 909 693 909 861 909 c 0,71,72
 994 909 994 909 1102 967 c 0,73,74
 1192 1015 1192 1015 1215 1134 c 0,75,76
 1220 1158 1220 1158 1220 1179 c 0,77,78
 1220 1252 1220 1252 1165 1290 c 0,79,80
 1095 1338 1095 1338 1005 1346 c 9,19,-1
EndSplineSet
EndChar
StartChar: uni0223
Encoding: 547 547 547
Width: 1349
Flags: W
TeX: 117 0 0 0
Fore
949 1218 m 9,0,-1
 1324 1323 l 1,1,2
 1344 1275 1344 1275 1344 1216 c 0,3,4
 1344 1177 1344 1177 1335 1133 c 8,5,6
 1311 1007 1311 1007 1224 921 c 0,7,8
 1139 836 1139 836 995 795 c 1,9,10
 1137 754 1137 754 1197 658 c 0,11,12
 1238 594 1238 594 1238 507 c 0,13,14
 1238 466 1238 466 1229 420 c 0,15,16
 1186 198 1186 198 1015 84 c 0,17,18
 846 -29 846 -29 556 -29 c 0,19,20
 265 -29 265 -29 139 84 c 0,21,22
 45 169 45 169 45 314 c 0,23,24
 45 364 45 364 56 420 c 0,25,26
 84 564 84 564 179 658 c 0,27,28
 275 753 275 753 436 795 c 1,29,30
 308 836 308 836 255 921 c 0,31,32
 219 979 219 979 219 1056 c 0,33,34
 219 1092 219 1092 227 1133 c 0,35,36
 249 1244 249 1244 312 1323 c 1,37,-1
 646 1218 l 17,38,39
 599 1171 599 1171 584 1094 c 0,40,41
 579 1067 579 1067 579 1045 c 0,42,43
 579 991 579 991 607 957 c 0,44,45
 647 909 647 909 739 909 c 0,46,47
 829 909 829 909 887 957 c 128,-1,48
 945 1005 945 1005 963 1094 c 16,49,50
 968 1120 968 1120 968 1143 c 0,51,52
 968 1187 968 1187 949 1218 c 9,0,-1
692 668 m 0,53,54
 584 668 584 668 514 609 c 0,55,56
 445 550 445 550 424 440 c 0,57,58
 417 405 417 405 417 376 c 0,59,60
 417 312 417 312 449 272 c 0,61,62
 495 213 495 213 603 213 c 0,63,64
 710 213 710 213 779 272 c 0,65,66
 847 330 847 330 869 440 c 0,67,68
 876 476 876 476 876 506 c 0,69,70
 876 570 876 570 845 610 c 0,71,72
 799 668 799 668 692 668 c 0,53,54
EndSplineSet
EndChar
StartChar: uni0224
Encoding: 548 548 548
Width: 1485
Flags: W
TeX: 117 0 0 0
Fore
1291 0 m 1,0,1
 1232 -268 1232 -268 1047 -377 c 0,2,3
 935 -442 935 -442 782 -442 c 2,4,-1
 501 -442 l 1,5,-1
 547 -207 l 1,6,-1
 713 -207 l 2,7,8
 815 -207 815 -207 862 -161 c 0,9,10
 905 -118 905 -118 931 -0 c 1,11,-1
 -10 0 l 1,12,-1
 35 233 l 1,13,-1
 1024 1202 l 1,14,-1
 246 1202 l 1,15,-1
 303 1493 l 1,16,-1
 1558 1493 l 1,17,-1
 1513 1260 l 1,18,-1
 523 291 l 1,19,-1
 1347 291 l 1,20,-1
 1291 0 l 1,0,1
EndSplineSet
EndChar
StartChar: uni0225
Encoding: 549 549 549
Width: 1192
Flags: W
TeX: 117 0 0 0
Fore
1028 0 m 1,0,1
 970 -268 970 -268 784 -377 c 0,2,3
 672 -442 672 -442 519 -442 c 2,4,-1
 238 -442 l 1,5,-1
 284 -207 l 1,6,-1
 450 -207 l 2,7,8
 552 -207 552 -207 599 -161 c 0,9,10
 642 -118 642 -118 668 0 c 1,11,-1
 26 0 l 1,12,-1
 75 250 l 1,13,-1
 784 864 l 1,14,-1
 219 864 l 1,15,-1
 269 1120 l 1,16,-1
 1246 1120 l 1,17,-1
 1197 870 l 1,18,-1
 488 256 l 1,19,-1
 1078 256 l 1,20,-1
 1028 0 l 1,0,1
EndSplineSet
EndChar
StartChar: uni0234
Encoding: 564 564 564
Width: 1007
Flags: W
TeX: 117 0 0 0
AnchorPoint: "above" 515.197 1520 basechar 0
AnchorPoint: "below" 219.739 0 basechar 0
Fore
549 230 m 0,0,0
 683 230 683 230 699 319 c 0,1,2
 704 344 704 344 677 344 c 0,0,0
 602 344 602 344 550 293 c 2,0,0
 504 246 l 1,1,2
 522 230 522 230 549 230 c 0,0,0
494 514 m 9,2,-1
 588 606 588 606 694 606 c 0,0,0
 781 606 781 606 822 558 c 0,0,0
 880 490 880 490 846 327 c 0,0,0
 815 166 815 166 732 78 c 0,0,0
 635 -26 635 -26 469 -26 c 0,0,0
 378 -26 378 -26 312 0 c 17,0,0
 261 -74 261 -74 216 -154 c 25,0,0
 66 -82 l 17,0,0
 96 -27 96 -27 164 86 c 17,0,0
 74 198 74 198 144 559 c 18,3,-1
 338 1556 l 1,0,-1
 696 1556 l 1,1,-1
 494 514 l 9,2,-1
EndSplineSet
EndChar
StartChar: uni0235
Encoding: 565 565 565
Width: 1775
Flags: W
TeX: 117 0 0 0
Fore
1301 514 m 25,0,0
 1395 606 1395 606 1501 606 c 0,0,0
 1582 606 1582 606 1624 564 c 0,0,0
 1689 498 1689 498 1654 327 c 0,0,0
 1618 154 1618 154 1527 66 c 0,0,0
 1432 -26 1432 -26 1276 -26 c 0,0,0
 1185 -26 1185 -26 1119 0 c 17,0,0
 1069 -74 1069 -74 1024 -154 c 25,0,0
 874 -82 l 17,0,0
 904 -27 904 -27 972 86 c 17,0,0
 877 205 877 205 943 522 c 0,4,5
 971 656 971 656 976 722 c 0,6,7
 980 777 980 777 969 803 c 0,7,8
 954 838 954 838 922 858 c 128,-1,9
 890 877 890 877 844 877 c 0,10,11
 732 877 732 877 651 790 c 128,-1,12
 570 704 570 704 541 551 c 2,13,-1
 433 0 l 1,14,-1
 75 0 l 1,15,-1
 293 1120 l 1,16,-1
 651 1120 l 1,17,-1
 619 956 l 1,18,19
 719 1054 719 1054 819 1100 c 128,-1,20
 919 1147 919 1147 1029 1147 c 0,21,22
 1223 1147 1223 1147 1301 1028 c 128,-1,23
 1378 909 1378 909 1334 682 c 10,0,-1
 1301 514 l 25,0,0
1357 230 m 0,0,0
 1492 234 1492 234 1506 319 c 0,1,2
 1510 344 1510 344 1484 344 c 0,0,0
 1410 346 1410 346 1357 293 c 2,0,0
 1311 246 l 1,1,2
 1330 230 1330 230 1357 230 c 0,0,0
EndSplineSet
EndChar
StartChar: uni0236
Encoding: 566 566 566
Width: 1048
Flags: W
TeX: 117 0 0 0
AnchorPoint: "above" 564.86 1520 basechar 0
AnchorPoint: "below" 269.402 0 basechar 0
Fore
587 240 m 0,0,0
 722 244 722 244 736 329 c 0,1,2
 740 354 740 354 714 354 c 0,0,0
 640 356 640 356 587 303 c 2,0,0
 541 256 l 1,1,2
 560 240 560 240 587 240 c 0,0,0
718 1438 m 1,0,-1
 656 1120 l 1,1,-1
 1025 1120 l 1,2,-1
 975 864 l 1,3,-1
 606 864 l 1,4,-1
 538 508 l 25,5,6
 640 604 640 604 746 604 c 0,0,0
 837 604 837 604 878 552 c 0,0,0
 931 483 931 483 899 325 c 128,-1,0
 866 167 866 167 787 80 c 0,0,0
 690 -28 690 -28 521 -28 c 0,0,0
 430 -28 430 -28 364 -2 c 17,0,0
 314 -76 314 -76 268 -156 c 25,0,0
 118 -84 l 17,0,0
 151 -22 151 -22 207 68 c 1,0,0
 195 77 195 77 187 88 c 16,0,0
 115 177 115 177 156 389 c 2,14,-1
 248 864 l 1,15,-1
 70 864 l 1,16,-1
 120 1120 l 1,17,-1
 298 1120 l 1,18,-1
 360 1438 l 1,19,-1
 718 1438 l 1,0,-1
EndSplineSet
EndChar
StartChar: dotlessj
Encoding: 567 567 567
Width: 702
Flags: W
AnchorPoint: "below" 201.521 -430 basechar 0
AnchorPoint: "above" 491 1147 basechar 0
Fore
281 1120 m 1,0,-1
 641 1120 l 1,1,-1
 426 20 l 2,2,3
 380 -215 380 -215 254.5 -328.5 c 128,-1,4
 129 -442 129 -442 -84 -442 c 2,5,-1
 -262 -442 l 1,6,-1
 -217 -207 l 1,7,-1
 -154 -207 l 2,8,9
 -53 -207 -53 -207 -6.5 -161.5 c 128,-1,10
 40 -116 40 -116 66 20 c 1,11,-1
 281 1120 l 1,0,-1
EndSplineSet
EndChar
StartChar: uni0238
Encoding: 568 568 568
Width: 2228
Flags: W
TeX: 117 0 0 0
Fore
594 231 m 0,0,1
 709 231 709 231 786 315 c 0,2,3
 863 399 863 399 894 559 c 0,4,5
 925 719 925 719 881 803 c 0,6,7
 837 887 837 887 722 887 c 0,8,9
 608 887 608 887 531 803 c 0,10,11
 454 719 454 719 423 559 c 0,12,13
 392 399 392 399 436 315 c 0,14,15
 480 231 480 231 594 231 c 0,0,1
1426 231 m 0,16,17
 1541 231 1541 231 1618 315 c 0,18,19
 1695 399 1695 399 1726 559 c 0,20,21
 1757 719 1757 719 1713 803 c 0,22,23
 1669 887 1669 887 1554 887 c 0,24,25
 1439 887 1439 887 1361 802 c 0,26,27
 1297 733 1297 733 1265 614 c 2,28,-1
 1244 504 l 2,29,30
 1229 385 1229 385 1266 316 c 0,31,32
 1311 231 1311 231 1426 231 c 0,16,17
1446 1556 m 1,33,-1
 1448 1556 l 1,34,-1
 1332 959 l 1,35,36
 1424 1055 1424 1055 1522 1100 c 0,37,38
 1621 1147 1621 1147 1738 1147 c 0,39,40
 1945 1147 1945 1147 2046 982 c 0,41,42
 2147 818 2147 818 2096 559 c 0,43,44
 2046 300 2046 300 1881 136 c 0,45,46
 1716 -29 1716 -29 1509 -29 c 0,47,48
 1392 -29 1392 -29 1311 18 c 0,49,50
 1231 63 1231 63 1177 159 c 1,51,-1
 1146 0 l 1,52,-1
 1144 0 l 1,53,-1
 786 0 l 1,54,-1
 817 162 l 1,55,56
 724 63 724 63 626 17 c 0,57,58
 528 -29 528 -29 411 -29 c 0,59,60
 204 -29 204 -29 103 136 c 0,61,62
 2 300 2 300 52 559 c 0,63,64
 103 818 103 818 268 982 c 0,65,66
 433 1147 433 1147 640 1147 c 0,67,68
 756 1147 756 1147 836 1100 c 0,69,70
 916 1054 916 1054 971 956 c 1,71,-1
 1088 1556 l 1,72,-1
 1446 1556 l 1,33,-1
EndSplineSet
EndChar
StartChar: uni0239
Encoding: 569 569 569
Width: 2228
Flags: W
TeX: 117 0 0 0
Fore
800 887 m 0,0,1
 686 887 686 887 610 803 c 0,2,3
 533 719 533 719 502 559 c 0,4,5
 470 399 470 399 515 315 c 0,6,7
 559 231 559 231 673 231 c 0,8,9
 788 231 788 231 865 315 c 0,10,11
 941 399 941 399 973 559 c 0,12,13
 1004 719 1004 719 960 803 c 0,14,15
 915 887 915 887 800 887 c 0,0,1
1632 887 m 0,16,17
 1517 887 1517 887 1439 802 c 0,18,19
 1376 733 1376 733 1343 614 c 2,20,-1
 1322 504 l 2,21,22
 1308 385 1308 385 1345 316 c 0,23,24
 1390 231 1390 231 1505 231 c 0,25,26
 1620 231 1620 231 1697 315 c 0,27,28
 1773 399 1773 399 1805 559 c 0,29,30
 1836 719 1836 719 1792 803 c 0,31,32
 1747 887 1747 887 1632 887 c 0,16,17
1255 159 m 1,33,-1
 1141 -426 l 1,34,-1
 1139 -426 l 1,35,-1
 781 -426 l 1,36,-1
 895 162 l 1,37,38
 802 63 802 63 704 17 c 0,39,40
 606 -29 606 -29 489 -29 c 0,41,42
 282 -29 282 -29 181 136 c 0,43,44
 80 300 80 300 131 559 c 0,45,46
 181 818 181 818 346 982 c 0,47,48
 510 1145 510 1145 717 1145 c 0,49,50
 834 1145 834 1145 915 1099 c 0,51,52
 995 1053 995 1053 1049 954 c 1,53,-1
 1082 1120 l 1,54,-1
 1440 1120 l 1,55,-1
 1442 1120 l 1,56,-1
 1410 959 l 1,57,58
 1502 1055 1502 1055 1600 1100 c 0,59,60
 1699 1147 1699 1147 1816 1147 c 0,61,62
 2023 1147 2023 1147 2124 982 c 0,63,64
 2225 818 2225 818 2175 559 c 0,65,66
 2124 300 2124 300 1959 136 c 0,67,68
 1794 -29 1794 -29 1587 -29 c 0,69,70
 1470 -29 1470 -29 1389 18 c 0,71,72
 1309 63 1309 63 1255 159 c 1,33,-1
EndSplineSet
EndChar
StartChar: uni023A
Encoding: 570 570 570
Width: 1585
Flags: W
TeX: 117 0 0 0
Fore
1002 272 m 1,0,-1
 400 272 l 1,1,-1
 252 0 l 1,2,-1
 14 -0 l 1,3,-1
 -74 -74 l 1,4,-1
 -134 0 l 1,5,-1
 -135 0 l 1,6,-1
 -135 1 l 1,7,-1
 -166 39 l 1,8,-1
 -66 122 l 1,9,-1
 708 1493 l 1,10,-1
 1167 1493 l 1,11,-1
 1219 1198 l 1,12,-1
 1659 1567 l 1,13,-1
 1750 1452 l 1,14,-1
 1248 1032 l 1,15,-1
 1430 0 l 1,16,-1
 1043 0 l 1,17,-1
 1002 272 l 1,0,-1
637 711 m 1,18,-1
 901 932 l 1,19,-1
 870 1143 l 1,20,-1
 637 711 l 1,18,-1
670 549 m 1,21,-1
 959 549 l 1,22,-1
 927 763 l 1,23,-1
 670 549 l 1,21,-1
EndSplineSet
EndChar
StartChar: uni023B
Encoding: 571 571 571
Width: 1503
Flags: W
TeX: 117 0 0 0
Fore
-115 -74 m 1,0,-1
 -207 39 l 1,1,-1
 126 317 l 1,2,3
 53 495 53 495 102 745 c 0,4,5
 171 1103 171 1103 430 1312 c 0,6,7
 688 1520 688 1520 1061 1520 c 0,8,9
 1186 1520 1186 1520 1296 1492 c 0,10,11
 1381 1470 1381 1470 1458 1432 c 1,12,-1
 1618 1567 l 1,13,-1
 1709 1452 l 1,14,-1
 1470 1252 l 1,15,-1
 1441 1100 l 1,16,17
 1399 1133 1399 1133 1357 1157 c 1,18,-1
 511 450 l 1,19,20
 525 413 525 413 547 382 c 0,21,22
 639 250 639 250 845 250 c 0,23,24
 960 250 960 250 1071 284 c 0,25,26
 1182 318 1182 318 1303 391 c 1,27,-1
 1243 82 l 1,28,29
 1126 27 1126 27 1006 -1 c 0,30,31
 885 -29 885 -29 760 -29 c 0,32,33
 387 -29 387 -29 210 180 c 2,34,-1
 201 190 l 1,35,-1
 -115 -74 l 1,0,-1
485 618 m 1,36,-1
 1205 1221 l 1,37,38
 1127 1241 1127 1241 1038 1241 c 0,39,40
 832 1241 832 1241 688 1109 c 0,41,42
 545 977 545 977 500 745 c 0,43,44
 487 677 487 677 485 618 c 1,36,-1
EndSplineSet
EndChar
StartChar: uni023C
Encoding: 572 572 572
Width: 1214
Flags: W
TeX: 117 0 0 0
Fore
-30 -94 m 1,0,-1
 -124 0 l 1,1,-1
 116 213 l 1,2,3
 47 352 47 352 88 559 c 0,4,5
 141 836 141 836 343 992 c 0,6,7
 544 1147 544 1147 847 1147 c 0,8,9
 935 1147 935 1147 1017 1132 c 0,10,11
 1070 1122 1070 1122 1121 1105 c 1,12,-1
 1247 1217 l 1,13,-1
 1336 1116 l 1,14,-1
 1153 954 l 1,15,-1
 1122 793 l 1,16,17
 1079 827 1079 827 1034 849 c 1,18,-1
 474 352 l 1,19,20
 483 332 483 332 496 314 c 0,21,22
 563 227 563 227 713 227 c 0,23,24
 797 227 797 227 877 252 c 0,25,26
 958 277 958 277 1031 326 c 1,27,-1
 974 33 l 1,28,29
 884 2 884 2 795 -14 c 0,30,31
 705 -29 705 -29 618 -29 c 0,32,33
 337 -29 337 -29 195 105 c 1,34,-1
 -30 -94 l 1,0,-1
453 512 m 1,35,-1
 878 890 l 1,36,37
 860 891 860 891 842 891 c 0,38,39
 692 891 692 891 592 804 c 0,40,41
 491 716 491 716 461 559 c 0,42,43
 456 535 456 535 453 512 c 1,35,-1
EndSplineSet
EndChar
StartChar: uni023D
Encoding: 573 573 573
Width: 1305
Flags: W
TeX: 117 0 0 0
Fore
333 1493 m 1,0,-1
 718 1493 l 1,1,-1
 599 881 l 1,2,-1
 800 881 l 1,3,-1
 750 621 l 1,4,-1
 549 621 l 1,5,-1
 484 291 l 1,6,-1
 1160 291 l 1,7,-1
 1104 0 l 1,8,-1
 43 0 l 1,9,-1
 164 621 l 1,10,-1
 -27 621 l 1,11,-1
 23 881 l 1,12,-1
 214 881 l 1,13,-1
 333 1493 l 1,0,-1
EndSplineSet
EndChar
StartChar: uni023E
Encoding: 574 574 574
Width: 1397
Flags: W
TeX: 117 0 0 0
Fore
1498.48 1320 m 1,0,-1
 1475.54 1202 l 1,1,-1
 1357.54 1202 l 1,2,-1
 906.259 825 l 1,3,-1
 745.896 0 l 1,4,-1
 360.896 0 l 1,5,-1
 446.423 440 l 1,6,-1
 -168.489 -74 l 1,7,-1
 -259.524 39 l 1,8,-1
 490.547 667 l 1,9,-1
 594.54 1202 l 1,10,-1
 99.54 1202 l 1,11,-1
 156.104 1493 l 1,12,-1
 1477.1 1493 l 1,13,-1
 1565.49 1567 l 1,14,-1
 1656.13 1452 l 1,15,-1
 1498.48 1320 l 1,0,-1
950.383 1052 m 1,16,-1
 1129.54 1202 l 1,17,-1
 979.54 1202 l 1,18,-1
 950.383 1052 l 1,16,-1
EndSplineSet
EndChar
StartChar: uni023F
Encoding: 575 575 575
Width: 1219
Flags: W
TeX: 117 0 0 0
Fore
1194 1085 m 1,0,-1
 1141 813 l 1,1,2
 1036 861 1036 861 933 885 c 0,3,4
 831 909 831 909 736 909 c 0,5,6
 634 909 634 909 580 884 c 0,7,8
 525 858 525 858 515 805 c 0,9,10
 506 762 506 762 539 739 c 0,11,12
 573 716 573 716 667 705 c 2,13,-1
 729 696 l 2,14,15
 997 661 997 661 1076 581 c 0,16,17
 1156 501 1156 501 1122 330 c 0,18,19
 1088 151 1088 151 938 61 c 0,20,21
 799 -23 799 -23 563 -29 c 1,22,-1
 735 -186 l 2,23,24
 812 -257 812 -257 890 -257 c 2,25,-1
 1105 -257 l 1,26,-1
 1060 -492 l 1,27,-1
 853 -492 l 2,28,29
 685 -492 685 -492 554 -372 c 2,30,-1
 359 -192 l 2,31,32
 134 14 134 14 77 38 c 2,33,-1
 67 41 l 1,34,-1
 120 313 l 1,35,36
 217 261 217 261 325 235 c 0,37,38
 432 209 432 209 548 209 c 0,39,40
 653 209 653 209 712 238 c 0,41,42
 770 267 770 267 781 324 c 0,43,44
 791 372 791 372 759 396 c 0,45,46
 728 418 728 418 620 432 c 2,47,-1
 559 440 l 2,48,49
 325 470 325 470 245 551 c 0,50,51
 165 632 165 632 197 797 c 0,52,53
 232 975 232 975 371 1061 c 0,54,55
 509 1147 509 1147 761 1147 c 0,56,57
 860 1147 860 1147 966 1132 c 0,58,59
 1072 1117 1072 1117 1194 1085 c 1,0,-1
EndSplineSet
EndChar
StartChar: uni0240
Encoding: 576 576 576
Width: 1192
Flags: W
TeX: 117 0 0 0
Fore
274 1120 m 1,0,-1
 1251 1120 l 1,1,-1
 1202 870 l 1,2,-1
 355 141 l 1,3,4
 445 83 445 83 542 -7 c 2,5,-1
 738 -186 l 2,6,7
 815 -257 815 -257 893 -257 c 2,8,-1
 1108 -257 l 1,9,-1
 1062 -492 l 1,10,-1
 855 -492 l 2,11,12
 688 -492 688 -492 557 -372 c 2,13,-1
 362 -192 l 2,14,15
 171 -17 171 -17 31 0 c 1,16,-1
 80 250 l 1,17,-1
 789 864 l 1,18,-1
 224 864 l 1,19,-1
 274 1120 l 1,0,-1
EndSplineSet
EndChar
StartChar: uni0241
Encoding: 577 577 577
Width: 1601
Flags: W
TeX: 117 0 0 0
Fore
600 1214 m 1,0,-1
 522 1214 522 1214 521 1213 c 2,13,14
 477 1213 477 1213 457 1193 c 0,15,16
 419 1156 419 1156 407 1109 c 0,17,18
 404 1095 404 1095 397 1062 c 1,19,-1
 142 1062 l 1,20,-1
 157 1139 l 2,21,22
 187 1294 187 1294 248 1359 c 0,23,24
 271 1383 271 1383 309 1412 c 0,25,26
 396 1475 396 1475 538 1488 c 0,27,28
 589 1493 589 1493 654 1493 c 2,29,-1
 1072 1493 l 2,30,31
 1357 1493 1357 1493 1485 1366 c 0,32,33
 1613 1240 1613 1240 1567 1006 c 0,34,35
 1522 771 1522 771 1345 644 c 0,36,37
 1168 518 1168 518 883 518 c 2,38,-1
 850 518 l 1,39,-1
 749 0 l 1,40,-1
 364 0 l 1,41,-1
 519 797 l 1,1,-1
 896 797 l 2,2,3
 1008 797 1008 797 1079 852 c 0,4,5
 1151 906 1151 906 1170 1006 c 0,6,7
 1190 1106 1190 1106 1139 1160 c 0,8,9
 1089 1214 1089 1214 977 1214 c 2,10,-1
 600 1214 l 1,0,-1
EndSplineSet
EndChar
StartChar: uni0242
Encoding: 578 578 578
Width: 1258
Flags: W
TeX: 117 0 0 0
Fore
519 451 m 2,0,1
 630 451 630 451 703 506 c 0,2,3
 774 560 774 560 794 660 c 0,4,5
 813 760 813 760 763 814 c 0,6,7
 712 868 712 868 600 868 c 0,8,9
 468 868 468 868 439 716 c 1,10,-1
 114 716 l 1,11,12
 202 1148 202 1148 655 1147 c 0,13,14
 978 1147 978 1147 1108 1020 c 0,15,16
 1236 894 1236 894 1191 660 c 0,17,18
 1145 425 1145 425 967 298 c 0,19,20
 843 210 843 210 666 183 c 1,21,-1
 631 0 l 1,22,-1
 246 0 l 1,23,-1
 333 451 l 1,24,-1
 519 451 l 2,0,1
EndSplineSet
EndChar
StartChar: uni0243
Encoding: 579 579 579
Width: 1561
Flags: W
TeX: 0 0 0 0
AnchorPoint: "below" 654.896 0 basechar 0
AnchorPoint: "above" 950.354 1520 basechar 0
Fore
1167 799 m 1,0,1
 1284 763 1284 763 1333 666 c 128,-1,2
 1382 569 1382 569 1355 428 c 0,3,4
 1313 212 1313 212 1146 106 c 128,-1,5
 980 0 980 0 682 0 c 2,6,-1
 43 0 l 1,7,-1
 105 321 l 1,8,-1
 -71 321 l 1,9,-1
 -20 581 l 1,10,-1
 156 581 l 1,11,-1
 333 1493 l 1,12,-1
 911 1493 l 2,13,14
 1222 1493 1222 1493 1343 1399 c 128,-1,15
 1465 1305 1465 1305 1424 1098 c 0,16,17
 1403 989 1403 989 1337 912 c 128,-1,18
 1271 836 1271 836 1167 799 c 1,0,1
705 262 m 2,19,20
 821 262 821 262 889 311 c 128,-1,21
 957 360 957 360 976 459 c 0,22,23
 995 556 995 556 946 604 c 128,-1,24
 898 653 898 653 781 653 c 2,25,-1
 555 653 l 1,26,-1
 541 581 l 1,27,-1
 774 581 l 1,28,-1
 723 321 l 1,29,-1
 490 321 l 1,30,-1
 479 262 l 1,31,-1
 705 262 l 2,19,20
819 915 m 2,32,33
 910 915 910 915 965 955 c 128,-1,34
 1019 995 1019 995 1034 1073 c 0,35,36
 1049 1150 1049 1150 1010 1190 c 128,-1,37
 971 1231 971 1231 880 1231 c 2,38,-1
 667 1231 l 1,39,-1
 606 915 l 1,40,-1
 819 915 l 2,32,33
EndSplineSet
EndChar
StartChar: uni0244
Encoding: 580 580 580
Width: 1663
Flags: W
TeX: 0 0 0 0
AnchorPoint: "above" 983.172 1520 basechar 0
AnchorPoint: "below" 687.714 0 basechar 0
Fore
336 1493 m 1,0,-1
 721 1493 l 1,1,-1
 604 890 l 1,2,-1
 1121 890 l 1,3,-1
 1238 1493 l 1,4,-1
 1623 1493 l 1,5,-1
 1506 890 l 1,6,-1
 1647 890 l 1,7,-1
 1609 696 l 1,8,-1
 1468 696 l 1,9,-1
 1449 598 l 2,10,11
 1387 281 1387 281 1198 126 c 128,-1,12
 1009 -29 1009 -29 683 -29 c 0,13,14
 358 -29 358 -29 229 126 c 128,-1,15
 100 281 100 281 162 598 c 2,16,-1
 181 696 l 1,17,-1
 41 696 l 1,18,-1
 79 890 l 1,19,-1
 219 890 l 1,20,-1
 336 1493 l 1,0,-1
1083 696 m 1,21,-1
 566 696 l 1,22,-1
 547 598 l 2,23,24
 511 413 511 413 556 334 c 128,-1,25
 601 254 601 254 738 254 c 0,26,27
 876 254 876 254 952 334 c 128,-1,28
 1028 413 1028 413 1064 598 c 2,29,-1
 1083 696 l 1,21,-1
EndSplineSet
EndChar
StartChar: uni0246
Encoding: 582 582 582
Width: 1399
Flags: W
TeX: 0 0 0 0
AnchorPoint: "below" 544.896 0 basechar 0
AnchorPoint: "above" 840.354 1520 basechar 0
Fore
1222 1683 m 1,0,-1
 1394 1683 l 1,1,-1
 1300 1493 l 1,2,-1
 1372 1493 l 1,3,-1
 1316 1202 l 1,4,-1
 1156 1202 l 1,5,-1
 1018 924 l 1,6,-1
 1223 924 l 1,7,-1
 1166 633 l 1,8,-1
 874 633 l 1,9,-1
 704 291 l 1,10,-1
 1160 291 l 1,11,-1
 1104 0 l 1,12,-1
 560 0 l 1,13,-1
 466 -190 l 1,14,-1
 295 -190 l 1,15,-1
 389 -0 l 1,16,-1
 43 0 l 1,17,-1
 333 1493 l 1,18,-1
 1128 1493 l 1,19,-1
 1222 1683 l 1,0,-1
533 291 m 1,20,-1
 702 633 l 1,21,-1
 551 633 l 1,22,-1
 484 291 l 1,23,-1
 533 291 l 1,20,-1
846 924 m 1,24,-1
 984 1202 l 1,25,-1
 662 1202 l 1,26,-1
 608 924 l 1,27,-1
 846 924 l 1,24,-1
EndSplineSet
EndChar
StartChar: uni0247
Encoding: 583 583 583
Width: 1389
Flags: W
TeX: 0 0 0 0
AnchorPoint: "below" 621.147 0 basechar 0
AnchorPoint: "above" 844.102 1147 basechar 0
Fore
1130 1067 m 1,0,1
 1306 948 1306 948 1306 708 c 0,0,0
 1306 640 1306 640 1292 563 c 2,1,-1
 1272 461 l 1,2,-1
 708 461 l 1,3,-1
 550 233 l 1,4,5
 608 209 608 209 708 209 c 0,6,7
 922 209 922 209 1196 344 c 1,8,-1
 1142 68 l 1,9,10
 867 -29 867 -29 616 -29 c 0,11,12
 486 -29 486 -29 387 -1 c 1,13,-1
 255 -190 l 1,14,-1
 84 -190 l 1,15,-1
 255 56 l 1,16,17
 74 171 74 171 74 412 c 0,0,0
 74 480 74 480 89 559 c 0,1,2
 142 833 142 833 338 990 c 128,-1,3
 534 1147 534 1147 824 1147 c 0,4,5
 921 1147 921 1147 999 1126 c 1,6,-1
 1127 1310 l 1,7,-1
 1299 1310 l 1,8,-1
 1130 1067 l 1,0,1
690 682 m 1,9,-1
 842 900 l 1,10,11
 812 909 812 909 776 909 c 0,12,13
 672 909 672 909 595.5 850.5 c 128,-1,14
 519 792 519 792 482 682 c 1,15,-1
 690 682 l 1,9,-1
448 334 m 1,16,-1
 537 461 l 1,17,-1
 435 461 l 1,18,19
 433 442 433 442 433 407.5 c 128,-1,0
 433 373 433 373 448 334 c 1,16,-1
862 682 m 1,1,-1
 947 682 l 1,2,3
 953 712 953 712 953 742 c 128,-1,0
 953 772 953 772 944 799 c 1,1,-1
 862 682 l 1,1,-1
EndSplineSet
EndChar
StartChar: uni0248
Encoding: 584 584 584
Width: 762
Flags: W
TeX: 0 0 0 0
AnchorPoint: "below" 150.159 -430 basechar 0
AnchorPoint: "above" 529.201 1520 basechar 0
Fore
334 1493 m 1,0,-1
 719 1493 l 1,1,-1
 590 831 l 1,2,-1
 754 831 l 1,3,-1
 703 565 l 1,4,-1
 539 565 l 1,5,-1
 457 145 l 2,6,7
 403 -134 403 -134 224.5 -272 c 128,-1,8
 46 -410 46 -410 -261 -410 c 2,9,-1
 -339 -410 l 1,10,-1
 -282 -119 l 1,11,-1
 -222 -119 l 2,12,13
 -102 -119 -102 -119 -27.5 -52 c 128,-1,14
 47 15 47 15 72 145 c 2,15,-1
 154 565 l 1,16,-1
 -34 565 l 1,17,-1
 17 831 l 1,18,-1
 205 831 l 1,19,-1
 334 1493 l 1,0,-1
EndSplineSet
EndChar
StartChar: uni0249
Encoding: 585 585 585
Width: 702
Flags: W
TeX: 0 0 0 0
AnchorPoint: "above" 550.435 1583 basechar 0
AnchorPoint: "below" 159.146 -430 basechar 0
Fore
366 1556 m 1,12,-1
 724 1556 l 1,13,-1
 667 1264 l 1,14,-1
 309 1264 l 1,15,-1
 366 1556 l 1,12,-1
-59 438 m 1,0,-1
 -21 632 l 1,1,-1
 187 632 l 1,2,-1
 281 1120 l 1,3,-1
 639 1120 l 1,4,-1
 545 632 l 1,5,-1
 753 632 l 1,6,-1
 715 438 l 1,7,-1
 507 438 l 1,8,-1
 426 20 l 2,9,10
 382 -205 382 -205 251 -324 c 0,11,12
 120 -442 120 -442 -85 -442 c 2,13,-1
 -262 -442 l 1,14,-1
 -217 -207 l 1,15,-1
 -155 -207 l 2,16,17
 -53 -207 -53 -207 -6 -161 c 128,-1,19
 41 -115 41 -115 68 20 c 2,20,-1
 149 438 l 1,21,-1
 -59 438 l 1,0,-1
EndSplineSet
EndChar
StartChar: uni024A
Encoding: 586 586 586
Width: 1762
Flags: W
TeX: 117 0 0 0
Fore
795.006 250 m 0,0,1
 968.006 250 968.006 250 1084.19 377 c 128,-1,2
 1200.38 504 1200.38 504 1247.22 745 c 0,3,4
 1294.26 987 1294.26 987 1227.45 1114 c 128,-1,5
 1160.64 1241 1160.64 1241 987.637 1241 c 0,6,7
 815.637 1241 815.637 1241 699.45 1114 c 128,-1,8
 583.264 987 583.264 987 536.224 745 c 0,9,10
 489.378 504 489.378 504 556.191 377 c 128,-1,11
 623.006 250 623.006 250 795.006 250 c 0,0,1
1145.56 222 m 1,12,13
 1022.29 92 1022.29 92 893.033 31.5 c 128,-1,14
 763.773 -29 763.773 -29 609.773 -29 c 0,15,16
 336.773 -29 336.773 -29 203.356 187.5 c 128,-1,17
 69.9404 404 69.9404 404 136.029 744 c 0,18,19
 202.313 1085 202.313 1085 419.799 1301 c 128,-1,20
 637.285 1517 637.285 1517 910.285 1517 c 0,21,22
 1063.29 1517 1063.29 1517 1169.43 1456 c 128,-1,23
 1275.57 1395 1275.57 1395 1348.5 1266 c 1,24,-1
 1392.62 1493 l 1,25,-1
 1757.62 1493 l 1,26,-1
 1495.6 145 l 2,27,28
 1470.33 15 1470.33 15 1518.8 -52 c 128,-1,29
 1567.28 -119 1567.28 -119 1687.28 -119 c 2,30,-1
 1767.28 -119 l 1,31,-1
 1710.71 -410 l 1,32,-1
 1632.71 -410 l 2,33,34
 1325.71 -410 1325.71 -410 1201.04 -272 c 128,-1,35
 1076.36 -134 1076.36 -134 1130.6 145 c 2,36,-1
 1145.56 222 l 1,12,13
EndSplineSet
EndChar
StartChar: uni024B
Encoding: 587 587 587
Width: 1620
Flags: W
TeX: 117 0 0 0
AnchorPoint: "above" 1340.94 1520 basechar 0
AnchorPoint: "below" 576.897 -430 basechar 0
Fore
674.383 231 m 0,0,1
 789.383 231 789.383 231 866.711 315 c 0,2,3
 943.039 399 943.039 399 974.14 559 c 128,-1,4
 1005.24 719 1005.24 719 961.568 803 c 0,5,6
 916.896 887 916.896 887 801.896 887 c 0,7,8
 687.896 887 687.896 887 611.568 803 c 0,9,10
 534.24 719 534.24 719 503.14 559 c 128,-1,11
 472.039 399 472.039 399 516.711 315 c 0,12,13
 560.383 231 560.383 231 674.383 231 c 0,0,1
1202.56 -442 m 2,14,15
 896.564 -442 896.564 -442 860.132 -187 c 0,16,17
 848.266 -104 848.266 -104 865.48 0 c 1,18,-1
 896.971 162 l 1,19,20
 803.727 63 803.727 63 705.785 17 c 128,-1,21
 607.844 -29 607.844 -29 490.844 -29 c 0,22,23
 283.844 -29 283.844 -29 182.917 136 c 0,24,25
 81.7949 300 81.7949 300 132.14 559 c 128,-1,26
 182.484 818 182.484 818 347.362 982 c 0,27,28
 512.436 1147 512.436 1147 719.436 1147 c 0,29,30
 835.436 1147 835.436 1147 915.299 1100 c 0,31,32
 996.357 1054 996.357 1054 1051.31 956 c 1,33,-1
 1083.19 1120 l 1,34,-1
 1443.19 1120 l 1,35,-1
 1229.37 20 l 2,36,37
 1203.13 -115 1203.13 -115 1232.19 -161 c 128,-1,38
 1261.24 -207 1261.24 -207 1363.24 -207 c 2,39,-1
 1529.24 -207 l 1,40,-1
 1483.56 -442 l 1,41,-1
 1202.56 -442 l 2,14,15
EndSplineSet
EndChar
StartChar: uni024C
Encoding: 588 588 588
Width: 1577
Flags: W
TeX: 0 0 0 0
AnchorPoint: "above" 890 1520 basechar 0
AnchorPoint: "below" 565.896 0 basechar 0
Fore
539 565 m 1,0,-1
 428 0 l 1,1,-1
 43 0 l 1,2,-1
 153.119 565 l 1,3,-1
 -23.2803 565 l 1,4,-1
 27.2588 825 l 1,5,-1
 203.8 825 l 1,6,-1
 334 1493 l 1,7,-1
 903 1493 l 2,8,9
 1149 1493 1149 1493 1276 1401 c 128,-1,10
 1403 1309 1403 1309 1403 1130 c 0,11,12
 1403 949 1403 949 1303 832 c 128,-1,13
 1203 715 1203 715 1032 698 c 1,14,15
 1110 682 1110 682 1162 618.5 c 0,16,17
 1213.62 555.459 1213.62 555.459 1253 424 c 2,18,-1
 1380 0 l 1,19,-1
 997 0 l 1,20,-1
 885 371 l 1,21,22
 851 482 851 482 802.5 523.5 c 128,-1,23
 754 565 754 565 662 565 c 2,24,-1
 539 565 l 1,0,-1
752 831 m 2,25,26
 883 831 883 831 950.5 892 c 128,-1,27
 1018 953 1018 953 1018 1071 c 0,28,29
 1018 1145 1018 1145 971.5 1179.5 c 128,-1,30
 925 1214 925 1214 825 1214 c 2,31,-1
 666 1214 l 1,32,-1
 590 831 l 1,33,-1
 752 831 l 2,25,26
EndSplineSet
EndChar
StartChar: uni024D
Encoding: 589 589 589
Width: 1010
Flags: W
TeX: 0 0 0 0
AnchorPoint: "above" 708.478 1147 basechar 0
AnchorPoint: "below" 238.522 0 basechar 0
Fore
1051 815 m 1,0,1
 1008 837 1008 837 964 848 c 128,-1,2
 919 858 919 858 872 858 c 0,3,4
 740 858 740 858 659 784 c 128,-1,5
 579 710 579 710 553 632 c 1,6,-1
 742 632 l 1,7,-1
 705 438 l 1,8,-1
 504 438 l 1,9,-1
 419 0 l 1,10,-1
 61 0 l 1,11,-1
 146 438 l 1,12,-1
 -68 438 l 1,13,-1
 -31 632 l 1,14,-1
 183 632 l 1,15,-1
 278 1120 l 1,16,-1
 636 1120 l 1,17,-1
 600 936 l 1,18,19
 691 1046 691 1046 790 1096 c 128,-1,20
 889 1147 889 1147 1014 1147 c 0,21,22
 1032 1147 1032 1147 1053 1146 c 128,-1,23
 1074 1144 1074 1144 1113 1139 c 1,24,-1
 1051 815 l 1,0,1
EndSplineSet
EndChar
StartChar: uni024E
Encoding: 590 590 590
Width: 1483
Flags: W
TeX: 117 0 0 0
AnchorPoint: "below" 595.896 0 basechar 0
AnchorPoint: "above" 892.714 1527 basechar 0
Fore
125 1493 m 1,0,-1
 546 1493 l 1,1,-1
 630 1306 l 1,2,-1
 1070 1306 l 1,3,-1
 1226 1493 l 1,4,-1
 1648 1493 l 1,5,-1
 1489 1306 l 1,6,-1
 1601 1306 l 1,7,-1
 1563 1112 l 1,8,-1
 1323 1112 l 1,9,-1
 911 629 l 1,10,-1
 789 0 l 1,11,-1
 404 0 l 1,12,-1
 526 629 l 1,13,-1
 302 1112 l 1,14,-1
 61 1112 l 1,15,-1
 99 1306 l 1,16,-1
 212 1306 l 1,17,-1
 125 1493 l 1,0,-1
909 1112 m 1,18,-1
 715 1112 l 1,19,-1
 783 961 l 1,20,-1
 909 1112 l 1,18,-1
EndSplineSet
EndChar
StartChar: uni024F
Encoding: 591 591 591
Width: 1335
Flags: W
TeX: 117 0 0 0
AnchorPoint: "below" 511.521 -430 basechar 0
AnchorPoint: "above" 818.06 1147 basechar 0
Fore
177 1120 m 1,0,-1
 535 1120 l 1,1,-1
 623 682 l 1,2,-1
 859 682 l 1,3,-1
 1092 1120 l 1,4,-1
 1450 1120 l 1,5,-1
 1197 682 l 1,6,-1
 1410 682 l 1,7,-1
 1372 488 l 1,8,-1
 1084 488 l 1,9,-1
 741 -106 l 2,10,11
 632 -294 632 -294 525 -368 c 0,12,13
 415 -442 415 -442 260 -442 c 2,14,-1
 53 -442 l 1,15,-1
 99 -207 l 1,16,-1
 211 -207 l 2,17,18
 302 -207 302 -207 350 -178 c 0,19,20
 396 -149 396 -149 434 -74 c 2,21,-1
 450 -43 l 1,22,-1
 325 488 l 1,23,-1
 20 488 l 1,24,-1
 58 682 l 1,25,-1
 280 682 l 1,26,-1
 177 1120 l 1,0,-1
756 488 m 1,27,-1
 662 488 l 1,28,-1
 688 360 l 1,29,-1
 756 488 l 1,27,-1
EndSplineSet
EndChar
StartChar: uni0250
Encoding: 592 592 592
Width: 1382
Flags: W
AnchorPoint: "above" 812.296 1147 basechar 0
AnchorPoint: "below" 589.342 0 basechar 0
Fore
646 614 m 2,0,1
 758 614 758 614 822 652 c 0,2,3
 885 690 885 690 900 764 c 0,4,5
 913 832 913 832 875 870 c 0,6,7
 837 909 837 909 756 909 c 0,8,9
 655 909 655 909 572 836 c 0,10,11
 489 764 489 764 468 655 c 2,12,-1
 460 614 l 1,13,-1
 646 614 l 2,0,1
72 479 m 2,14,-1
 197 1118 l 1,15,-1
 558 1118 l 1,16,-1
 525 952 l 1,17,18
 617 1054 617 1054 716 1100 c 128,-1,19
 815 1147 815 1147 944 1147 c 0,20,21
 1118 1147 1118 1147 1207 1046 c 0,22,23
 1296 944 1296 944 1264 782 c 0,24,25
 1226 585 1226 585 1073 493 c 0,26,27
 919 401 919 401 629 401 c 2,28,-1
 418 401 l 1,29,-1
 413 373 l 2,30,31
 396 288 396 288 456 248 c 128,-1,32
 515 209 515 209 657 209 c 0,33,34
 772 209 772 209 875 232 c 0,35,36
 979 255 979 255 1073 301 c 1,37,-1
 1020 28 l 1,38,39
 899 0 899 0 781 -14 c 0,40,41
 662 -29 662 -29 546 -29 c 0,42,43
 243 -29 243 -29 131 90 c 0,44,45
 20 210 20 210 72 479 c 2,14,-1
EndSplineSet
EndChar
StartChar: uni0251
Encoding: 593 593 593
Width: 1466
Flags: W
TeX: 0 0 0 0
AnchorPoint: "below" 589.342 0 basechar 0
AnchorPoint: "above" 784 1147 basechar 0
Fore
1011 956 m 1,0,-1
 1043 1120 l 1,1,-1
 1403 1120 l 1,2,-1
 1185 0 l 1,3,-1
 825 0 l 1,4,-1
 857 162 l 1,5,6
 764 63 764 63 666 17 c 0,7,8
 568 -29 568 -29 451 -29 c 0,9,10
 244 -29 244 -29 143 136 c 0,11,12
 42 300 42 300 92 559 c 0,13,14
 142 818 142 818 307 982 c 0,15,16
 472 1147 472 1147 679 1147 c 0,17,18
 795 1147 795 1147 876 1100 c 128,-1,19
 956 1054 956 1054 1011 956 c 1,0,-1
634 231 m 0,20,21
 749 231 749 231 826 315 c 128,-1,22
 903 399 903 399 934 559 c 128,-1,23
 965 719 965 719 921 803 c 128,-1,24
 877 887 877 887 762 887 c 0,25,26
 648 887 648 887 571 803 c 128,-1,27
 494 719 494 719 463 559 c 128,-1,28
 432 399 432 399 476 315 c 0,29,30
 520 231 520 231 634 231 c 0,20,21
EndSplineSet
EndChar
